%FSLAX45Y45*%
G04 Gerber Fmt 4.5, Leading zero omitted, Abs format (unit mm)*
G04 Created by KiCad (PCBNEW 5.1.10) date 2021-05-04 22:48:03*
%MOMM*%
%LPD*%
G01*
G04 APERTURE LIST*
%TA.AperFunction,Profile*%
%ADD10C,0.050000*%
%TD*%
%ADD11C,0.200000*%
%ADD12C,0.300000*%
G04 APERTURE END LIST*
D10*
X6350000Y-6223000D02*
G75*
G02*
X6223000Y-6350000I-127000J0D01*
G01*
X2667000Y-6350000D02*
G75*
G02*
X2540000Y-6223000I0J127000D01*
G01*
X2540000Y-2667000D02*
G75*
G02*
X2667000Y-2540000I127000J0D01*
G01*
X6350000Y-2667000D02*
X6350000Y-6223000D01*
X6223000Y-6350000D02*
X2667000Y-6350000D01*
X6223000Y-2540000D02*
G75*
G02*
X6350000Y-2667000I0J-127000D01*
G01*
X2540000Y-6223000D02*
X2540000Y-2667000D01*
X2667000Y-2540000D02*
X6223000Y-2540000D01*
D11*
X5809000Y-2761000D02*
X6129000Y-3081000D01*
X6129000Y-2761000D02*
X5809000Y-3081000D01*
X5809000Y-5809000D02*
X6129000Y-6129000D01*
X6129000Y-5809000D02*
X5809000Y-6129000D01*
D12*
X2823928Y-6818214D02*
X2823928Y-6518214D01*
X2895357Y-6518214D01*
X2938214Y-6532500D01*
X2966786Y-6561071D01*
X2981071Y-6589643D01*
X2995357Y-6646786D01*
X2995357Y-6689643D01*
X2981071Y-6746786D01*
X2966786Y-6775357D01*
X2938214Y-6803929D01*
X2895357Y-6818214D01*
X2823928Y-6818214D01*
X3123928Y-6818214D02*
X3123928Y-6618214D01*
X3123928Y-6675357D02*
X3138214Y-6646786D01*
X3152500Y-6632500D01*
X3181071Y-6618214D01*
X3209643Y-6618214D01*
X3309643Y-6818214D02*
X3309643Y-6618214D01*
X3309643Y-6518214D02*
X3295357Y-6532500D01*
X3309643Y-6546786D01*
X3323928Y-6532500D01*
X3309643Y-6518214D01*
X3309643Y-6546786D01*
X3495357Y-6818214D02*
X3466786Y-6803929D01*
X3452500Y-6775357D01*
X3452500Y-6518214D01*
X3652500Y-6818214D02*
X3623928Y-6803929D01*
X3609643Y-6775357D01*
X3609643Y-6518214D01*
X3995357Y-6818214D02*
X3995357Y-6518214D01*
X4095357Y-6732500D01*
X4195357Y-6518214D01*
X4195357Y-6818214D01*
X4466786Y-6818214D02*
X4466786Y-6661071D01*
X4452500Y-6632500D01*
X4423928Y-6618214D01*
X4366786Y-6618214D01*
X4338214Y-6632500D01*
X4466786Y-6803929D02*
X4438214Y-6818214D01*
X4366786Y-6818214D01*
X4338214Y-6803929D01*
X4323928Y-6775357D01*
X4323928Y-6746786D01*
X4338214Y-6718214D01*
X4366786Y-6703929D01*
X4438214Y-6703929D01*
X4466786Y-6689643D01*
X4609643Y-6618214D02*
X4609643Y-6918214D01*
X4609643Y-6632500D02*
X4638214Y-6618214D01*
X4695357Y-6618214D01*
X4723928Y-6632500D01*
X4738214Y-6646786D01*
X4752500Y-6675357D01*
X4752500Y-6761071D01*
X4738214Y-6789643D01*
X4723928Y-6803929D01*
X4695357Y-6818214D01*
X4638214Y-6818214D01*
X4609643Y-6803929D01*
X4881071Y-6789643D02*
X4895357Y-6803929D01*
X4881071Y-6818214D01*
X4866786Y-6803929D01*
X4881071Y-6789643D01*
X4881071Y-6818214D01*
X4881071Y-6632500D02*
X4895357Y-6646786D01*
X4881071Y-6661071D01*
X4866786Y-6646786D01*
X4881071Y-6632500D01*
X4881071Y-6661071D01*
X2217500Y-7152500D02*
X2537500Y-7472500D01*
X2537500Y-7152500D02*
X2217500Y-7472500D01*
X2795357Y-7148214D02*
X2981071Y-7148214D01*
X2881071Y-7262500D01*
X2923928Y-7262500D01*
X2952500Y-7276786D01*
X2966786Y-7291071D01*
X2981071Y-7319643D01*
X2981071Y-7391071D01*
X2966786Y-7419643D01*
X2952500Y-7433929D01*
X2923928Y-7448214D01*
X2838214Y-7448214D01*
X2809643Y-7433929D01*
X2795357Y-7419643D01*
X3109643Y-7419643D02*
X3123928Y-7433929D01*
X3109643Y-7448214D01*
X3095357Y-7433929D01*
X3109643Y-7419643D01*
X3109643Y-7448214D01*
X3238214Y-7176786D02*
X3252500Y-7162500D01*
X3281071Y-7148214D01*
X3352500Y-7148214D01*
X3381071Y-7162500D01*
X3395357Y-7176786D01*
X3409643Y-7205357D01*
X3409643Y-7233929D01*
X3395357Y-7276786D01*
X3223928Y-7448214D01*
X3409643Y-7448214D01*
X3595357Y-7148214D02*
X3623928Y-7148214D01*
X3652500Y-7162500D01*
X3666786Y-7176786D01*
X3681071Y-7205357D01*
X3695357Y-7262500D01*
X3695357Y-7333929D01*
X3681071Y-7391071D01*
X3666786Y-7419643D01*
X3652500Y-7433929D01*
X3623928Y-7448214D01*
X3595357Y-7448214D01*
X3566786Y-7433929D01*
X3552500Y-7419643D01*
X3538214Y-7391071D01*
X3523928Y-7333929D01*
X3523928Y-7262500D01*
X3538214Y-7205357D01*
X3552500Y-7176786D01*
X3566786Y-7162500D01*
X3595357Y-7148214D01*
X3881071Y-7148214D02*
X3909643Y-7148214D01*
X3938214Y-7162500D01*
X3952500Y-7176786D01*
X3966786Y-7205357D01*
X3981071Y-7262500D01*
X3981071Y-7333929D01*
X3966786Y-7391071D01*
X3952500Y-7419643D01*
X3938214Y-7433929D01*
X3909643Y-7448214D01*
X3881071Y-7448214D01*
X3852500Y-7433929D01*
X3838214Y-7419643D01*
X3823928Y-7391071D01*
X3809643Y-7333929D01*
X3809643Y-7262500D01*
X3823928Y-7205357D01*
X3838214Y-7176786D01*
X3852500Y-7162500D01*
X3881071Y-7148214D01*
X4109643Y-7448214D02*
X4109643Y-7248214D01*
X4109643Y-7276786D02*
X4123928Y-7262500D01*
X4152500Y-7248214D01*
X4195357Y-7248214D01*
X4223928Y-7262500D01*
X4238214Y-7291071D01*
X4238214Y-7448214D01*
X4238214Y-7291071D02*
X4252500Y-7262500D01*
X4281071Y-7248214D01*
X4323928Y-7248214D01*
X4352500Y-7262500D01*
X4366786Y-7291071D01*
X4366786Y-7448214D01*
X4509643Y-7448214D02*
X4509643Y-7248214D01*
X4509643Y-7276786D02*
X4523928Y-7262500D01*
X4552500Y-7248214D01*
X4595357Y-7248214D01*
X4623928Y-7262500D01*
X4638214Y-7291071D01*
X4638214Y-7448214D01*
X4638214Y-7291071D02*
X4652500Y-7262500D01*
X4681071Y-7248214D01*
X4723928Y-7248214D01*
X4752500Y-7262500D01*
X4766786Y-7291071D01*
X4766786Y-7448214D01*
X5352500Y-7133929D02*
X5095357Y-7519643D01*
X5738214Y-7148214D02*
X5766786Y-7148214D01*
X5795357Y-7162500D01*
X5809643Y-7176786D01*
X5823928Y-7205357D01*
X5838214Y-7262500D01*
X5838214Y-7333929D01*
X5823928Y-7391071D01*
X5809643Y-7419643D01*
X5795357Y-7433929D01*
X5766786Y-7448214D01*
X5738214Y-7448214D01*
X5709643Y-7433929D01*
X5695357Y-7419643D01*
X5681071Y-7391071D01*
X5666786Y-7333929D01*
X5666786Y-7262500D01*
X5681071Y-7205357D01*
X5695357Y-7176786D01*
X5709643Y-7162500D01*
X5738214Y-7148214D01*
X5966786Y-7419643D02*
X5981071Y-7433929D01*
X5966786Y-7448214D01*
X5952500Y-7433929D01*
X5966786Y-7419643D01*
X5966786Y-7448214D01*
X6266786Y-7448214D02*
X6095357Y-7448214D01*
X6181071Y-7448214D02*
X6181071Y-7148214D01*
X6152500Y-7191071D01*
X6123928Y-7219643D01*
X6095357Y-7233929D01*
X6381071Y-7176786D02*
X6395357Y-7162500D01*
X6423928Y-7148214D01*
X6495357Y-7148214D01*
X6523928Y-7162500D01*
X6538214Y-7176786D01*
X6552500Y-7205357D01*
X6552500Y-7233929D01*
X6538214Y-7276786D01*
X6366786Y-7448214D01*
X6552500Y-7448214D01*
X6809643Y-7148214D02*
X6752500Y-7148214D01*
X6723928Y-7162500D01*
X6709643Y-7176786D01*
X6681071Y-7219643D01*
X6666786Y-7276786D01*
X6666786Y-7391071D01*
X6681071Y-7419643D01*
X6695357Y-7433929D01*
X6723928Y-7448214D01*
X6781071Y-7448214D01*
X6809643Y-7433929D01*
X6823928Y-7419643D01*
X6838214Y-7391071D01*
X6838214Y-7319643D01*
X6823928Y-7291071D01*
X6809643Y-7276786D01*
X6781071Y-7262500D01*
X6723928Y-7262500D01*
X6695357Y-7276786D01*
X6681071Y-7291071D01*
X6666786Y-7319643D01*
X7023928Y-7148214D02*
X7052500Y-7148214D01*
X7081071Y-7162500D01*
X7095357Y-7176786D01*
X7109643Y-7205357D01*
X7123928Y-7262500D01*
X7123928Y-7333929D01*
X7109643Y-7391071D01*
X7095357Y-7419643D01*
X7081071Y-7433929D01*
X7052500Y-7448214D01*
X7023928Y-7448214D01*
X6995357Y-7433929D01*
X6981071Y-7419643D01*
X6966786Y-7391071D01*
X6952500Y-7333929D01*
X6952500Y-7262500D01*
X6966786Y-7205357D01*
X6981071Y-7176786D01*
X6995357Y-7162500D01*
X7023928Y-7148214D01*
X7238214Y-7148214D02*
X7238214Y-7205357D01*
X7352500Y-7148214D02*
X7352500Y-7205357D01*
X7795357Y-7562500D02*
X7781071Y-7548214D01*
X7752500Y-7505357D01*
X7738214Y-7476786D01*
X7723928Y-7433929D01*
X7709643Y-7362500D01*
X7709643Y-7305357D01*
X7723928Y-7233929D01*
X7738214Y-7191071D01*
X7752500Y-7162500D01*
X7781071Y-7119643D01*
X7795357Y-7105357D01*
X7895357Y-7176786D02*
X7909643Y-7162500D01*
X7938214Y-7148214D01*
X8009643Y-7148214D01*
X8038214Y-7162500D01*
X8052500Y-7176786D01*
X8066786Y-7205357D01*
X8066786Y-7233929D01*
X8052500Y-7276786D01*
X7881071Y-7448214D01*
X8066786Y-7448214D01*
X8423928Y-7448214D02*
X8423928Y-7148214D01*
X8552500Y-7448214D02*
X8552500Y-7291071D01*
X8538214Y-7262500D01*
X8509643Y-7248214D01*
X8466786Y-7248214D01*
X8438214Y-7262500D01*
X8423928Y-7276786D01*
X8738214Y-7448214D02*
X8709643Y-7433929D01*
X8695357Y-7419643D01*
X8681071Y-7391071D01*
X8681071Y-7305357D01*
X8695357Y-7276786D01*
X8709643Y-7262500D01*
X8738214Y-7248214D01*
X8781071Y-7248214D01*
X8809643Y-7262500D01*
X8823928Y-7276786D01*
X8838214Y-7305357D01*
X8838214Y-7391071D01*
X8823928Y-7419643D01*
X8809643Y-7433929D01*
X8781071Y-7448214D01*
X8738214Y-7448214D01*
X9009643Y-7448214D02*
X8981071Y-7433929D01*
X8966786Y-7405357D01*
X8966786Y-7148214D01*
X9238214Y-7433929D02*
X9209643Y-7448214D01*
X9152500Y-7448214D01*
X9123928Y-7433929D01*
X9109643Y-7405357D01*
X9109643Y-7291071D01*
X9123928Y-7262500D01*
X9152500Y-7248214D01*
X9209643Y-7248214D01*
X9238214Y-7262500D01*
X9252500Y-7291071D01*
X9252500Y-7319643D01*
X9109643Y-7348214D01*
X9366786Y-7433929D02*
X9395357Y-7448214D01*
X9452500Y-7448214D01*
X9481071Y-7433929D01*
X9495357Y-7405357D01*
X9495357Y-7391071D01*
X9481071Y-7362500D01*
X9452500Y-7348214D01*
X9409643Y-7348214D01*
X9381071Y-7333929D01*
X9366786Y-7305357D01*
X9366786Y-7291071D01*
X9381071Y-7262500D01*
X9409643Y-7248214D01*
X9452500Y-7248214D01*
X9481071Y-7262500D01*
X9595357Y-7562500D02*
X9609643Y-7548214D01*
X9638214Y-7505357D01*
X9652500Y-7476786D01*
X9666786Y-7433929D01*
X9681071Y-7362500D01*
X9681071Y-7305357D01*
X9666786Y-7233929D01*
X9652500Y-7191071D01*
X9638214Y-7162500D01*
X9609643Y-7119643D01*
X9595357Y-7105357D01*
X10138214Y-7562500D02*
X10123928Y-7548214D01*
X10095357Y-7505357D01*
X10081071Y-7476786D01*
X10066786Y-7433929D01*
X10052500Y-7362500D01*
X10052500Y-7305357D01*
X10066786Y-7233929D01*
X10081071Y-7191071D01*
X10095357Y-7162500D01*
X10123928Y-7119643D01*
X10138214Y-7105357D01*
X10252500Y-7248214D02*
X10252500Y-7448214D01*
X10252500Y-7276786D02*
X10266786Y-7262500D01*
X10295357Y-7248214D01*
X10338214Y-7248214D01*
X10366786Y-7262500D01*
X10381071Y-7291071D01*
X10381071Y-7448214D01*
X10566786Y-7448214D02*
X10538214Y-7433929D01*
X10523928Y-7419643D01*
X10509643Y-7391071D01*
X10509643Y-7305357D01*
X10523928Y-7276786D01*
X10538214Y-7262500D01*
X10566786Y-7248214D01*
X10609643Y-7248214D01*
X10638214Y-7262500D01*
X10652500Y-7276786D01*
X10666786Y-7305357D01*
X10666786Y-7391071D01*
X10652500Y-7419643D01*
X10638214Y-7433929D01*
X10609643Y-7448214D01*
X10566786Y-7448214D01*
X10752500Y-7248214D02*
X10866786Y-7248214D01*
X10795357Y-7148214D02*
X10795357Y-7405357D01*
X10809643Y-7433929D01*
X10838214Y-7448214D01*
X10866786Y-7448214D01*
X11195357Y-7248214D02*
X11195357Y-7548214D01*
X11195357Y-7262500D02*
X11223928Y-7248214D01*
X11281071Y-7248214D01*
X11309643Y-7262500D01*
X11323928Y-7276786D01*
X11338214Y-7305357D01*
X11338214Y-7391071D01*
X11323928Y-7419643D01*
X11309643Y-7433929D01*
X11281071Y-7448214D01*
X11223928Y-7448214D01*
X11195357Y-7433929D01*
X11509643Y-7448214D02*
X11481071Y-7433929D01*
X11466786Y-7405357D01*
X11466786Y-7148214D01*
X11752500Y-7448214D02*
X11752500Y-7291071D01*
X11738214Y-7262500D01*
X11709643Y-7248214D01*
X11652500Y-7248214D01*
X11623928Y-7262500D01*
X11752500Y-7433929D02*
X11723928Y-7448214D01*
X11652500Y-7448214D01*
X11623928Y-7433929D01*
X11609643Y-7405357D01*
X11609643Y-7376786D01*
X11623928Y-7348214D01*
X11652500Y-7333929D01*
X11723928Y-7333929D01*
X11752500Y-7319643D01*
X11852500Y-7248214D02*
X11966786Y-7248214D01*
X11895357Y-7148214D02*
X11895357Y-7405357D01*
X11909643Y-7433929D01*
X11938214Y-7448214D01*
X11966786Y-7448214D01*
X12181071Y-7433929D02*
X12152500Y-7448214D01*
X12095357Y-7448214D01*
X12066786Y-7433929D01*
X12052500Y-7405357D01*
X12052500Y-7291071D01*
X12066786Y-7262500D01*
X12095357Y-7248214D01*
X12152500Y-7248214D01*
X12181071Y-7262500D01*
X12195357Y-7291071D01*
X12195357Y-7319643D01*
X12052500Y-7348214D01*
X12452500Y-7448214D02*
X12452500Y-7148214D01*
X12452500Y-7433929D02*
X12423928Y-7448214D01*
X12366786Y-7448214D01*
X12338214Y-7433929D01*
X12323928Y-7419643D01*
X12309643Y-7391071D01*
X12309643Y-7305357D01*
X12323928Y-7276786D01*
X12338214Y-7262500D01*
X12366786Y-7248214D01*
X12423928Y-7248214D01*
X12452500Y-7262500D01*
X12566786Y-7562500D02*
X12581071Y-7548214D01*
X12609643Y-7505357D01*
X12623928Y-7476786D01*
X12638214Y-7433929D01*
X12652500Y-7362500D01*
X12652500Y-7305357D01*
X12638214Y-7233929D01*
X12623928Y-7191071D01*
X12609643Y-7162500D01*
X12581071Y-7119643D01*
X12566786Y-7105357D01*
M02*
