G04 #@! TF.GenerationSoftware,KiCad,Pcbnew,5.1.10*
G04 #@! TF.CreationDate,2021-05-04T22:47:59+02:00*
G04 #@! TF.ProjectId,Signalsimulator,5369676e-616c-4736-996d-756c61746f72,rev?*
G04 #@! TF.SameCoordinates,Original*
G04 #@! TF.FileFunction,Legend,Bot*
G04 #@! TF.FilePolarity,Positive*
%FSLAX46Y46*%
G04 Gerber Fmt 4.6, Leading zero omitted, Abs format (unit mm)*
G04 Created by KiCad (PCBNEW 5.1.10) date 2021-05-04 22:47:59*
%MOMM*%
%LPD*%
G01*
G04 APERTURE LIST*
%ADD10C,0.300000*%
%ADD11C,0.120000*%
%ADD12C,3.200000*%
%ADD13C,1.800000*%
%ADD14R,1.800000X1.800000*%
%ADD15O,1.400000X1.400000*%
%ADD16C,1.400000*%
%ADD17C,1.700000*%
G04 APERTURE END LIST*
D10*
X60641428Y-41440714D02*
X60784285Y-41369285D01*
X61070000Y-41369285D01*
X61212857Y-41440714D01*
X61355714Y-41583571D01*
X61427142Y-41726428D01*
X61427142Y-42012142D01*
X61355714Y-42155000D01*
X61212857Y-42297857D01*
X61070000Y-42369285D01*
X60784285Y-42369285D01*
X60641428Y-42297857D01*
X60927142Y-40869285D02*
X61284285Y-40940714D01*
X61641428Y-41155000D01*
X61855714Y-41512142D01*
X61927142Y-41869285D01*
X61855714Y-42226428D01*
X61641428Y-42583571D01*
X61284285Y-42797857D01*
X60927142Y-42869285D01*
X60570000Y-42797857D01*
X60212857Y-42583571D01*
X59998571Y-42226428D01*
X59927142Y-41869285D01*
X59998571Y-41512142D01*
X60212857Y-41155000D01*
X60570000Y-40940714D01*
X60927142Y-40869285D01*
X59284285Y-42583571D02*
X59284285Y-41083571D01*
X59284285Y-41797857D02*
X58427142Y-41797857D01*
X58427142Y-42583571D02*
X58427142Y-41083571D01*
X57855714Y-41083571D02*
X56927142Y-41083571D01*
X57427142Y-41655000D01*
X57212857Y-41655000D01*
X57070000Y-41726428D01*
X56998571Y-41797857D01*
X56927142Y-41940714D01*
X56927142Y-42297857D01*
X56998571Y-42440714D01*
X57070000Y-42512142D01*
X57212857Y-42583571D01*
X57641428Y-42583571D01*
X57784285Y-42512142D01*
X57855714Y-42440714D01*
X56284285Y-42012142D02*
X55141428Y-42012142D01*
X54427142Y-42583571D02*
X54427142Y-41083571D01*
X54427142Y-41797857D02*
X53570000Y-41797857D01*
X53570000Y-42583571D02*
X53570000Y-41083571D01*
X52141428Y-41083571D02*
X52855714Y-41083571D01*
X52927142Y-41797857D01*
X52855714Y-41726428D01*
X52712857Y-41655000D01*
X52355714Y-41655000D01*
X52212857Y-41726428D01*
X52141428Y-41797857D01*
X52070000Y-41940714D01*
X52070000Y-42297857D01*
X52141428Y-42440714D01*
X52212857Y-42512142D01*
X52355714Y-42583571D01*
X52712857Y-42583571D01*
X52855714Y-42512142D01*
X52927142Y-42440714D01*
X51427142Y-42583571D02*
X51427142Y-41083571D01*
X50570000Y-42583571D01*
X50570000Y-41083571D01*
X49212857Y-41083571D02*
X49498571Y-41083571D01*
X49641428Y-41155000D01*
X49712857Y-41226428D01*
X49855714Y-41440714D01*
X49927142Y-41726428D01*
X49927142Y-42297857D01*
X49855714Y-42440714D01*
X49784285Y-42512142D01*
X49641428Y-42583571D01*
X49355714Y-42583571D01*
X49212857Y-42512142D01*
X49141428Y-42440714D01*
X49070000Y-42297857D01*
X49070000Y-41940714D01*
X49141428Y-41797857D01*
X49212857Y-41726428D01*
X49355714Y-41655000D01*
X49641428Y-41655000D01*
X49784285Y-41726428D01*
X49855714Y-41797857D01*
X49927142Y-41940714D01*
X47355714Y-41226428D02*
X47284285Y-41155000D01*
X47141428Y-41083571D01*
X46784285Y-41083571D01*
X46641428Y-41155000D01*
X46570000Y-41226428D01*
X46498571Y-41369285D01*
X46498571Y-41512142D01*
X46570000Y-41726428D01*
X47427142Y-42583571D01*
X46498571Y-42583571D01*
X45570000Y-41083571D02*
X45427142Y-41083571D01*
X45284285Y-41155000D01*
X45212857Y-41226428D01*
X45141428Y-41369285D01*
X45070000Y-41655000D01*
X45070000Y-42012142D01*
X45141428Y-42297857D01*
X45212857Y-42440714D01*
X45284285Y-42512142D01*
X45427142Y-42583571D01*
X45570000Y-42583571D01*
X45712857Y-42512142D01*
X45784285Y-42440714D01*
X45855714Y-42297857D01*
X45927142Y-42012142D01*
X45927142Y-41655000D01*
X45855714Y-41369285D01*
X45784285Y-41226428D01*
X45712857Y-41155000D01*
X45570000Y-41083571D01*
X44498571Y-41226428D02*
X44427142Y-41155000D01*
X44284285Y-41083571D01*
X43927142Y-41083571D01*
X43784285Y-41155000D01*
X43712857Y-41226428D01*
X43641428Y-41369285D01*
X43641428Y-41512142D01*
X43712857Y-41726428D01*
X44570000Y-42583571D01*
X43641428Y-42583571D01*
X42212857Y-42583571D02*
X43070000Y-42583571D01*
X42641428Y-42583571D02*
X42641428Y-41083571D01*
X42784285Y-41297857D01*
X42927142Y-41440714D01*
X43070000Y-41512142D01*
X60462857Y-45133571D02*
X60462857Y-43633571D01*
X60462857Y-44347857D02*
X59605714Y-44347857D01*
X59605714Y-45133571D02*
X59605714Y-43633571D01*
X58177142Y-45133571D02*
X58891428Y-45133571D01*
X58891428Y-43633571D01*
X57677142Y-44562142D02*
X56534285Y-44562142D01*
X55891428Y-45062142D02*
X55677142Y-45133571D01*
X55320000Y-45133571D01*
X55177142Y-45062142D01*
X55105714Y-44990714D01*
X55034285Y-44847857D01*
X55034285Y-44705000D01*
X55105714Y-44562142D01*
X55177142Y-44490714D01*
X55320000Y-44419285D01*
X55605714Y-44347857D01*
X55748571Y-44276428D01*
X55820000Y-44205000D01*
X55891428Y-44062142D01*
X55891428Y-43919285D01*
X55820000Y-43776428D01*
X55748571Y-43705000D01*
X55605714Y-43633571D01*
X55248571Y-43633571D01*
X55034285Y-43705000D01*
X54391428Y-45133571D02*
X54391428Y-44133571D01*
X54391428Y-43633571D02*
X54462857Y-43705000D01*
X54391428Y-43776428D01*
X54320000Y-43705000D01*
X54391428Y-43633571D01*
X54391428Y-43776428D01*
X53034285Y-44133571D02*
X53034285Y-45347857D01*
X53105714Y-45490714D01*
X53177142Y-45562142D01*
X53320000Y-45633571D01*
X53534285Y-45633571D01*
X53677142Y-45562142D01*
X53034285Y-45062142D02*
X53177142Y-45133571D01*
X53462857Y-45133571D01*
X53605714Y-45062142D01*
X53677142Y-44990714D01*
X53748571Y-44847857D01*
X53748571Y-44419285D01*
X53677142Y-44276428D01*
X53605714Y-44205000D01*
X53462857Y-44133571D01*
X53177142Y-44133571D01*
X53034285Y-44205000D01*
X52320000Y-44133571D02*
X52320000Y-45133571D01*
X52320000Y-44276428D02*
X52248571Y-44205000D01*
X52105714Y-44133571D01*
X51891428Y-44133571D01*
X51748571Y-44205000D01*
X51677142Y-44347857D01*
X51677142Y-45133571D01*
X50320000Y-45133571D02*
X50320000Y-44347857D01*
X50391428Y-44205000D01*
X50534285Y-44133571D01*
X50820000Y-44133571D01*
X50962857Y-44205000D01*
X50320000Y-45062142D02*
X50462857Y-45133571D01*
X50820000Y-45133571D01*
X50962857Y-45062142D01*
X51034285Y-44919285D01*
X51034285Y-44776428D01*
X50962857Y-44633571D01*
X50820000Y-44562142D01*
X50462857Y-44562142D01*
X50320000Y-44490714D01*
X49391428Y-45133571D02*
X49534285Y-45062142D01*
X49605714Y-44919285D01*
X49605714Y-43633571D01*
X47820000Y-44133571D02*
X47462857Y-45133571D01*
X47105714Y-44133571D01*
X45748571Y-45133571D02*
X46605714Y-45133571D01*
X46177142Y-45133571D02*
X46177142Y-43633571D01*
X46320000Y-43847857D01*
X46462857Y-43990714D01*
X46605714Y-44062142D01*
X45105714Y-44990714D02*
X45034285Y-45062142D01*
X45105714Y-45133571D01*
X45177142Y-45062142D01*
X45105714Y-44990714D01*
X45105714Y-45133571D01*
X44105714Y-43633571D02*
X43962857Y-43633571D01*
X43820000Y-43705000D01*
X43748571Y-43776428D01*
X43677142Y-43919285D01*
X43605714Y-44205000D01*
X43605714Y-44562142D01*
X43677142Y-44847857D01*
X43748571Y-44990714D01*
X43820000Y-45062142D01*
X43962857Y-45133571D01*
X44105714Y-45133571D01*
X44248571Y-45062142D01*
X44320000Y-44990714D01*
X44391428Y-44847857D01*
X44462857Y-44562142D01*
X44462857Y-44205000D01*
X44391428Y-43919285D01*
X44320000Y-43776428D01*
X44248571Y-43705000D01*
X44105714Y-43633571D01*
D11*
X32250000Y-34480000D02*
X31750000Y-35480000D01*
X31250000Y-34480000D02*
X32250000Y-34480000D01*
X31750000Y-35480000D02*
X31250000Y-34480000D01*
X42040000Y-41100000D02*
X26540000Y-41100000D01*
X42040000Y-50220000D02*
X42040000Y-41100000D01*
X26540000Y-50220000D02*
X42040000Y-50220000D01*
X26540000Y-41100000D02*
X26540000Y-50220000D01*
X36340000Y-41100000D02*
X36340000Y-50220000D01*
X32240000Y-41100000D02*
X32240000Y-50220000D01*
%LPC*%
D12*
X59690000Y-29210000D03*
D13*
X59690000Y-39370000D03*
D14*
X57150000Y-39370000D03*
X49530000Y-31750000D03*
D13*
X52070000Y-31750000D03*
X52070000Y-57150000D03*
D14*
X49530000Y-57150000D03*
X49530000Y-49530000D03*
D13*
X52070000Y-49530000D03*
X59690000Y-46990000D03*
D14*
X57150000Y-46990000D03*
X49530000Y-39370000D03*
D13*
X52070000Y-39370000D03*
D15*
X34290000Y-29210000D03*
D16*
X41910000Y-29210000D03*
X36830000Y-26670000D03*
D15*
X29210000Y-26670000D03*
D16*
X45720000Y-59690000D03*
D15*
X45720000Y-52070000D03*
X45720000Y-39370000D03*
D16*
X45720000Y-46990000D03*
D15*
X31750000Y-31750000D03*
D16*
X39370000Y-31750000D03*
G36*
G01*
X31150000Y-35980000D02*
X32350000Y-35980000D01*
G75*
G02*
X32600000Y-36230000I0J-250000D01*
G01*
X32600000Y-37430000D01*
G75*
G02*
X32350000Y-37680000I-250000J0D01*
G01*
X31150000Y-37680000D01*
G75*
G02*
X30900000Y-37430000I0J250000D01*
G01*
X30900000Y-36230000D01*
G75*
G02*
X31150000Y-35980000I250000J0D01*
G01*
G37*
D17*
X34290000Y-36830000D03*
X36830000Y-36830000D03*
X31750000Y-39370000D03*
X34290000Y-39370000D03*
X36830000Y-39370000D03*
D12*
X59690000Y-59690000D03*
M02*
