M48
; DRILL file {KiCad 5.1.10} date Tue May  4 22:48:02 2021
; FORMAT={-:-/ absolute / metric / decimal}
; #@! TF.CreationDate,2021-05-04T22:48:02+02:00
; #@! TF.GenerationSoftware,Kicad,Pcbnew,5.1.10
; #@! TF.FileFunction,Plated,1,2,PTH
FMAT,2
METRIC
T1C0.700
T2C0.900
T3C1.000
%
G90
G05
T1
X29.21Y-26.67
X31.75Y-31.75
X34.29Y-29.21
X36.83Y-26.67
X39.37Y-31.75
X41.91Y-29.21
X45.72Y-39.37
X45.72Y-46.99
X45.72Y-52.07
X45.72Y-59.69
T2
X49.53Y-31.75
X49.53Y-39.37
X49.53Y-49.53
X49.53Y-57.15
X52.07Y-31.75
X52.07Y-39.37
X52.07Y-49.53
X52.07Y-57.15
X57.15Y-39.37
X57.15Y-46.99
X59.69Y-39.37
X59.69Y-46.99
T3
X31.75Y-36.83
X31.75Y-39.37
X34.29Y-36.83
X34.29Y-39.37
X36.83Y-36.83
X36.83Y-39.37
T0
M30
