M48
; DRILL file {KiCad 5.1.10} date Tue May  4 21:35:36 2021
; FORMAT={-:-/ absolute / metric / decimal}
; #@! TF.CreationDate,2021-05-04T21:35:36+02:00
; #@! TF.GenerationSoftware,Kicad,Pcbnew,5.1.10
; #@! TF.FileFunction,Plated,1,2,PTH
FMAT,2
METRIC
T1C0.800
T2C0.900
T3C1.000
%
G90
G05
T1
X158.75Y-115.57
X158.75Y-123.19
T2
X142.154Y-116.926
X143.95Y-115.13
X151.13Y-118.11
X151.13Y-120.65
X158.31Y-100.77
X160.106Y-98.974
T3
X135.89Y-97.79
X135.89Y-105.41
X137.16Y-90.17
X137.16Y-92.71
X140.97Y-97.79
X140.97Y-105.41
X146.05Y-97.79
X146.05Y-105.41
X151.13Y-97.79
X151.13Y-105.41
X153.67Y-97.79
X153.67Y-105.41
X165.1Y-113.03
X165.1Y-115.57
X167.64Y-113.03
X167.64Y-115.57
T0
M30
