G04 #@! TF.GenerationSoftware,KiCad,Pcbnew,5.1.10*
G04 #@! TF.CreationDate,2021-05-04T22:43:39+02:00*
G04 #@! TF.ProjectId,Weichensimulator-45rechts,57656963-6865-46e7-9369-6d756c61746f,rev?*
G04 #@! TF.SameCoordinates,Original*
G04 #@! TF.FileFunction,Legend,Top*
G04 #@! TF.FilePolarity,Positive*
%FSLAX46Y46*%
G04 Gerber Fmt 4.6, Leading zero omitted, Abs format (unit mm)*
G04 Created by KiCad (PCBNEW 5.1.10) date 2021-05-04 22:43:39*
%MOMM*%
%LPD*%
G01*
G04 APERTURE LIST*
%ADD10C,0.120000*%
%ADD11C,0.200000*%
%ADD12C,0.100000*%
%ADD13C,0.150000*%
%ADD14C,0.254000*%
%ADD15C,3.200000*%
%ADD16C,1.800000*%
%ADD17C,1.500000*%
%ADD18R,1.800000X1.800000*%
%ADD19O,1.600000X1.600000*%
%ADD20C,1.600000*%
%ADD21O,1.700000X1.700000*%
%ADD22R,1.700000X1.700000*%
G04 APERTURE END LIST*
D10*
X141229688Y-110394648D02*
X143414648Y-108209688D01*
X143011974Y-107491974D02*
G75*
G03*
X143011974Y-107491974I-2500000J0D01*
G01*
X138397398Y-105378050D02*
G75*
G02*
X143414528Y-108209808I2114576J-2113924D01*
G01*
X138398050Y-105377398D02*
G75*
G03*
X141229808Y-110394528I2113924J-2114576D01*
G01*
D11*
X163930000Y-106150000D02*
X163930000Y-106150000D01*
X163830000Y-106150000D02*
X163830000Y-106150000D01*
X163930000Y-106150000D02*
X163930000Y-106150000D01*
D12*
X165030000Y-116860000D02*
X165030000Y-106660000D01*
X144830000Y-116860000D02*
X165030000Y-116860000D01*
X144830000Y-106660000D02*
X144830000Y-116860000D01*
X165030000Y-106660000D02*
X144830000Y-106660000D01*
D11*
X164030000Y-106150000D02*
G75*
G02*
X163930000Y-106150000I-50000J0D01*
G01*
X164130000Y-106150000D02*
G75*
G02*
X163830000Y-106150000I-150000J0D01*
G01*
X164030000Y-106150000D02*
G75*
G02*
X163930000Y-106150000I-50000J0D01*
G01*
D10*
X151090000Y-127000000D02*
G75*
G03*
X151090000Y-127000000I-2500000J0D01*
G01*
X150135000Y-124440000D02*
X147045000Y-124440000D01*
X148589538Y-129990000D02*
G75*
G03*
X150134830Y-124440000I462J2990000D01*
G01*
X148590462Y-129990000D02*
G75*
G02*
X147045170Y-124440000I-462J2990000D01*
G01*
X155950312Y-120745352D02*
X153765352Y-122930312D01*
X159168026Y-123648026D02*
G75*
G03*
X159168026Y-123648026I-2500000J0D01*
G01*
X158782602Y-125761950D02*
G75*
G02*
X153765472Y-122930192I-2114576J2113924D01*
G01*
X158781950Y-125762602D02*
G75*
G03*
X155950192Y-120745472I-2113924J2114576D01*
G01*
X139660000Y-127670000D02*
X139990000Y-127670000D01*
X139660000Y-121250000D02*
X139660000Y-127670000D01*
X139990000Y-121250000D02*
X139660000Y-121250000D01*
X142280000Y-127670000D02*
X141950000Y-127670000D01*
X142280000Y-121250000D02*
X142280000Y-127670000D01*
X141950000Y-121250000D02*
X142280000Y-121250000D01*
D13*
X136870038Y-110090086D02*
X137577144Y-109382979D01*
X137745503Y-109551338D01*
X137812847Y-109686025D01*
X137812847Y-109820712D01*
X137779175Y-109921727D01*
X137678160Y-110090086D01*
X137577144Y-110191101D01*
X137408786Y-110292117D01*
X137307770Y-110325788D01*
X137173083Y-110325788D01*
X137038396Y-110258445D01*
X136870038Y-110090086D01*
X137947534Y-111167582D02*
X137543473Y-110763521D01*
X137745503Y-110965552D02*
X138452610Y-110258445D01*
X138284251Y-110292117D01*
X138149564Y-110292117D01*
X138048549Y-110258445D01*
D14*
X152732619Y-105984523D02*
X152732619Y-104714523D01*
X153458333Y-105984523D02*
X152914047Y-105258809D01*
X153458333Y-104714523D02*
X152732619Y-105440238D01*
X154667857Y-105984523D02*
X153942142Y-105984523D01*
X154305000Y-105984523D02*
X154305000Y-104714523D01*
X154184047Y-104895952D01*
X154063095Y-105016904D01*
X153942142Y-105077380D01*
D13*
X153002380Y-127738095D02*
X152002380Y-127738095D01*
X152002380Y-127500000D01*
X152050000Y-127357142D01*
X152145238Y-127261904D01*
X152240476Y-127214285D01*
X152430952Y-127166666D01*
X152573809Y-127166666D01*
X152764285Y-127214285D01*
X152859523Y-127261904D01*
X152954761Y-127357142D01*
X153002380Y-127500000D01*
X153002380Y-127738095D01*
X152097619Y-126785714D02*
X152050000Y-126738095D01*
X152002380Y-126642857D01*
X152002380Y-126404761D01*
X152050000Y-126309523D01*
X152097619Y-126261904D01*
X152192857Y-126214285D01*
X152288095Y-126214285D01*
X152430952Y-126261904D01*
X153002380Y-126833333D01*
X153002380Y-126214285D01*
X158626374Y-120645852D02*
X159333480Y-119938745D01*
X159501839Y-120107104D01*
X159569183Y-120241791D01*
X159569183Y-120376478D01*
X159535511Y-120477493D01*
X159434496Y-120645852D01*
X159333480Y-120746867D01*
X159165122Y-120847883D01*
X159064106Y-120881554D01*
X158929419Y-120881554D01*
X158794732Y-120814211D01*
X158626374Y-120645852D01*
X159973244Y-120578508D02*
X160410977Y-121016241D01*
X159905900Y-121049913D01*
X160006916Y-121150928D01*
X160040587Y-121251944D01*
X160040587Y-121319287D01*
X160006916Y-121420302D01*
X159838557Y-121588661D01*
X159737542Y-121622333D01*
X159670198Y-121622333D01*
X159569183Y-121588661D01*
X159367152Y-121386631D01*
X159333480Y-121285615D01*
X159333480Y-121218272D01*
X143732380Y-124626666D02*
X143256190Y-124960000D01*
X143732380Y-125198095D02*
X142732380Y-125198095D01*
X142732380Y-124817142D01*
X142780000Y-124721904D01*
X142827619Y-124674285D01*
X142922857Y-124626666D01*
X143065714Y-124626666D01*
X143160952Y-124674285D01*
X143208571Y-124721904D01*
X143256190Y-124817142D01*
X143256190Y-125198095D01*
X143732380Y-123674285D02*
X143732380Y-124245714D01*
X143732380Y-123960000D02*
X142732380Y-123960000D01*
X142875238Y-124055238D01*
X142970476Y-124150476D01*
X143018095Y-124245714D01*
X160956666Y-97242380D02*
X160956666Y-97956666D01*
X160909047Y-98099523D01*
X160813809Y-98194761D01*
X160670952Y-98242380D01*
X160575714Y-98242380D01*
X161956666Y-98242380D02*
X161385238Y-98242380D01*
X161670952Y-98242380D02*
X161670952Y-97242380D01*
X161575714Y-97385238D01*
X161480476Y-97480476D01*
X161385238Y-97528095D01*
X133016666Y-130262380D02*
X133016666Y-130976666D01*
X132969047Y-131119523D01*
X132873809Y-131214761D01*
X132730952Y-131262380D01*
X132635714Y-131262380D01*
X133445238Y-130357619D02*
X133492857Y-130310000D01*
X133588095Y-130262380D01*
X133826190Y-130262380D01*
X133921428Y-130310000D01*
X133969047Y-130357619D01*
X134016666Y-130452857D01*
X134016666Y-130548095D01*
X133969047Y-130690952D01*
X133397619Y-131262380D01*
X134016666Y-131262380D01*
%LPC*%
D15*
X139700000Y-115570000D03*
D16*
X139613949Y-106593949D03*
D12*
G36*
X142682792Y-108390000D02*
G01*
X141410000Y-109662792D01*
X140137208Y-108390000D01*
X141410000Y-107117208D01*
X142682792Y-108390000D01*
G37*
D17*
X163830000Y-107950000D03*
X161290000Y-107950000D03*
X156210000Y-107950000D03*
X151130000Y-107950000D03*
X146050000Y-107950000D03*
X146050000Y-115570000D03*
X151130000Y-115570000D03*
X156210000Y-115570000D03*
X161290000Y-115570000D03*
X163830000Y-115570000D03*
D18*
X148590000Y-125730000D03*
D16*
X148590000Y-128270000D03*
X157566051Y-124546051D03*
D12*
G36*
X154497208Y-122750000D02*
G01*
X155770000Y-121477208D01*
X157042792Y-122750000D01*
X155770000Y-124022792D01*
X154497208Y-122750000D01*
G37*
D19*
X140970000Y-128270000D03*
D20*
X140970000Y-120650000D03*
D21*
X158750000Y-100330000D03*
D22*
X158750000Y-97790000D03*
X133350000Y-125730000D03*
D21*
X130810000Y-125730000D03*
X130810000Y-128270000D03*
D22*
X133350000Y-128270000D03*
D15*
X163830000Y-130810000D03*
M02*
