G04 #@! TF.GenerationSoftware,KiCad,Pcbnew,5.1.10*
G04 #@! TF.CreationDate,2021-05-04T21:09:51+02:00*
G04 #@! TF.ProjectId,Weichensimulator-links,57656963-6865-46e7-9369-6d756c61746f,rev?*
G04 #@! TF.SameCoordinates,Original*
G04 #@! TF.FileFunction,Copper,L2,Bot*
G04 #@! TF.FilePolarity,Positive*
%FSLAX46Y46*%
G04 Gerber Fmt 4.6, Leading zero omitted, Abs format (unit mm)*
G04 Created by KiCad (PCBNEW 5.1.10) date 2021-05-04 21:09:51*
%MOMM*%
%LPD*%
G01*
G04 APERTURE LIST*
G04 #@! TA.AperFunction,ComponentPad*
%ADD10C,1.500000*%
G04 #@! TD*
G04 #@! TA.AperFunction,ComponentPad*
%ADD11C,1.800000*%
G04 #@! TD*
G04 #@! TA.AperFunction,ComponentPad*
%ADD12R,1.800000X1.800000*%
G04 #@! TD*
G04 #@! TA.AperFunction,ComponentPad*
%ADD13C,0.100000*%
G04 #@! TD*
G04 #@! TA.AperFunction,ComponentPad*
%ADD14O,1.600000X1.600000*%
G04 #@! TD*
G04 #@! TA.AperFunction,ComponentPad*
%ADD15C,1.600000*%
G04 #@! TD*
G04 #@! TA.AperFunction,ComponentPad*
%ADD16O,1.700000X1.700000*%
G04 #@! TD*
G04 #@! TA.AperFunction,ComponentPad*
%ADD17R,1.700000X1.700000*%
G04 #@! TD*
G04 #@! TA.AperFunction,Conductor*
%ADD18C,0.500000*%
G04 #@! TD*
G04 APERTURE END LIST*
D10*
X125730000Y-121920000D03*
X128270000Y-121920000D03*
X133350000Y-121920000D03*
X138430000Y-121920000D03*
X143510000Y-121920000D03*
X143510000Y-114300000D03*
X138430000Y-114300000D03*
X133350000Y-114300000D03*
X128270000Y-114300000D03*
X125730000Y-114300000D03*
D11*
X121920000Y-106680000D03*
D12*
X124460000Y-106680000D03*
X144780000Y-106680000D03*
D11*
X147320000Y-106680000D03*
X143596051Y-97703949D03*
G04 #@! TA.AperFunction,ComponentPad*
D13*
G36*
X141800000Y-100772792D02*
G01*
X140527208Y-99500000D01*
X141800000Y-98227208D01*
X143072792Y-99500000D01*
X141800000Y-100772792D01*
G37*
G04 #@! TD.AperFunction*
D14*
X135890000Y-99060000D03*
D15*
X128270000Y-99060000D03*
D16*
X116840000Y-121920000D03*
D17*
X119380000Y-121920000D03*
X139700000Y-88900000D03*
D16*
X139700000Y-91440000D03*
X142240000Y-91440000D03*
D17*
X142240000Y-88900000D03*
D18*
X128270000Y-106680000D02*
X124460000Y-106680000D01*
X128270000Y-99060000D02*
X128270000Y-106680000D01*
X144780000Y-106680000D02*
X143510000Y-107950000D01*
X143510000Y-107950000D02*
X143510000Y-114300000D01*
X141800000Y-99500000D02*
X138430000Y-102870000D01*
X138430000Y-102870000D02*
X138430000Y-114300000D01*
X116840000Y-121920000D02*
X116840000Y-124460000D01*
X116840000Y-124460000D02*
X125730000Y-124460000D01*
X125730000Y-124460000D02*
X125730000Y-121920000D01*
X119380000Y-121920000D02*
X119380000Y-119380000D01*
X119380000Y-119380000D02*
X128270000Y-119380000D01*
X128270000Y-119380000D02*
X128270000Y-121920000D01*
X139700000Y-88900000D02*
X137160000Y-88900000D01*
X139700000Y-88900000D02*
X142240000Y-88900000D01*
X121920000Y-106680000D02*
X121920000Y-110490000D01*
X133350000Y-88900000D02*
X139700000Y-88900000D01*
X133350000Y-110490000D02*
X133350000Y-88900000D01*
X129540000Y-110490000D02*
X133350000Y-110490000D01*
X125730000Y-114300000D02*
X128270000Y-114300000D01*
X128270000Y-114300000D02*
X128270000Y-110490000D01*
X128270000Y-110490000D02*
X129540000Y-110490000D01*
X121920000Y-110490000D02*
X128270000Y-110490000D01*
X139700000Y-91440000D02*
X142240000Y-91440000D01*
X133350000Y-114300000D02*
X133350000Y-116840000D01*
X151130000Y-116840000D02*
X151130000Y-91440000D01*
X151130000Y-91440000D02*
X142240000Y-91440000D01*
X151130000Y-116840000D02*
X133350000Y-116840000D01*
X147320000Y-106680000D02*
X147320000Y-99060000D01*
X143596051Y-97703949D02*
X142412102Y-96520000D01*
X142412102Y-96520000D02*
X138430000Y-96520000D01*
X138430000Y-96520000D02*
X135890000Y-99060000D01*
X143596051Y-97703949D02*
X145963949Y-97703949D01*
X145963949Y-97703949D02*
X147320000Y-99060000D01*
M02*
