%FSLAX45Y45*%
G04 Gerber Fmt 4.5, Leading zero omitted, Abs format (unit mm)*
G04 Created by KiCad (PCBNEW 5.1.10) date 2021-05-04 21:35:37*
%MOMM*%
%LPD*%
G01*
G04 APERTURE LIST*
%TA.AperFunction,Profile*%
%ADD10C,0.050000*%
%TD*%
%ADD11C,0.200000*%
%ADD12C,0.300000*%
G04 APERTURE END LIST*
D10*
X13208000Y-9017000D02*
G75*
G02*
X13335000Y-8890000I127000J0D01*
G01*
X13335000Y-12700000D02*
G75*
G02*
X13208000Y-12573000I0J127000D01*
G01*
X17018000Y-12573000D02*
G75*
G02*
X16891000Y-12700000I-127000J0D01*
G01*
X16891000Y-8890000D02*
G75*
G02*
X17018000Y-9017000I0J-127000D01*
G01*
X13335000Y-8890000D02*
X16891000Y-8890000D01*
X13208000Y-12573000D02*
X13208000Y-9017000D01*
X16891000Y-12700000D02*
X13335000Y-12700000D01*
X17018000Y-9017000D02*
X17018000Y-12573000D01*
D11*
X15835000Y-11517000D02*
X15915000Y-11597000D01*
X15915000Y-11517000D02*
X15835000Y-11597000D01*
X15835000Y-12279000D02*
X15915000Y-12359000D01*
X15915000Y-12279000D02*
X15835000Y-12359000D01*
X14260395Y-11692605D02*
G75*
G03*
X14260395Y-11692605I-45000J0D01*
G01*
X14440000Y-11513000D02*
G75*
G03*
X14440000Y-11513000I-45000J0D01*
G01*
X15158000Y-11811000D02*
G75*
G03*
X15158000Y-11811000I-45000J0D01*
G01*
X15158000Y-12065000D02*
G75*
G03*
X15158000Y-12065000I-45000J0D01*
G01*
X15876000Y-10077000D02*
G75*
G03*
X15876000Y-10077000I-45000J0D01*
G01*
X16055605Y-9897395D02*
G75*
G03*
X16055605Y-9897395I-45000J0D01*
G01*
X13589000Y-9729000D02*
X13589000Y-9829000D01*
X13539000Y-9779000D02*
X13639000Y-9779000D01*
X13589000Y-10491000D02*
X13589000Y-10591000D01*
X13539000Y-10541000D02*
X13639000Y-10541000D01*
X13716000Y-8967000D02*
X13716000Y-9067000D01*
X13666000Y-9017000D02*
X13766000Y-9017000D01*
X13716000Y-9221000D02*
X13716000Y-9321000D01*
X13666000Y-9271000D02*
X13766000Y-9271000D01*
X14097000Y-9729000D02*
X14097000Y-9829000D01*
X14047000Y-9779000D02*
X14147000Y-9779000D01*
X14097000Y-10491000D02*
X14097000Y-10591000D01*
X14047000Y-10541000D02*
X14147000Y-10541000D01*
X14605000Y-9729000D02*
X14605000Y-9829000D01*
X14555000Y-9779000D02*
X14655000Y-9779000D01*
X14605000Y-10491000D02*
X14605000Y-10591000D01*
X14555000Y-10541000D02*
X14655000Y-10541000D01*
X15113000Y-9729000D02*
X15113000Y-9829000D01*
X15063000Y-9779000D02*
X15163000Y-9779000D01*
X15113000Y-10491000D02*
X15113000Y-10591000D01*
X15063000Y-10541000D02*
X15163000Y-10541000D01*
X15367000Y-9729000D02*
X15367000Y-9829000D01*
X15317000Y-9779000D02*
X15417000Y-9779000D01*
X15367000Y-10491000D02*
X15367000Y-10591000D01*
X15317000Y-10541000D02*
X15417000Y-10541000D01*
X16510000Y-11253000D02*
X16510000Y-11353000D01*
X16460000Y-11303000D02*
X16560000Y-11303000D01*
X16510000Y-11507000D02*
X16510000Y-11607000D01*
X16460000Y-11557000D02*
X16560000Y-11557000D01*
X16764000Y-11253000D02*
X16764000Y-11353000D01*
X16714000Y-11303000D02*
X16814000Y-11303000D01*
X16764000Y-11507000D02*
X16764000Y-11607000D01*
X16714000Y-11557000D02*
X16814000Y-11557000D01*
D12*
X13491928Y-13168214D02*
X13491928Y-12868214D01*
X13563357Y-12868214D01*
X13606214Y-12882500D01*
X13634786Y-12911071D01*
X13649071Y-12939643D01*
X13663357Y-12996786D01*
X13663357Y-13039643D01*
X13649071Y-13096786D01*
X13634786Y-13125357D01*
X13606214Y-13153929D01*
X13563357Y-13168214D01*
X13491928Y-13168214D01*
X13791928Y-13168214D02*
X13791928Y-12968214D01*
X13791928Y-13025357D02*
X13806214Y-12996786D01*
X13820500Y-12982500D01*
X13849071Y-12968214D01*
X13877643Y-12968214D01*
X13977643Y-13168214D02*
X13977643Y-12968214D01*
X13977643Y-12868214D02*
X13963357Y-12882500D01*
X13977643Y-12896786D01*
X13991928Y-12882500D01*
X13977643Y-12868214D01*
X13977643Y-12896786D01*
X14163357Y-13168214D02*
X14134786Y-13153929D01*
X14120500Y-13125357D01*
X14120500Y-12868214D01*
X14320500Y-13168214D02*
X14291928Y-13153929D01*
X14277643Y-13125357D01*
X14277643Y-12868214D01*
X14663357Y-13168214D02*
X14663357Y-12868214D01*
X14763357Y-13082500D01*
X14863357Y-12868214D01*
X14863357Y-13168214D01*
X15134786Y-13168214D02*
X15134786Y-13011071D01*
X15120500Y-12982500D01*
X15091928Y-12968214D01*
X15034786Y-12968214D01*
X15006214Y-12982500D01*
X15134786Y-13153929D02*
X15106214Y-13168214D01*
X15034786Y-13168214D01*
X15006214Y-13153929D01*
X14991928Y-13125357D01*
X14991928Y-13096786D01*
X15006214Y-13068214D01*
X15034786Y-13053929D01*
X15106214Y-13053929D01*
X15134786Y-13039643D01*
X15277643Y-12968214D02*
X15277643Y-13268214D01*
X15277643Y-12982500D02*
X15306214Y-12968214D01*
X15363357Y-12968214D01*
X15391928Y-12982500D01*
X15406214Y-12996786D01*
X15420500Y-13025357D01*
X15420500Y-13111071D01*
X15406214Y-13139643D01*
X15391928Y-13153929D01*
X15363357Y-13168214D01*
X15306214Y-13168214D01*
X15277643Y-13153929D01*
X15549071Y-13139643D02*
X15563357Y-13153929D01*
X15549071Y-13168214D01*
X15534786Y-13153929D01*
X15549071Y-13139643D01*
X15549071Y-13168214D01*
X15549071Y-12982500D02*
X15563357Y-12996786D01*
X15549071Y-13011071D01*
X15534786Y-12996786D01*
X15549071Y-12982500D01*
X15549071Y-13011071D01*
X13125500Y-13622500D02*
X13205500Y-13702500D01*
X13205500Y-13622500D02*
X13125500Y-13702500D01*
X13549071Y-13498214D02*
X13577643Y-13498214D01*
X13606214Y-13512500D01*
X13620500Y-13526786D01*
X13634786Y-13555357D01*
X13649071Y-13612500D01*
X13649071Y-13683929D01*
X13634786Y-13741071D01*
X13620500Y-13769643D01*
X13606214Y-13783929D01*
X13577643Y-13798214D01*
X13549071Y-13798214D01*
X13520500Y-13783929D01*
X13506214Y-13769643D01*
X13491928Y-13741071D01*
X13477643Y-13683929D01*
X13477643Y-13612500D01*
X13491928Y-13555357D01*
X13506214Y-13526786D01*
X13520500Y-13512500D01*
X13549071Y-13498214D01*
X13777643Y-13769643D02*
X13791928Y-13783929D01*
X13777643Y-13798214D01*
X13763357Y-13783929D01*
X13777643Y-13769643D01*
X13777643Y-13798214D01*
X13963357Y-13626786D02*
X13934786Y-13612500D01*
X13920500Y-13598214D01*
X13906214Y-13569643D01*
X13906214Y-13555357D01*
X13920500Y-13526786D01*
X13934786Y-13512500D01*
X13963357Y-13498214D01*
X14020500Y-13498214D01*
X14049071Y-13512500D01*
X14063357Y-13526786D01*
X14077643Y-13555357D01*
X14077643Y-13569643D01*
X14063357Y-13598214D01*
X14049071Y-13612500D01*
X14020500Y-13626786D01*
X13963357Y-13626786D01*
X13934786Y-13641071D01*
X13920500Y-13655357D01*
X13906214Y-13683929D01*
X13906214Y-13741071D01*
X13920500Y-13769643D01*
X13934786Y-13783929D01*
X13963357Y-13798214D01*
X14020500Y-13798214D01*
X14049071Y-13783929D01*
X14063357Y-13769643D01*
X14077643Y-13741071D01*
X14077643Y-13683929D01*
X14063357Y-13655357D01*
X14049071Y-13641071D01*
X14020500Y-13626786D01*
X14263357Y-13498214D02*
X14291928Y-13498214D01*
X14320500Y-13512500D01*
X14334786Y-13526786D01*
X14349071Y-13555357D01*
X14363357Y-13612500D01*
X14363357Y-13683929D01*
X14349071Y-13741071D01*
X14334786Y-13769643D01*
X14320500Y-13783929D01*
X14291928Y-13798214D01*
X14263357Y-13798214D01*
X14234786Y-13783929D01*
X14220500Y-13769643D01*
X14206214Y-13741071D01*
X14191928Y-13683929D01*
X14191928Y-13612500D01*
X14206214Y-13555357D01*
X14220500Y-13526786D01*
X14234786Y-13512500D01*
X14263357Y-13498214D01*
X14549071Y-13498214D02*
X14577643Y-13498214D01*
X14606214Y-13512500D01*
X14620500Y-13526786D01*
X14634786Y-13555357D01*
X14649071Y-13612500D01*
X14649071Y-13683929D01*
X14634786Y-13741071D01*
X14620500Y-13769643D01*
X14606214Y-13783929D01*
X14577643Y-13798214D01*
X14549071Y-13798214D01*
X14520500Y-13783929D01*
X14506214Y-13769643D01*
X14491928Y-13741071D01*
X14477643Y-13683929D01*
X14477643Y-13612500D01*
X14491928Y-13555357D01*
X14506214Y-13526786D01*
X14520500Y-13512500D01*
X14549071Y-13498214D01*
X14777643Y-13798214D02*
X14777643Y-13598214D01*
X14777643Y-13626786D02*
X14791928Y-13612500D01*
X14820500Y-13598214D01*
X14863357Y-13598214D01*
X14891928Y-13612500D01*
X14906214Y-13641071D01*
X14906214Y-13798214D01*
X14906214Y-13641071D02*
X14920500Y-13612500D01*
X14949071Y-13598214D01*
X14991928Y-13598214D01*
X15020500Y-13612500D01*
X15034786Y-13641071D01*
X15034786Y-13798214D01*
X15177643Y-13798214D02*
X15177643Y-13598214D01*
X15177643Y-13626786D02*
X15191928Y-13612500D01*
X15220500Y-13598214D01*
X15263357Y-13598214D01*
X15291928Y-13612500D01*
X15306214Y-13641071D01*
X15306214Y-13798214D01*
X15306214Y-13641071D02*
X15320500Y-13612500D01*
X15349071Y-13598214D01*
X15391928Y-13598214D01*
X15420500Y-13612500D01*
X15434786Y-13641071D01*
X15434786Y-13798214D01*
X16020500Y-13483929D02*
X15763357Y-13869643D01*
X16406214Y-13498214D02*
X16434786Y-13498214D01*
X16463357Y-13512500D01*
X16477643Y-13526786D01*
X16491928Y-13555357D01*
X16506214Y-13612500D01*
X16506214Y-13683929D01*
X16491928Y-13741071D01*
X16477643Y-13769643D01*
X16463357Y-13783929D01*
X16434786Y-13798214D01*
X16406214Y-13798214D01*
X16377643Y-13783929D01*
X16363357Y-13769643D01*
X16349071Y-13741071D01*
X16334786Y-13683929D01*
X16334786Y-13612500D01*
X16349071Y-13555357D01*
X16363357Y-13526786D01*
X16377643Y-13512500D01*
X16406214Y-13498214D01*
X16634786Y-13769643D02*
X16649071Y-13783929D01*
X16634786Y-13798214D01*
X16620500Y-13783929D01*
X16634786Y-13769643D01*
X16634786Y-13798214D01*
X16834786Y-13498214D02*
X16863357Y-13498214D01*
X16891928Y-13512500D01*
X16906214Y-13526786D01*
X16920500Y-13555357D01*
X16934786Y-13612500D01*
X16934786Y-13683929D01*
X16920500Y-13741071D01*
X16906214Y-13769643D01*
X16891928Y-13783929D01*
X16863357Y-13798214D01*
X16834786Y-13798214D01*
X16806214Y-13783929D01*
X16791928Y-13769643D01*
X16777643Y-13741071D01*
X16763357Y-13683929D01*
X16763357Y-13612500D01*
X16777643Y-13555357D01*
X16791928Y-13526786D01*
X16806214Y-13512500D01*
X16834786Y-13498214D01*
X17034786Y-13498214D02*
X17220500Y-13498214D01*
X17120500Y-13612500D01*
X17163357Y-13612500D01*
X17191928Y-13626786D01*
X17206214Y-13641071D01*
X17220500Y-13669643D01*
X17220500Y-13741071D01*
X17206214Y-13769643D01*
X17191928Y-13783929D01*
X17163357Y-13798214D01*
X17077643Y-13798214D01*
X17049071Y-13783929D01*
X17034786Y-13769643D01*
X17506214Y-13798214D02*
X17334786Y-13798214D01*
X17420500Y-13798214D02*
X17420500Y-13498214D01*
X17391928Y-13541071D01*
X17363357Y-13569643D01*
X17334786Y-13583929D01*
X17777643Y-13498214D02*
X17634786Y-13498214D01*
X17620500Y-13641071D01*
X17634786Y-13626786D01*
X17663357Y-13612500D01*
X17734786Y-13612500D01*
X17763357Y-13626786D01*
X17777643Y-13641071D01*
X17791928Y-13669643D01*
X17791928Y-13741071D01*
X17777643Y-13769643D01*
X17763357Y-13783929D01*
X17734786Y-13798214D01*
X17663357Y-13798214D01*
X17634786Y-13783929D01*
X17620500Y-13769643D01*
X17906214Y-13498214D02*
X17906214Y-13555357D01*
X18020500Y-13498214D02*
X18020500Y-13555357D01*
X18463357Y-13912500D02*
X18449071Y-13898214D01*
X18420500Y-13855357D01*
X18406214Y-13826786D01*
X18391928Y-13783929D01*
X18377643Y-13712500D01*
X18377643Y-13655357D01*
X18391928Y-13583929D01*
X18406214Y-13541071D01*
X18420500Y-13512500D01*
X18449071Y-13469643D01*
X18463357Y-13455357D01*
X18563357Y-13526786D02*
X18577643Y-13512500D01*
X18606214Y-13498214D01*
X18677643Y-13498214D01*
X18706214Y-13512500D01*
X18720500Y-13526786D01*
X18734786Y-13555357D01*
X18734786Y-13583929D01*
X18720500Y-13626786D01*
X18549071Y-13798214D01*
X18734786Y-13798214D01*
X19091928Y-13798214D02*
X19091928Y-13498214D01*
X19220500Y-13798214D02*
X19220500Y-13641071D01*
X19206214Y-13612500D01*
X19177643Y-13598214D01*
X19134786Y-13598214D01*
X19106214Y-13612500D01*
X19091928Y-13626786D01*
X19406214Y-13798214D02*
X19377643Y-13783929D01*
X19363357Y-13769643D01*
X19349071Y-13741071D01*
X19349071Y-13655357D01*
X19363357Y-13626786D01*
X19377643Y-13612500D01*
X19406214Y-13598214D01*
X19449071Y-13598214D01*
X19477643Y-13612500D01*
X19491928Y-13626786D01*
X19506214Y-13655357D01*
X19506214Y-13741071D01*
X19491928Y-13769643D01*
X19477643Y-13783929D01*
X19449071Y-13798214D01*
X19406214Y-13798214D01*
X19677643Y-13798214D02*
X19649071Y-13783929D01*
X19634786Y-13755357D01*
X19634786Y-13498214D01*
X19906214Y-13783929D02*
X19877643Y-13798214D01*
X19820500Y-13798214D01*
X19791928Y-13783929D01*
X19777643Y-13755357D01*
X19777643Y-13641071D01*
X19791928Y-13612500D01*
X19820500Y-13598214D01*
X19877643Y-13598214D01*
X19906214Y-13612500D01*
X19920500Y-13641071D01*
X19920500Y-13669643D01*
X19777643Y-13698214D01*
X20034786Y-13783929D02*
X20063357Y-13798214D01*
X20120500Y-13798214D01*
X20149071Y-13783929D01*
X20163357Y-13755357D01*
X20163357Y-13741071D01*
X20149071Y-13712500D01*
X20120500Y-13698214D01*
X20077643Y-13698214D01*
X20049071Y-13683929D01*
X20034786Y-13655357D01*
X20034786Y-13641071D01*
X20049071Y-13612500D01*
X20077643Y-13598214D01*
X20120500Y-13598214D01*
X20149071Y-13612500D01*
X20263357Y-13912500D02*
X20277643Y-13898214D01*
X20306214Y-13855357D01*
X20320500Y-13826786D01*
X20334786Y-13783929D01*
X20349071Y-13712500D01*
X20349071Y-13655357D01*
X20334786Y-13583929D01*
X20320500Y-13541071D01*
X20306214Y-13512500D01*
X20277643Y-13469643D01*
X20263357Y-13455357D01*
X13205500Y-14058500D02*
G75*
G03*
X13205500Y-14058500I-45000J0D01*
G01*
X13549071Y-13894214D02*
X13577643Y-13894214D01*
X13606214Y-13908500D01*
X13620500Y-13922786D01*
X13634786Y-13951357D01*
X13649071Y-14008500D01*
X13649071Y-14079929D01*
X13634786Y-14137071D01*
X13620500Y-14165643D01*
X13606214Y-14179929D01*
X13577643Y-14194214D01*
X13549071Y-14194214D01*
X13520500Y-14179929D01*
X13506214Y-14165643D01*
X13491928Y-14137071D01*
X13477643Y-14079929D01*
X13477643Y-14008500D01*
X13491928Y-13951357D01*
X13506214Y-13922786D01*
X13520500Y-13908500D01*
X13549071Y-13894214D01*
X13777643Y-14165643D02*
X13791928Y-14179929D01*
X13777643Y-14194214D01*
X13763357Y-14179929D01*
X13777643Y-14165643D01*
X13777643Y-14194214D01*
X13934786Y-14194214D02*
X13991928Y-14194214D01*
X14020500Y-14179929D01*
X14034786Y-14165643D01*
X14063357Y-14122786D01*
X14077643Y-14065643D01*
X14077643Y-13951357D01*
X14063357Y-13922786D01*
X14049071Y-13908500D01*
X14020500Y-13894214D01*
X13963357Y-13894214D01*
X13934786Y-13908500D01*
X13920500Y-13922786D01*
X13906214Y-13951357D01*
X13906214Y-14022786D01*
X13920500Y-14051357D01*
X13934786Y-14065643D01*
X13963357Y-14079929D01*
X14020500Y-14079929D01*
X14049071Y-14065643D01*
X14063357Y-14051357D01*
X14077643Y-14022786D01*
X14263357Y-13894214D02*
X14291928Y-13894214D01*
X14320500Y-13908500D01*
X14334786Y-13922786D01*
X14349071Y-13951357D01*
X14363357Y-14008500D01*
X14363357Y-14079929D01*
X14349071Y-14137071D01*
X14334786Y-14165643D01*
X14320500Y-14179929D01*
X14291928Y-14194214D01*
X14263357Y-14194214D01*
X14234786Y-14179929D01*
X14220500Y-14165643D01*
X14206214Y-14137071D01*
X14191928Y-14079929D01*
X14191928Y-14008500D01*
X14206214Y-13951357D01*
X14220500Y-13922786D01*
X14234786Y-13908500D01*
X14263357Y-13894214D01*
X14549071Y-13894214D02*
X14577643Y-13894214D01*
X14606214Y-13908500D01*
X14620500Y-13922786D01*
X14634786Y-13951357D01*
X14649071Y-14008500D01*
X14649071Y-14079929D01*
X14634786Y-14137071D01*
X14620500Y-14165643D01*
X14606214Y-14179929D01*
X14577643Y-14194214D01*
X14549071Y-14194214D01*
X14520500Y-14179929D01*
X14506214Y-14165643D01*
X14491928Y-14137071D01*
X14477643Y-14079929D01*
X14477643Y-14008500D01*
X14491928Y-13951357D01*
X14506214Y-13922786D01*
X14520500Y-13908500D01*
X14549071Y-13894214D01*
X14777643Y-14194214D02*
X14777643Y-13994214D01*
X14777643Y-14022786D02*
X14791928Y-14008500D01*
X14820500Y-13994214D01*
X14863357Y-13994214D01*
X14891928Y-14008500D01*
X14906214Y-14037071D01*
X14906214Y-14194214D01*
X14906214Y-14037071D02*
X14920500Y-14008500D01*
X14949071Y-13994214D01*
X14991928Y-13994214D01*
X15020500Y-14008500D01*
X15034786Y-14037071D01*
X15034786Y-14194214D01*
X15177643Y-14194214D02*
X15177643Y-13994214D01*
X15177643Y-14022786D02*
X15191928Y-14008500D01*
X15220500Y-13994214D01*
X15263357Y-13994214D01*
X15291928Y-14008500D01*
X15306214Y-14037071D01*
X15306214Y-14194214D01*
X15306214Y-14037071D02*
X15320500Y-14008500D01*
X15349071Y-13994214D01*
X15391928Y-13994214D01*
X15420500Y-14008500D01*
X15434786Y-14037071D01*
X15434786Y-14194214D01*
X16020500Y-13879929D02*
X15763357Y-14265643D01*
X16406214Y-13894214D02*
X16434786Y-13894214D01*
X16463357Y-13908500D01*
X16477643Y-13922786D01*
X16491928Y-13951357D01*
X16506214Y-14008500D01*
X16506214Y-14079929D01*
X16491928Y-14137071D01*
X16477643Y-14165643D01*
X16463357Y-14179929D01*
X16434786Y-14194214D01*
X16406214Y-14194214D01*
X16377643Y-14179929D01*
X16363357Y-14165643D01*
X16349071Y-14137071D01*
X16334786Y-14079929D01*
X16334786Y-14008500D01*
X16349071Y-13951357D01*
X16363357Y-13922786D01*
X16377643Y-13908500D01*
X16406214Y-13894214D01*
X16634786Y-14165643D02*
X16649071Y-14179929D01*
X16634786Y-14194214D01*
X16620500Y-14179929D01*
X16634786Y-14165643D01*
X16634786Y-14194214D01*
X16834786Y-13894214D02*
X16863357Y-13894214D01*
X16891928Y-13908500D01*
X16906214Y-13922786D01*
X16920500Y-13951357D01*
X16934786Y-14008500D01*
X16934786Y-14079929D01*
X16920500Y-14137071D01*
X16906214Y-14165643D01*
X16891928Y-14179929D01*
X16863357Y-14194214D01*
X16834786Y-14194214D01*
X16806214Y-14179929D01*
X16791928Y-14165643D01*
X16777643Y-14137071D01*
X16763357Y-14079929D01*
X16763357Y-14008500D01*
X16777643Y-13951357D01*
X16791928Y-13922786D01*
X16806214Y-13908500D01*
X16834786Y-13894214D01*
X17034786Y-13894214D02*
X17220500Y-13894214D01*
X17120500Y-14008500D01*
X17163357Y-14008500D01*
X17191928Y-14022786D01*
X17206214Y-14037071D01*
X17220500Y-14065643D01*
X17220500Y-14137071D01*
X17206214Y-14165643D01*
X17191928Y-14179929D01*
X17163357Y-14194214D01*
X17077643Y-14194214D01*
X17049071Y-14179929D01*
X17034786Y-14165643D01*
X17491928Y-13894214D02*
X17349071Y-13894214D01*
X17334786Y-14037071D01*
X17349071Y-14022786D01*
X17377643Y-14008500D01*
X17449071Y-14008500D01*
X17477643Y-14022786D01*
X17491928Y-14037071D01*
X17506214Y-14065643D01*
X17506214Y-14137071D01*
X17491928Y-14165643D01*
X17477643Y-14179929D01*
X17449071Y-14194214D01*
X17377643Y-14194214D01*
X17349071Y-14179929D01*
X17334786Y-14165643D01*
X17763357Y-13994214D02*
X17763357Y-14194214D01*
X17691928Y-13879929D02*
X17620500Y-14094214D01*
X17806214Y-14094214D01*
X17906214Y-13894214D02*
X17906214Y-13951357D01*
X18020500Y-13894214D02*
X18020500Y-13951357D01*
X18463357Y-14308500D02*
X18449071Y-14294214D01*
X18420500Y-14251357D01*
X18406214Y-14222786D01*
X18391928Y-14179929D01*
X18377643Y-14108500D01*
X18377643Y-14051357D01*
X18391928Y-13979929D01*
X18406214Y-13937071D01*
X18420500Y-13908500D01*
X18449071Y-13865643D01*
X18463357Y-13851357D01*
X18706214Y-13894214D02*
X18649071Y-13894214D01*
X18620500Y-13908500D01*
X18606214Y-13922786D01*
X18577643Y-13965643D01*
X18563357Y-14022786D01*
X18563357Y-14137071D01*
X18577643Y-14165643D01*
X18591928Y-14179929D01*
X18620500Y-14194214D01*
X18677643Y-14194214D01*
X18706214Y-14179929D01*
X18720500Y-14165643D01*
X18734786Y-14137071D01*
X18734786Y-14065643D01*
X18720500Y-14037071D01*
X18706214Y-14022786D01*
X18677643Y-14008500D01*
X18620500Y-14008500D01*
X18591928Y-14022786D01*
X18577643Y-14037071D01*
X18563357Y-14065643D01*
X19091928Y-14194214D02*
X19091928Y-13894214D01*
X19220500Y-14194214D02*
X19220500Y-14037071D01*
X19206214Y-14008500D01*
X19177643Y-13994214D01*
X19134786Y-13994214D01*
X19106214Y-14008500D01*
X19091928Y-14022786D01*
X19406214Y-14194214D02*
X19377643Y-14179929D01*
X19363357Y-14165643D01*
X19349071Y-14137071D01*
X19349071Y-14051357D01*
X19363357Y-14022786D01*
X19377643Y-14008500D01*
X19406214Y-13994214D01*
X19449071Y-13994214D01*
X19477643Y-14008500D01*
X19491928Y-14022786D01*
X19506214Y-14051357D01*
X19506214Y-14137071D01*
X19491928Y-14165643D01*
X19477643Y-14179929D01*
X19449071Y-14194214D01*
X19406214Y-14194214D01*
X19677643Y-14194214D02*
X19649071Y-14179929D01*
X19634786Y-14151357D01*
X19634786Y-13894214D01*
X19906214Y-14179929D02*
X19877643Y-14194214D01*
X19820500Y-14194214D01*
X19791928Y-14179929D01*
X19777643Y-14151357D01*
X19777643Y-14037071D01*
X19791928Y-14008500D01*
X19820500Y-13994214D01*
X19877643Y-13994214D01*
X19906214Y-14008500D01*
X19920500Y-14037071D01*
X19920500Y-14065643D01*
X19777643Y-14094214D01*
X20034786Y-14179929D02*
X20063357Y-14194214D01*
X20120500Y-14194214D01*
X20149071Y-14179929D01*
X20163357Y-14151357D01*
X20163357Y-14137071D01*
X20149071Y-14108500D01*
X20120500Y-14094214D01*
X20077643Y-14094214D01*
X20049071Y-14079929D01*
X20034786Y-14051357D01*
X20034786Y-14037071D01*
X20049071Y-14008500D01*
X20077643Y-13994214D01*
X20120500Y-13994214D01*
X20149071Y-14008500D01*
X20263357Y-14308500D02*
X20277643Y-14294214D01*
X20306214Y-14251357D01*
X20320500Y-14222786D01*
X20334786Y-14179929D01*
X20349071Y-14108500D01*
X20349071Y-14051357D01*
X20334786Y-13979929D01*
X20320500Y-13937071D01*
X20306214Y-13908500D01*
X20277643Y-13865643D01*
X20263357Y-13851357D01*
X13155500Y-14404500D02*
X13155500Y-14504500D01*
X13105500Y-14454500D02*
X13205500Y-14454500D01*
X13649071Y-14590214D02*
X13477643Y-14590214D01*
X13563357Y-14590214D02*
X13563357Y-14290214D01*
X13534786Y-14333071D01*
X13506214Y-14361643D01*
X13477643Y-14375929D01*
X13777643Y-14561643D02*
X13791928Y-14575929D01*
X13777643Y-14590214D01*
X13763357Y-14575929D01*
X13777643Y-14561643D01*
X13777643Y-14590214D01*
X13977643Y-14290214D02*
X14006214Y-14290214D01*
X14034786Y-14304500D01*
X14049071Y-14318786D01*
X14063357Y-14347357D01*
X14077643Y-14404500D01*
X14077643Y-14475929D01*
X14063357Y-14533071D01*
X14049071Y-14561643D01*
X14034786Y-14575929D01*
X14006214Y-14590214D01*
X13977643Y-14590214D01*
X13949071Y-14575929D01*
X13934786Y-14561643D01*
X13920500Y-14533071D01*
X13906214Y-14475929D01*
X13906214Y-14404500D01*
X13920500Y-14347357D01*
X13934786Y-14318786D01*
X13949071Y-14304500D01*
X13977643Y-14290214D01*
X14263357Y-14290214D02*
X14291928Y-14290214D01*
X14320500Y-14304500D01*
X14334786Y-14318786D01*
X14349071Y-14347357D01*
X14363357Y-14404500D01*
X14363357Y-14475929D01*
X14349071Y-14533071D01*
X14334786Y-14561643D01*
X14320500Y-14575929D01*
X14291928Y-14590214D01*
X14263357Y-14590214D01*
X14234786Y-14575929D01*
X14220500Y-14561643D01*
X14206214Y-14533071D01*
X14191928Y-14475929D01*
X14191928Y-14404500D01*
X14206214Y-14347357D01*
X14220500Y-14318786D01*
X14234786Y-14304500D01*
X14263357Y-14290214D01*
X14549071Y-14290214D02*
X14577643Y-14290214D01*
X14606214Y-14304500D01*
X14620500Y-14318786D01*
X14634786Y-14347357D01*
X14649071Y-14404500D01*
X14649071Y-14475929D01*
X14634786Y-14533071D01*
X14620500Y-14561643D01*
X14606214Y-14575929D01*
X14577643Y-14590214D01*
X14549071Y-14590214D01*
X14520500Y-14575929D01*
X14506214Y-14561643D01*
X14491928Y-14533071D01*
X14477643Y-14475929D01*
X14477643Y-14404500D01*
X14491928Y-14347357D01*
X14506214Y-14318786D01*
X14520500Y-14304500D01*
X14549071Y-14290214D01*
X14777643Y-14590214D02*
X14777643Y-14390214D01*
X14777643Y-14418786D02*
X14791928Y-14404500D01*
X14820500Y-14390214D01*
X14863357Y-14390214D01*
X14891928Y-14404500D01*
X14906214Y-14433071D01*
X14906214Y-14590214D01*
X14906214Y-14433071D02*
X14920500Y-14404500D01*
X14949071Y-14390214D01*
X14991928Y-14390214D01*
X15020500Y-14404500D01*
X15034786Y-14433071D01*
X15034786Y-14590214D01*
X15177643Y-14590214D02*
X15177643Y-14390214D01*
X15177643Y-14418786D02*
X15191928Y-14404500D01*
X15220500Y-14390214D01*
X15263357Y-14390214D01*
X15291928Y-14404500D01*
X15306214Y-14433071D01*
X15306214Y-14590214D01*
X15306214Y-14433071D02*
X15320500Y-14404500D01*
X15349071Y-14390214D01*
X15391928Y-14390214D01*
X15420500Y-14404500D01*
X15434786Y-14433071D01*
X15434786Y-14590214D01*
X16020500Y-14275929D02*
X15763357Y-14661643D01*
X16406214Y-14290214D02*
X16434786Y-14290214D01*
X16463357Y-14304500D01*
X16477643Y-14318786D01*
X16491928Y-14347357D01*
X16506214Y-14404500D01*
X16506214Y-14475929D01*
X16491928Y-14533071D01*
X16477643Y-14561643D01*
X16463357Y-14575929D01*
X16434786Y-14590214D01*
X16406214Y-14590214D01*
X16377643Y-14575929D01*
X16363357Y-14561643D01*
X16349071Y-14533071D01*
X16334786Y-14475929D01*
X16334786Y-14404500D01*
X16349071Y-14347357D01*
X16363357Y-14318786D01*
X16377643Y-14304500D01*
X16406214Y-14290214D01*
X16634786Y-14561643D02*
X16649071Y-14575929D01*
X16634786Y-14590214D01*
X16620500Y-14575929D01*
X16634786Y-14561643D01*
X16634786Y-14590214D01*
X16834786Y-14290214D02*
X16863357Y-14290214D01*
X16891928Y-14304500D01*
X16906214Y-14318786D01*
X16920500Y-14347357D01*
X16934786Y-14404500D01*
X16934786Y-14475929D01*
X16920500Y-14533071D01*
X16906214Y-14561643D01*
X16891928Y-14575929D01*
X16863357Y-14590214D01*
X16834786Y-14590214D01*
X16806214Y-14575929D01*
X16791928Y-14561643D01*
X16777643Y-14533071D01*
X16763357Y-14475929D01*
X16763357Y-14404500D01*
X16777643Y-14347357D01*
X16791928Y-14318786D01*
X16806214Y-14304500D01*
X16834786Y-14290214D01*
X17034786Y-14290214D02*
X17220500Y-14290214D01*
X17120500Y-14404500D01*
X17163357Y-14404500D01*
X17191928Y-14418786D01*
X17206214Y-14433071D01*
X17220500Y-14461643D01*
X17220500Y-14533071D01*
X17206214Y-14561643D01*
X17191928Y-14575929D01*
X17163357Y-14590214D01*
X17077643Y-14590214D01*
X17049071Y-14575929D01*
X17034786Y-14561643D01*
X17363357Y-14590214D02*
X17420500Y-14590214D01*
X17449071Y-14575929D01*
X17463357Y-14561643D01*
X17491928Y-14518786D01*
X17506214Y-14461643D01*
X17506214Y-14347357D01*
X17491928Y-14318786D01*
X17477643Y-14304500D01*
X17449071Y-14290214D01*
X17391928Y-14290214D01*
X17363357Y-14304500D01*
X17349071Y-14318786D01*
X17334786Y-14347357D01*
X17334786Y-14418786D01*
X17349071Y-14447357D01*
X17363357Y-14461643D01*
X17391928Y-14475929D01*
X17449071Y-14475929D01*
X17477643Y-14461643D01*
X17491928Y-14447357D01*
X17506214Y-14418786D01*
X17763357Y-14390214D02*
X17763357Y-14590214D01*
X17691928Y-14275929D02*
X17620500Y-14490214D01*
X17806214Y-14490214D01*
X17906214Y-14290214D02*
X17906214Y-14347357D01*
X18020500Y-14290214D02*
X18020500Y-14347357D01*
X18463357Y-14704500D02*
X18449071Y-14690214D01*
X18420500Y-14647357D01*
X18406214Y-14618786D01*
X18391928Y-14575929D01*
X18377643Y-14504500D01*
X18377643Y-14447357D01*
X18391928Y-14375929D01*
X18406214Y-14333071D01*
X18420500Y-14304500D01*
X18449071Y-14261643D01*
X18463357Y-14247357D01*
X18734786Y-14590214D02*
X18563357Y-14590214D01*
X18649071Y-14590214D02*
X18649071Y-14290214D01*
X18620500Y-14333071D01*
X18591928Y-14361643D01*
X18563357Y-14375929D01*
X18991928Y-14290214D02*
X18934786Y-14290214D01*
X18906214Y-14304500D01*
X18891928Y-14318786D01*
X18863357Y-14361643D01*
X18849071Y-14418786D01*
X18849071Y-14533071D01*
X18863357Y-14561643D01*
X18877643Y-14575929D01*
X18906214Y-14590214D01*
X18963357Y-14590214D01*
X18991928Y-14575929D01*
X19006214Y-14561643D01*
X19020500Y-14533071D01*
X19020500Y-14461643D01*
X19006214Y-14433071D01*
X18991928Y-14418786D01*
X18963357Y-14404500D01*
X18906214Y-14404500D01*
X18877643Y-14418786D01*
X18863357Y-14433071D01*
X18849071Y-14461643D01*
X19377643Y-14590214D02*
X19377643Y-14290214D01*
X19506214Y-14590214D02*
X19506214Y-14433071D01*
X19491928Y-14404500D01*
X19463357Y-14390214D01*
X19420500Y-14390214D01*
X19391928Y-14404500D01*
X19377643Y-14418786D01*
X19691928Y-14590214D02*
X19663357Y-14575929D01*
X19649071Y-14561643D01*
X19634786Y-14533071D01*
X19634786Y-14447357D01*
X19649071Y-14418786D01*
X19663357Y-14404500D01*
X19691928Y-14390214D01*
X19734786Y-14390214D01*
X19763357Y-14404500D01*
X19777643Y-14418786D01*
X19791928Y-14447357D01*
X19791928Y-14533071D01*
X19777643Y-14561643D01*
X19763357Y-14575929D01*
X19734786Y-14590214D01*
X19691928Y-14590214D01*
X19963357Y-14590214D02*
X19934786Y-14575929D01*
X19920500Y-14547357D01*
X19920500Y-14290214D01*
X20191928Y-14575929D02*
X20163357Y-14590214D01*
X20106214Y-14590214D01*
X20077643Y-14575929D01*
X20063357Y-14547357D01*
X20063357Y-14433071D01*
X20077643Y-14404500D01*
X20106214Y-14390214D01*
X20163357Y-14390214D01*
X20191928Y-14404500D01*
X20206214Y-14433071D01*
X20206214Y-14461643D01*
X20063357Y-14490214D01*
X20320500Y-14575929D02*
X20349071Y-14590214D01*
X20406214Y-14590214D01*
X20434786Y-14575929D01*
X20449071Y-14547357D01*
X20449071Y-14533071D01*
X20434786Y-14504500D01*
X20406214Y-14490214D01*
X20363357Y-14490214D01*
X20334786Y-14475929D01*
X20320500Y-14447357D01*
X20320500Y-14433071D01*
X20334786Y-14404500D01*
X20363357Y-14390214D01*
X20406214Y-14390214D01*
X20434786Y-14404500D01*
X20549071Y-14704500D02*
X20563357Y-14690214D01*
X20591928Y-14647357D01*
X20606214Y-14618786D01*
X20620500Y-14575929D01*
X20634786Y-14504500D01*
X20634786Y-14447357D01*
X20620500Y-14375929D01*
X20606214Y-14333071D01*
X20591928Y-14304500D01*
X20563357Y-14261643D01*
X20549071Y-14247357D01*
M02*
