G04 #@! TF.GenerationSoftware,KiCad,Pcbnew,5.1.10*
G04 #@! TF.CreationDate,2021-05-21T02:11:28+02:00*
G04 #@! TF.ProjectId,Weichensimulator-rechts,57656963-6865-46e7-9369-6d756c61746f,rev?*
G04 #@! TF.SameCoordinates,Original*
G04 #@! TF.FileFunction,Legend,Bot*
G04 #@! TF.FilePolarity,Positive*
%FSLAX46Y46*%
G04 Gerber Fmt 4.6, Leading zero omitted, Abs format (unit mm)*
G04 Created by KiCad (PCBNEW 5.1.10) date 2021-05-21 02:11:28*
%MOMM*%
%LPD*%
G01*
G04 APERTURE LIST*
%ADD10C,0.300000*%
%ADD11C,0.100000*%
%ADD12C,0.200000*%
%ADD13C,0.120000*%
%ADD14C,0.254000*%
%ADD15C,3.200000*%
%ADD16C,1.500000*%
%ADD17C,1.800000*%
%ADD18R,1.800000X1.800000*%
%ADD19O,1.600000X1.600000*%
%ADD20C,1.600000*%
%ADD21O,1.700000X1.700000*%
%ADD22R,1.700000X1.700000*%
G04 APERTURE END LIST*
D10*
X151002857Y-91960000D02*
X151145714Y-91888571D01*
X151360000Y-91888571D01*
X151574285Y-91960000D01*
X151717142Y-92102857D01*
X151788571Y-92245714D01*
X151860000Y-92531428D01*
X151860000Y-92745714D01*
X151788571Y-93031428D01*
X151717142Y-93174285D01*
X151574285Y-93317142D01*
X151360000Y-93388571D01*
X151217142Y-93388571D01*
X151002857Y-93317142D01*
X150931428Y-93245714D01*
X150931428Y-92745714D01*
X151217142Y-92745714D01*
X150288571Y-93388571D02*
X150288571Y-91888571D01*
X149431428Y-93388571D01*
X149431428Y-91888571D01*
X148717142Y-93388571D02*
X148717142Y-91888571D01*
X148360000Y-91888571D01*
X148145714Y-91960000D01*
X148002857Y-92102857D01*
X147931428Y-92245714D01*
X147860000Y-92531428D01*
X147860000Y-92745714D01*
X147931428Y-93031428D01*
X148002857Y-93174285D01*
X148145714Y-93317142D01*
X148360000Y-93388571D01*
X148717142Y-93388571D01*
X151788571Y-90277142D02*
X150645714Y-90277142D01*
X151217142Y-90848571D02*
X151217142Y-89705714D01*
X149217142Y-89348571D02*
X149931428Y-89348571D01*
X150002857Y-90062857D01*
X149931428Y-89991428D01*
X149788571Y-89920000D01*
X149431428Y-89920000D01*
X149288571Y-89991428D01*
X149217142Y-90062857D01*
X149145714Y-90205714D01*
X149145714Y-90562857D01*
X149217142Y-90705714D01*
X149288571Y-90777142D01*
X149431428Y-90848571D01*
X149788571Y-90848571D01*
X149931428Y-90777142D01*
X150002857Y-90705714D01*
X148717142Y-89348571D02*
X148217142Y-90848571D01*
X147717142Y-89348571D01*
X121007142Y-125980000D02*
X120292857Y-125980000D01*
X121150000Y-126408571D02*
X120650000Y-124908571D01*
X120150000Y-126408571D01*
X117717142Y-124980000D02*
X117860000Y-124908571D01*
X118074285Y-124908571D01*
X118288571Y-124980000D01*
X118431428Y-125122857D01*
X118502857Y-125265714D01*
X118574285Y-125551428D01*
X118574285Y-125765714D01*
X118502857Y-126051428D01*
X118431428Y-126194285D01*
X118288571Y-126337142D01*
X118074285Y-126408571D01*
X117931428Y-126408571D01*
X117717142Y-126337142D01*
X117645714Y-126265714D01*
X117645714Y-125765714D01*
X117931428Y-125765714D01*
D11*
X144710000Y-124480000D02*
X124510000Y-124480000D01*
X124510000Y-124480000D02*
X124510000Y-114280000D01*
X124510000Y-114280000D02*
X144710000Y-114280000D01*
X144710000Y-114280000D02*
X144710000Y-124480000D01*
D12*
X143610000Y-124990000D02*
X143610000Y-124990000D01*
X143510000Y-124990000D02*
X143510000Y-124990000D01*
X143610000Y-124990000D02*
X143610000Y-124990000D01*
X143710000Y-124990000D02*
G75*
G03*
X143610000Y-124990000I-50000J0D01*
G01*
X143810000Y-124990000D02*
G75*
G03*
X143510000Y-124990000I-150000J0D01*
G01*
X143710000Y-124990000D02*
G75*
G03*
X143610000Y-124990000I-50000J0D01*
G01*
D13*
X121980000Y-121750000D02*
X116780000Y-121750000D01*
X116780000Y-121750000D02*
X116780000Y-119090000D01*
X116780000Y-119090000D02*
X121980000Y-119090000D01*
X121980000Y-119090000D02*
X121980000Y-121750000D01*
X121030000Y-119090000D02*
X121030000Y-113090000D01*
X121030000Y-113090000D02*
X120270000Y-113090000D01*
X120270000Y-113090000D02*
X120270000Y-119090000D01*
X120970000Y-119090000D02*
X120970000Y-113090000D01*
X120850000Y-119090000D02*
X120850000Y-113090000D01*
X120730000Y-119090000D02*
X120730000Y-113090000D01*
X120610000Y-119090000D02*
X120610000Y-113090000D01*
X120490000Y-119090000D02*
X120490000Y-113090000D01*
X120370000Y-119090000D02*
X120370000Y-113090000D01*
X121030000Y-122080000D02*
X121030000Y-121750000D01*
X120270000Y-122080000D02*
X120270000Y-121750000D01*
X119380000Y-121750000D02*
X119380000Y-119090000D01*
X118490000Y-119090000D02*
X118490000Y-113090000D01*
X118490000Y-113090000D02*
X117730000Y-113090000D01*
X117730000Y-113090000D02*
X117730000Y-119090000D01*
X118490000Y-122147071D02*
X118490000Y-121750000D01*
X117730000Y-122147071D02*
X117730000Y-121750000D01*
X120650000Y-124460000D02*
X121920000Y-124460000D01*
X121920000Y-124460000D02*
X121920000Y-123190000D01*
X147320000Y-88900000D02*
X146050000Y-88900000D01*
X147320000Y-90170000D02*
X147320000Y-88900000D01*
X145007071Y-93090000D02*
X144610000Y-93090000D01*
X145007071Y-92330000D02*
X144610000Y-92330000D01*
X135950000Y-93090000D02*
X141950000Y-93090000D01*
X135950000Y-92330000D02*
X135950000Y-93090000D01*
X141950000Y-92330000D02*
X135950000Y-92330000D01*
X144610000Y-91440000D02*
X141950000Y-91440000D01*
X144940000Y-90550000D02*
X144610000Y-90550000D01*
X144940000Y-89790000D02*
X144610000Y-89790000D01*
X141950000Y-90450000D02*
X135950000Y-90450000D01*
X141950000Y-90330000D02*
X135950000Y-90330000D01*
X141950000Y-90210000D02*
X135950000Y-90210000D01*
X141950000Y-90090000D02*
X135950000Y-90090000D01*
X141950000Y-89970000D02*
X135950000Y-89970000D01*
X141950000Y-89850000D02*
X135950000Y-89850000D01*
X135950000Y-90550000D02*
X141950000Y-90550000D01*
X135950000Y-89790000D02*
X135950000Y-90550000D01*
X141950000Y-89790000D02*
X135950000Y-89790000D01*
X141950000Y-88840000D02*
X144610000Y-88840000D01*
X141950000Y-94040000D02*
X141950000Y-88840000D01*
X144610000Y-94040000D02*
X141950000Y-94040000D01*
X144610000Y-88840000D02*
X144610000Y-94040000D01*
X142070000Y-88840000D02*
X142070000Y-94040000D01*
X142070000Y-94040000D02*
X139410000Y-94040000D01*
X139410000Y-94040000D02*
X139410000Y-88840000D01*
X139410000Y-88840000D02*
X142070000Y-88840000D01*
X139410000Y-89790000D02*
X133410000Y-89790000D01*
X133410000Y-89790000D02*
X133410000Y-90550000D01*
X133410000Y-90550000D02*
X139410000Y-90550000D01*
X139410000Y-89850000D02*
X133410000Y-89850000D01*
X139410000Y-89970000D02*
X133410000Y-89970000D01*
X139410000Y-90090000D02*
X133410000Y-90090000D01*
X139410000Y-90210000D02*
X133410000Y-90210000D01*
X139410000Y-90330000D02*
X133410000Y-90330000D01*
X139410000Y-90450000D02*
X133410000Y-90450000D01*
X142400000Y-89790000D02*
X142070000Y-89790000D01*
X142400000Y-90550000D02*
X142070000Y-90550000D01*
X142070000Y-91440000D02*
X139410000Y-91440000D01*
X139410000Y-92330000D02*
X133410000Y-92330000D01*
X133410000Y-92330000D02*
X133410000Y-93090000D01*
X133410000Y-93090000D02*
X139410000Y-93090000D01*
X142467071Y-92330000D02*
X142070000Y-92330000D01*
X142467071Y-93090000D02*
X142070000Y-93090000D01*
X144780000Y-90170000D02*
X144780000Y-88900000D01*
X144780000Y-88900000D02*
X143510000Y-88900000D01*
D14*
X134287380Y-113604523D02*
X134287380Y-112334523D01*
X133561666Y-113604523D02*
X134105952Y-112878809D01*
X133561666Y-112334523D02*
X134287380Y-113060238D01*
X132352142Y-113604523D02*
X133077857Y-113604523D01*
X132715000Y-113604523D02*
X132715000Y-112334523D01*
X132835952Y-112515952D01*
X132956904Y-112636904D01*
X133077857Y-112697380D01*
%LPC*%
D15*
X120650000Y-92710000D03*
D16*
X143510000Y-123190000D03*
X140970000Y-123190000D03*
X135890000Y-123190000D03*
X130810000Y-123190000D03*
X125730000Y-123190000D03*
X125730000Y-115570000D03*
X130810000Y-115570000D03*
X135890000Y-115570000D03*
X140970000Y-115570000D03*
X143510000Y-115570000D03*
D17*
X148590000Y-107950000D03*
D18*
X146050000Y-107950000D03*
X125730000Y-107950000D03*
D17*
X123190000Y-107950000D03*
X126913949Y-98973949D03*
D11*
G36*
X129982792Y-100770000D02*
G01*
X128710000Y-102042792D01*
X127437208Y-100770000D01*
X128710000Y-99497208D01*
X129982792Y-100770000D01*
G37*
D19*
X135890000Y-99060000D03*
D20*
X143510000Y-99060000D03*
D21*
X118110000Y-123190000D03*
D22*
X120650000Y-123190000D03*
X146050000Y-90170000D03*
D21*
X146050000Y-92710000D03*
X143510000Y-92710000D03*
D22*
X143510000Y-90170000D03*
D15*
X151130000Y-123190000D03*
M02*
