M48
; DRILL file {KiCad 5.1.10} date Fri May 21 02:11:32 2021
; FORMAT={-:-/ absolute / metric / decimal}
; #@! TF.CreationDate,2021-05-21T02:11:32+02:00
; #@! TF.GenerationSoftware,Kicad,Pcbnew,5.1.10
; #@! TF.FileFunction,Plated,1,2,PTH
FMAT,2
METRIC
T1C0.800
T2C0.900
T3C1.000
%
G90
G05
T1
X135.89Y-99.06
X143.51Y-99.06
T2
X123.19Y-107.95
X125.73Y-107.95
X126.914Y-98.974
X128.71Y-100.77
X146.05Y-107.95
X148.59Y-107.95
T3
X118.11Y-123.19
X120.65Y-123.19
X125.73Y-115.57
X125.73Y-123.19
X130.81Y-115.57
X130.81Y-123.19
X135.89Y-115.57
X135.89Y-123.19
X140.97Y-115.57
X140.97Y-123.19
X143.51Y-90.17
X143.51Y-92.71
X143.51Y-115.57
X143.51Y-123.19
X146.05Y-90.17
X146.05Y-92.71
T0
M30
