G04 #@! TF.GenerationSoftware,KiCad,Pcbnew,5.1.10*
G04 #@! TF.CreationDate,2021-05-04T21:35:11+02:00*
G04 #@! TF.ProjectId,Weichensimulator-45links,57656963-6865-46e7-9369-6d756c61746f,rev?*
G04 #@! TF.SameCoordinates,Original*
G04 #@! TF.FileFunction,Copper,L2,Bot*
G04 #@! TF.FilePolarity,Positive*
%FSLAX46Y46*%
G04 Gerber Fmt 4.6, Leading zero omitted, Abs format (unit mm)*
G04 Created by KiCad (PCBNEW 5.1.10) date 2021-05-04 21:35:11*
%MOMM*%
%LPD*%
G01*
G04 APERTURE LIST*
G04 #@! TA.AperFunction,ComponentPad*
%ADD10C,1.800000*%
G04 #@! TD*
G04 #@! TA.AperFunction,ComponentPad*
%ADD11C,0.100000*%
G04 #@! TD*
G04 #@! TA.AperFunction,ComponentPad*
%ADD12C,1.500000*%
G04 #@! TD*
G04 #@! TA.AperFunction,ComponentPad*
%ADD13R,1.800000X1.800000*%
G04 #@! TD*
G04 #@! TA.AperFunction,ComponentPad*
%ADD14O,1.600000X1.600000*%
G04 #@! TD*
G04 #@! TA.AperFunction,ComponentPad*
%ADD15C,1.600000*%
G04 #@! TD*
G04 #@! TA.AperFunction,ComponentPad*
%ADD16O,1.700000X1.700000*%
G04 #@! TD*
G04 #@! TA.AperFunction,ComponentPad*
%ADD17R,1.700000X1.700000*%
G04 #@! TD*
G04 #@! TA.AperFunction,Conductor*
%ADD18C,0.500000*%
G04 #@! TD*
G04 APERTURE END LIST*
D10*
X160106051Y-98973949D03*
G04 #@! TA.AperFunction,ComponentPad*
D11*
G36*
X158310000Y-102042792D02*
G01*
X157037208Y-100770000D01*
X158310000Y-99497208D01*
X159582792Y-100770000D01*
X158310000Y-102042792D01*
G37*
G04 #@! TD.AperFunction*
D12*
X153670000Y-97790000D03*
X151130000Y-97790000D03*
X146050000Y-97790000D03*
X140970000Y-97790000D03*
X135890000Y-97790000D03*
X135890000Y-105410000D03*
X140970000Y-105410000D03*
X146050000Y-105410000D03*
X151130000Y-105410000D03*
X153670000Y-105410000D03*
D13*
X151130000Y-118110000D03*
D10*
X151130000Y-120650000D03*
X142153949Y-116926051D03*
G04 #@! TA.AperFunction,ComponentPad*
D11*
G36*
X143950000Y-113857208D02*
G01*
X145222792Y-115130000D01*
X143950000Y-116402792D01*
X142677208Y-115130000D01*
X143950000Y-113857208D01*
G37*
G04 #@! TD.AperFunction*
D14*
X158750000Y-123190000D03*
D15*
X158750000Y-115570000D03*
D16*
X137160000Y-90170000D03*
D17*
X137160000Y-92710000D03*
X167640000Y-113030000D03*
D16*
X165100000Y-113030000D03*
X165100000Y-115570000D03*
D17*
X167640000Y-115570000D03*
D18*
X158310000Y-100770000D02*
X158310000Y-104970000D01*
X158310000Y-104970000D02*
X161290000Y-107950000D01*
X161290000Y-107950000D02*
X161290000Y-113030000D01*
X161290000Y-113030000D02*
X158750000Y-115570000D01*
X143510000Y-110490000D02*
X151130000Y-118110000D01*
X137160000Y-102870000D02*
X143510000Y-102870000D01*
X135890000Y-104140000D02*
X137160000Y-102870000D01*
X143510000Y-102870000D02*
X143510000Y-110490000D01*
X135890000Y-105410000D02*
X135890000Y-104140000D01*
X140970000Y-112150000D02*
X143950000Y-115130000D01*
X140970000Y-105410000D02*
X140970000Y-112150000D01*
X137160000Y-90170000D02*
X152400000Y-90170000D01*
X152400000Y-90170000D02*
X153670000Y-91440000D01*
X153670000Y-91440000D02*
X153670000Y-97790000D01*
X137160000Y-92710000D02*
X149860000Y-92710000D01*
X149860000Y-92710000D02*
X151130000Y-93980000D01*
X151130000Y-93980000D02*
X151130000Y-97790000D01*
X151130000Y-105410000D02*
X153670000Y-105410000D01*
X157480000Y-97790000D02*
X153670000Y-101600000D01*
X158922102Y-97790000D02*
X157480000Y-97790000D01*
X160106051Y-98973949D02*
X158922102Y-97790000D01*
X167640000Y-115570000D02*
X167640000Y-113030000D01*
X160106051Y-98973949D02*
X166283949Y-98973949D01*
X167640000Y-100330000D02*
X167640000Y-113030000D01*
X166283949Y-98973949D02*
X167640000Y-100330000D01*
X153670000Y-101600000D02*
X153670000Y-105410000D01*
X165100000Y-113030000D02*
X165100000Y-115570000D01*
X156210000Y-119380000D02*
X163830000Y-119380000D01*
X163830000Y-119380000D02*
X165100000Y-118110000D01*
X146050000Y-109220000D02*
X156210000Y-119380000D01*
X146050000Y-105410000D02*
X146050000Y-109220000D01*
X165100000Y-116840000D02*
X165100000Y-115570000D01*
X165100000Y-118110000D02*
X165100000Y-116840000D01*
X142153949Y-116926051D02*
X142153949Y-120563949D01*
X142240000Y-120650000D02*
X151130000Y-120650000D01*
X142153949Y-120563949D02*
X142240000Y-120650000D01*
X151130000Y-120650000D02*
X153670000Y-123190000D01*
X153670000Y-123190000D02*
X158750000Y-123190000D01*
M02*
