G04 #@! TF.GenerationSoftware,KiCad,Pcbnew,5.1.10*
G04 #@! TF.CreationDate,2021-05-04T21:09:51+02:00*
G04 #@! TF.ProjectId,Weichensimulator-links,57656963-6865-46e7-9369-6d756c61746f,rev?*
G04 #@! TF.SameCoordinates,Original*
G04 #@! TF.FileFunction,Legend,Top*
G04 #@! TF.FilePolarity,Positive*
%FSLAX46Y46*%
G04 Gerber Fmt 4.6, Leading zero omitted, Abs format (unit mm)*
G04 Created by KiCad (PCBNEW 5.1.10) date 2021-05-04 21:09:51*
%MOMM*%
%LPD*%
G01*
G04 APERTURE LIST*
%ADD10C,0.200000*%
%ADD11C,0.100000*%
%ADD12C,0.120000*%
%ADD13C,0.254000*%
%ADD14C,0.150000*%
%ADD15C,3.200000*%
%ADD16C,1.500000*%
%ADD17C,1.800000*%
%ADD18R,1.800000X1.800000*%
%ADD19O,1.600000X1.600000*%
%ADD20C,1.600000*%
%ADD21O,1.700000X1.700000*%
%ADD22R,1.700000X1.700000*%
G04 APERTURE END LIST*
D10*
X125630000Y-123720000D02*
X125630000Y-123720000D01*
X125730000Y-123720000D02*
X125730000Y-123720000D01*
X125630000Y-123720000D02*
X125630000Y-123720000D01*
D11*
X124530000Y-113010000D02*
X124530000Y-123210000D01*
X144730000Y-113010000D02*
X124530000Y-113010000D01*
X144730000Y-123210000D02*
X144730000Y-113010000D01*
X124530000Y-123210000D02*
X144730000Y-123210000D01*
D10*
X125530000Y-123720000D02*
G75*
G02*
X125630000Y-123720000I50000J0D01*
G01*
X125430000Y-123720000D02*
G75*
G02*
X125730000Y-123720000I150000J0D01*
G01*
X125530000Y-123720000D02*
G75*
G02*
X125630000Y-123720000I50000J0D01*
G01*
D12*
X125750000Y-108225000D02*
X125750000Y-105135000D01*
X125690000Y-106680000D02*
G75*
G03*
X125690000Y-106680000I-2500000J0D01*
G01*
X120200000Y-106680462D02*
G75*
G02*
X125750000Y-105135170I2990000J462D01*
G01*
X120200000Y-106679538D02*
G75*
G03*
X125750000Y-108224830I2990000J-462D01*
G01*
X148550000Y-106680000D02*
G75*
G03*
X148550000Y-106680000I-2500000J0D01*
G01*
X143490000Y-105135000D02*
X143490000Y-108225000D01*
X149040000Y-106680462D02*
G75*
G03*
X143490000Y-105135170I-2990000J462D01*
G01*
X149040000Y-106679538D02*
G75*
G02*
X143490000Y-108224830I-2990000J-462D01*
G01*
X139795352Y-99319688D02*
X141980312Y-101504648D01*
X145198026Y-98601974D02*
G75*
G03*
X145198026Y-98601974I-2500000J0D01*
G01*
X144811950Y-96487398D02*
G75*
G02*
X141980192Y-101504528I-2113924J-2114576D01*
G01*
X144812602Y-96488050D02*
G75*
G03*
X139795472Y-99319808I-2114576J-2113924D01*
G01*
X135290000Y-100370000D02*
X135290000Y-100040000D01*
X128870000Y-100370000D02*
X135290000Y-100370000D01*
X128870000Y-100040000D02*
X128870000Y-100370000D01*
X135290000Y-97750000D02*
X135290000Y-98080000D01*
X128870000Y-97750000D02*
X135290000Y-97750000D01*
X128870000Y-98080000D02*
X128870000Y-97750000D01*
D13*
X134952619Y-112334523D02*
X134952619Y-111064523D01*
X135678333Y-112334523D02*
X135134047Y-111608809D01*
X135678333Y-111064523D02*
X134952619Y-111790238D01*
X136887857Y-112334523D02*
X136162142Y-112334523D01*
X136525000Y-112334523D02*
X136525000Y-111064523D01*
X136404047Y-111245952D01*
X136283095Y-111366904D01*
X136162142Y-111427380D01*
D14*
X122451904Y-111092380D02*
X122451904Y-110092380D01*
X122690000Y-110092380D01*
X122832857Y-110140000D01*
X122928095Y-110235238D01*
X122975714Y-110330476D01*
X123023333Y-110520952D01*
X123023333Y-110663809D01*
X122975714Y-110854285D01*
X122928095Y-110949523D01*
X122832857Y-111044761D01*
X122690000Y-111092380D01*
X122451904Y-111092380D01*
X123975714Y-111092380D02*
X123404285Y-111092380D01*
X123690000Y-111092380D02*
X123690000Y-110092380D01*
X123594761Y-110235238D01*
X123499523Y-110330476D01*
X123404285Y-110378095D01*
X145311904Y-103172380D02*
X145311904Y-102172380D01*
X145550000Y-102172380D01*
X145692857Y-102220000D01*
X145788095Y-102315238D01*
X145835714Y-102410476D01*
X145883333Y-102600952D01*
X145883333Y-102743809D01*
X145835714Y-102934285D01*
X145788095Y-103029523D01*
X145692857Y-103124761D01*
X145550000Y-103172380D01*
X145311904Y-103172380D01*
X146264285Y-102267619D02*
X146311904Y-102220000D01*
X146407142Y-102172380D01*
X146645238Y-102172380D01*
X146740476Y-102220000D01*
X146788095Y-102267619D01*
X146835714Y-102362857D01*
X146835714Y-102458095D01*
X146788095Y-102600952D01*
X146216666Y-103172380D01*
X146835714Y-103172380D01*
X139695852Y-96643625D02*
X138988745Y-95936519D01*
X139157104Y-95768160D01*
X139291791Y-95700816D01*
X139426478Y-95700816D01*
X139527493Y-95734488D01*
X139695852Y-95835503D01*
X139796867Y-95936519D01*
X139897883Y-96104877D01*
X139931554Y-96205893D01*
X139931554Y-96340580D01*
X139864211Y-96475267D01*
X139695852Y-96643625D01*
X139628508Y-95296755D02*
X140066241Y-94859022D01*
X140099913Y-95364099D01*
X140200928Y-95263083D01*
X140301944Y-95229412D01*
X140369287Y-95229412D01*
X140470302Y-95263083D01*
X140638661Y-95431442D01*
X140672333Y-95532457D01*
X140672333Y-95599801D01*
X140638661Y-95700816D01*
X140436631Y-95902847D01*
X140335615Y-95936519D01*
X140268272Y-95936519D01*
X131913333Y-97202380D02*
X131580000Y-96726190D01*
X131341904Y-97202380D02*
X131341904Y-96202380D01*
X131722857Y-96202380D01*
X131818095Y-96250000D01*
X131865714Y-96297619D01*
X131913333Y-96392857D01*
X131913333Y-96535714D01*
X131865714Y-96630952D01*
X131818095Y-96678571D01*
X131722857Y-96726190D01*
X131341904Y-96726190D01*
X132865714Y-97202380D02*
X132294285Y-97202380D01*
X132580000Y-97202380D02*
X132580000Y-96202380D01*
X132484761Y-96345238D01*
X132389523Y-96440476D01*
X132294285Y-96488095D01*
X120316666Y-123912380D02*
X120316666Y-124626666D01*
X120269047Y-124769523D01*
X120173809Y-124864761D01*
X120030952Y-124912380D01*
X119935714Y-124912380D01*
X121316666Y-124912380D02*
X120745238Y-124912380D01*
X121030952Y-124912380D02*
X121030952Y-123912380D01*
X120935714Y-124055238D01*
X120840476Y-124150476D01*
X120745238Y-124198095D01*
X144446666Y-88352380D02*
X144446666Y-89066666D01*
X144399047Y-89209523D01*
X144303809Y-89304761D01*
X144160952Y-89352380D01*
X144065714Y-89352380D01*
X144875238Y-88447619D02*
X144922857Y-88400000D01*
X145018095Y-88352380D01*
X145256190Y-88352380D01*
X145351428Y-88400000D01*
X145399047Y-88447619D01*
X145446666Y-88542857D01*
X145446666Y-88638095D01*
X145399047Y-88780952D01*
X144827619Y-89352380D01*
X145446666Y-89352380D01*
%LPC*%
D15*
X123190000Y-97790000D03*
D16*
X125730000Y-121920000D03*
X128270000Y-121920000D03*
X133350000Y-121920000D03*
X138430000Y-121920000D03*
X143510000Y-121920000D03*
X143510000Y-114300000D03*
X138430000Y-114300000D03*
X133350000Y-114300000D03*
X128270000Y-114300000D03*
X125730000Y-114300000D03*
D17*
X121920000Y-106680000D03*
D18*
X124460000Y-106680000D03*
X144780000Y-106680000D03*
D17*
X147320000Y-106680000D03*
X143596051Y-97703949D03*
D11*
G36*
X141800000Y-100772792D02*
G01*
X140527208Y-99500000D01*
X141800000Y-98227208D01*
X143072792Y-99500000D01*
X141800000Y-100772792D01*
G37*
D19*
X135890000Y-99060000D03*
D20*
X128270000Y-99060000D03*
D21*
X116840000Y-121920000D03*
D22*
X119380000Y-121920000D03*
X139700000Y-88900000D03*
D21*
X139700000Y-91440000D03*
X142240000Y-91440000D03*
D22*
X142240000Y-88900000D03*
D15*
X149860000Y-121920000D03*
M02*
