M48
; DRILL file {KiCad 5.1.10} date Tue May  4 22:43:56 2021
; FORMAT={-:-/ absolute / metric / decimal}
; #@! TF.CreationDate,2021-05-04T22:43:56+02:00
; #@! TF.GenerationSoftware,Kicad,Pcbnew,5.1.10
; #@! TF.FileFunction,Plated,1,2,PTH
FMAT,2
METRIC
T1C0.800
T2C0.900
T3C1.000
%
G90
G05
T1
X140.97Y-120.65
X140.97Y-128.27
T2
X139.614Y-106.594
X141.41Y-108.39
X148.59Y-125.73
X148.59Y-128.27
X155.77Y-122.75
X157.566Y-124.546
T3
X130.81Y-125.73
X130.81Y-128.27
X133.35Y-125.73
X133.35Y-128.27
X146.05Y-107.95
X146.05Y-115.57
X151.13Y-107.95
X151.13Y-115.57
X156.21Y-107.95
X156.21Y-115.57
X158.75Y-97.79
X158.75Y-100.33
X161.29Y-107.95
X161.29Y-115.57
X163.83Y-107.95
X163.83Y-115.57
T0
M30
