%FSLAX45Y45*%
G04 Gerber Fmt 4.5, Leading zero omitted, Abs format (unit mm)*
G04 Created by KiCad (PCBNEW 5.1.10) date 2021-05-04 22:43:58*
%MOMM*%
%LPD*%
G01*
G04 APERTURE LIST*
%TA.AperFunction,Profile*%
%ADD10C,0.050000*%
%TD*%
%ADD11C,0.200000*%
%ADD12C,0.300000*%
G04 APERTURE END LIST*
D10*
X13081000Y-13462000D02*
G75*
G02*
X12954000Y-13335000I0J127000D01*
G01*
X16764000Y-13335000D02*
G75*
G02*
X16637000Y-13462000I-127000J0D01*
G01*
X16637000Y-9652000D02*
G75*
G02*
X16764000Y-9779000I0J-127000D01*
G01*
X12954000Y-9779000D02*
G75*
G02*
X13081000Y-9652000I127000J0D01*
G01*
X13081000Y-9652000D02*
X16637000Y-9652000D01*
X12954000Y-13335000D02*
X12954000Y-9779000D01*
X16637000Y-13462000D02*
X13081000Y-13462000D01*
X16764000Y-9779000D02*
X16764000Y-13335000D01*
D11*
X13810000Y-11397000D02*
X14130000Y-11717000D01*
X14130000Y-11397000D02*
X13810000Y-11717000D01*
X16223000Y-12921000D02*
X16543000Y-13241000D01*
X16543000Y-12921000D02*
X16223000Y-13241000D01*
D12*
X13237928Y-13930214D02*
X13237928Y-13630214D01*
X13309357Y-13630214D01*
X13352214Y-13644500D01*
X13380786Y-13673071D01*
X13395071Y-13701643D01*
X13409357Y-13758786D01*
X13409357Y-13801643D01*
X13395071Y-13858786D01*
X13380786Y-13887357D01*
X13352214Y-13915929D01*
X13309357Y-13930214D01*
X13237928Y-13930214D01*
X13537928Y-13930214D02*
X13537928Y-13730214D01*
X13537928Y-13787357D02*
X13552214Y-13758786D01*
X13566500Y-13744500D01*
X13595071Y-13730214D01*
X13623643Y-13730214D01*
X13723643Y-13930214D02*
X13723643Y-13730214D01*
X13723643Y-13630214D02*
X13709357Y-13644500D01*
X13723643Y-13658786D01*
X13737928Y-13644500D01*
X13723643Y-13630214D01*
X13723643Y-13658786D01*
X13909357Y-13930214D02*
X13880786Y-13915929D01*
X13866500Y-13887357D01*
X13866500Y-13630214D01*
X14066500Y-13930214D02*
X14037928Y-13915929D01*
X14023643Y-13887357D01*
X14023643Y-13630214D01*
X14409357Y-13930214D02*
X14409357Y-13630214D01*
X14509357Y-13844500D01*
X14609357Y-13630214D01*
X14609357Y-13930214D01*
X14880786Y-13930214D02*
X14880786Y-13773071D01*
X14866500Y-13744500D01*
X14837928Y-13730214D01*
X14780786Y-13730214D01*
X14752214Y-13744500D01*
X14880786Y-13915929D02*
X14852214Y-13930214D01*
X14780786Y-13930214D01*
X14752214Y-13915929D01*
X14737928Y-13887357D01*
X14737928Y-13858786D01*
X14752214Y-13830214D01*
X14780786Y-13815929D01*
X14852214Y-13815929D01*
X14880786Y-13801643D01*
X15023643Y-13730214D02*
X15023643Y-14030214D01*
X15023643Y-13744500D02*
X15052214Y-13730214D01*
X15109357Y-13730214D01*
X15137928Y-13744500D01*
X15152214Y-13758786D01*
X15166500Y-13787357D01*
X15166500Y-13873071D01*
X15152214Y-13901643D01*
X15137928Y-13915929D01*
X15109357Y-13930214D01*
X15052214Y-13930214D01*
X15023643Y-13915929D01*
X15295071Y-13901643D02*
X15309357Y-13915929D01*
X15295071Y-13930214D01*
X15280786Y-13915929D01*
X15295071Y-13901643D01*
X15295071Y-13930214D01*
X15295071Y-13744500D02*
X15309357Y-13758786D01*
X15295071Y-13773071D01*
X15280786Y-13758786D01*
X15295071Y-13744500D01*
X15295071Y-13773071D01*
X12631500Y-14264500D02*
X12951500Y-14584500D01*
X12951500Y-14264500D02*
X12631500Y-14584500D01*
X13209357Y-14260214D02*
X13395071Y-14260214D01*
X13295071Y-14374500D01*
X13337928Y-14374500D01*
X13366500Y-14388786D01*
X13380786Y-14403071D01*
X13395071Y-14431643D01*
X13395071Y-14503071D01*
X13380786Y-14531643D01*
X13366500Y-14545929D01*
X13337928Y-14560214D01*
X13252214Y-14560214D01*
X13223643Y-14545929D01*
X13209357Y-14531643D01*
X13523643Y-14531643D02*
X13537928Y-14545929D01*
X13523643Y-14560214D01*
X13509357Y-14545929D01*
X13523643Y-14531643D01*
X13523643Y-14560214D01*
X13652214Y-14288786D02*
X13666500Y-14274500D01*
X13695071Y-14260214D01*
X13766500Y-14260214D01*
X13795071Y-14274500D01*
X13809357Y-14288786D01*
X13823643Y-14317357D01*
X13823643Y-14345929D01*
X13809357Y-14388786D01*
X13637928Y-14560214D01*
X13823643Y-14560214D01*
X14009357Y-14260214D02*
X14037928Y-14260214D01*
X14066500Y-14274500D01*
X14080786Y-14288786D01*
X14095071Y-14317357D01*
X14109357Y-14374500D01*
X14109357Y-14445929D01*
X14095071Y-14503071D01*
X14080786Y-14531643D01*
X14066500Y-14545929D01*
X14037928Y-14560214D01*
X14009357Y-14560214D01*
X13980786Y-14545929D01*
X13966500Y-14531643D01*
X13952214Y-14503071D01*
X13937928Y-14445929D01*
X13937928Y-14374500D01*
X13952214Y-14317357D01*
X13966500Y-14288786D01*
X13980786Y-14274500D01*
X14009357Y-14260214D01*
X14295071Y-14260214D02*
X14323643Y-14260214D01*
X14352214Y-14274500D01*
X14366500Y-14288786D01*
X14380786Y-14317357D01*
X14395071Y-14374500D01*
X14395071Y-14445929D01*
X14380786Y-14503071D01*
X14366500Y-14531643D01*
X14352214Y-14545929D01*
X14323643Y-14560214D01*
X14295071Y-14560214D01*
X14266500Y-14545929D01*
X14252214Y-14531643D01*
X14237928Y-14503071D01*
X14223643Y-14445929D01*
X14223643Y-14374500D01*
X14237928Y-14317357D01*
X14252214Y-14288786D01*
X14266500Y-14274500D01*
X14295071Y-14260214D01*
X14523643Y-14560214D02*
X14523643Y-14360214D01*
X14523643Y-14388786D02*
X14537928Y-14374500D01*
X14566500Y-14360214D01*
X14609357Y-14360214D01*
X14637928Y-14374500D01*
X14652214Y-14403071D01*
X14652214Y-14560214D01*
X14652214Y-14403071D02*
X14666500Y-14374500D01*
X14695071Y-14360214D01*
X14737928Y-14360214D01*
X14766500Y-14374500D01*
X14780786Y-14403071D01*
X14780786Y-14560214D01*
X14923643Y-14560214D02*
X14923643Y-14360214D01*
X14923643Y-14388786D02*
X14937928Y-14374500D01*
X14966500Y-14360214D01*
X15009357Y-14360214D01*
X15037928Y-14374500D01*
X15052214Y-14403071D01*
X15052214Y-14560214D01*
X15052214Y-14403071D02*
X15066500Y-14374500D01*
X15095071Y-14360214D01*
X15137928Y-14360214D01*
X15166500Y-14374500D01*
X15180786Y-14403071D01*
X15180786Y-14560214D01*
X15766500Y-14245929D02*
X15509357Y-14631643D01*
X16152214Y-14260214D02*
X16180786Y-14260214D01*
X16209357Y-14274500D01*
X16223643Y-14288786D01*
X16237928Y-14317357D01*
X16252214Y-14374500D01*
X16252214Y-14445929D01*
X16237928Y-14503071D01*
X16223643Y-14531643D01*
X16209357Y-14545929D01*
X16180786Y-14560214D01*
X16152214Y-14560214D01*
X16123643Y-14545929D01*
X16109357Y-14531643D01*
X16095071Y-14503071D01*
X16080786Y-14445929D01*
X16080786Y-14374500D01*
X16095071Y-14317357D01*
X16109357Y-14288786D01*
X16123643Y-14274500D01*
X16152214Y-14260214D01*
X16380786Y-14531643D02*
X16395071Y-14545929D01*
X16380786Y-14560214D01*
X16366500Y-14545929D01*
X16380786Y-14531643D01*
X16380786Y-14560214D01*
X16680786Y-14560214D02*
X16509357Y-14560214D01*
X16595071Y-14560214D02*
X16595071Y-14260214D01*
X16566500Y-14303071D01*
X16537928Y-14331643D01*
X16509357Y-14345929D01*
X16795071Y-14288786D02*
X16809357Y-14274500D01*
X16837928Y-14260214D01*
X16909357Y-14260214D01*
X16937928Y-14274500D01*
X16952214Y-14288786D01*
X16966500Y-14317357D01*
X16966500Y-14345929D01*
X16952214Y-14388786D01*
X16780786Y-14560214D01*
X16966500Y-14560214D01*
X17223643Y-14260214D02*
X17166500Y-14260214D01*
X17137928Y-14274500D01*
X17123643Y-14288786D01*
X17095071Y-14331643D01*
X17080786Y-14388786D01*
X17080786Y-14503071D01*
X17095071Y-14531643D01*
X17109357Y-14545929D01*
X17137928Y-14560214D01*
X17195071Y-14560214D01*
X17223643Y-14545929D01*
X17237928Y-14531643D01*
X17252214Y-14503071D01*
X17252214Y-14431643D01*
X17237928Y-14403071D01*
X17223643Y-14388786D01*
X17195071Y-14374500D01*
X17137928Y-14374500D01*
X17109357Y-14388786D01*
X17095071Y-14403071D01*
X17080786Y-14431643D01*
X17437928Y-14260214D02*
X17466500Y-14260214D01*
X17495071Y-14274500D01*
X17509357Y-14288786D01*
X17523643Y-14317357D01*
X17537928Y-14374500D01*
X17537928Y-14445929D01*
X17523643Y-14503071D01*
X17509357Y-14531643D01*
X17495071Y-14545929D01*
X17466500Y-14560214D01*
X17437928Y-14560214D01*
X17409357Y-14545929D01*
X17395071Y-14531643D01*
X17380786Y-14503071D01*
X17366500Y-14445929D01*
X17366500Y-14374500D01*
X17380786Y-14317357D01*
X17395071Y-14288786D01*
X17409357Y-14274500D01*
X17437928Y-14260214D01*
X17652214Y-14260214D02*
X17652214Y-14317357D01*
X17766500Y-14260214D02*
X17766500Y-14317357D01*
X18209357Y-14674500D02*
X18195071Y-14660214D01*
X18166500Y-14617357D01*
X18152214Y-14588786D01*
X18137928Y-14545929D01*
X18123643Y-14474500D01*
X18123643Y-14417357D01*
X18137928Y-14345929D01*
X18152214Y-14303071D01*
X18166500Y-14274500D01*
X18195071Y-14231643D01*
X18209357Y-14217357D01*
X18309357Y-14288786D02*
X18323643Y-14274500D01*
X18352214Y-14260214D01*
X18423643Y-14260214D01*
X18452214Y-14274500D01*
X18466500Y-14288786D01*
X18480786Y-14317357D01*
X18480786Y-14345929D01*
X18466500Y-14388786D01*
X18295071Y-14560214D01*
X18480786Y-14560214D01*
X18837928Y-14560214D02*
X18837928Y-14260214D01*
X18966500Y-14560214D02*
X18966500Y-14403071D01*
X18952214Y-14374500D01*
X18923643Y-14360214D01*
X18880786Y-14360214D01*
X18852214Y-14374500D01*
X18837928Y-14388786D01*
X19152214Y-14560214D02*
X19123643Y-14545929D01*
X19109357Y-14531643D01*
X19095071Y-14503071D01*
X19095071Y-14417357D01*
X19109357Y-14388786D01*
X19123643Y-14374500D01*
X19152214Y-14360214D01*
X19195071Y-14360214D01*
X19223643Y-14374500D01*
X19237928Y-14388786D01*
X19252214Y-14417357D01*
X19252214Y-14503071D01*
X19237928Y-14531643D01*
X19223643Y-14545929D01*
X19195071Y-14560214D01*
X19152214Y-14560214D01*
X19423643Y-14560214D02*
X19395071Y-14545929D01*
X19380786Y-14517357D01*
X19380786Y-14260214D01*
X19652214Y-14545929D02*
X19623643Y-14560214D01*
X19566500Y-14560214D01*
X19537928Y-14545929D01*
X19523643Y-14517357D01*
X19523643Y-14403071D01*
X19537928Y-14374500D01*
X19566500Y-14360214D01*
X19623643Y-14360214D01*
X19652214Y-14374500D01*
X19666500Y-14403071D01*
X19666500Y-14431643D01*
X19523643Y-14460214D01*
X19780786Y-14545929D02*
X19809357Y-14560214D01*
X19866500Y-14560214D01*
X19895071Y-14545929D01*
X19909357Y-14517357D01*
X19909357Y-14503071D01*
X19895071Y-14474500D01*
X19866500Y-14460214D01*
X19823643Y-14460214D01*
X19795071Y-14445929D01*
X19780786Y-14417357D01*
X19780786Y-14403071D01*
X19795071Y-14374500D01*
X19823643Y-14360214D01*
X19866500Y-14360214D01*
X19895071Y-14374500D01*
X20009357Y-14674500D02*
X20023643Y-14660214D01*
X20052214Y-14617357D01*
X20066500Y-14588786D01*
X20080786Y-14545929D01*
X20095071Y-14474500D01*
X20095071Y-14417357D01*
X20080786Y-14345929D01*
X20066500Y-14303071D01*
X20052214Y-14274500D01*
X20023643Y-14231643D01*
X20009357Y-14217357D01*
X20552214Y-14674500D02*
X20537928Y-14660214D01*
X20509357Y-14617357D01*
X20495071Y-14588786D01*
X20480786Y-14545929D01*
X20466500Y-14474500D01*
X20466500Y-14417357D01*
X20480786Y-14345929D01*
X20495071Y-14303071D01*
X20509357Y-14274500D01*
X20537928Y-14231643D01*
X20552214Y-14217357D01*
X20666500Y-14360214D02*
X20666500Y-14560214D01*
X20666500Y-14388786D02*
X20680786Y-14374500D01*
X20709357Y-14360214D01*
X20752214Y-14360214D01*
X20780786Y-14374500D01*
X20795071Y-14403071D01*
X20795071Y-14560214D01*
X20980786Y-14560214D02*
X20952214Y-14545929D01*
X20937928Y-14531643D01*
X20923643Y-14503071D01*
X20923643Y-14417357D01*
X20937928Y-14388786D01*
X20952214Y-14374500D01*
X20980786Y-14360214D01*
X21023643Y-14360214D01*
X21052214Y-14374500D01*
X21066500Y-14388786D01*
X21080786Y-14417357D01*
X21080786Y-14503071D01*
X21066500Y-14531643D01*
X21052214Y-14545929D01*
X21023643Y-14560214D01*
X20980786Y-14560214D01*
X21166500Y-14360214D02*
X21280786Y-14360214D01*
X21209357Y-14260214D02*
X21209357Y-14517357D01*
X21223643Y-14545929D01*
X21252214Y-14560214D01*
X21280786Y-14560214D01*
X21609357Y-14360214D02*
X21609357Y-14660214D01*
X21609357Y-14374500D02*
X21637928Y-14360214D01*
X21695071Y-14360214D01*
X21723643Y-14374500D01*
X21737928Y-14388786D01*
X21752214Y-14417357D01*
X21752214Y-14503071D01*
X21737928Y-14531643D01*
X21723643Y-14545929D01*
X21695071Y-14560214D01*
X21637928Y-14560214D01*
X21609357Y-14545929D01*
X21923643Y-14560214D02*
X21895071Y-14545929D01*
X21880786Y-14517357D01*
X21880786Y-14260214D01*
X22166500Y-14560214D02*
X22166500Y-14403071D01*
X22152214Y-14374500D01*
X22123643Y-14360214D01*
X22066500Y-14360214D01*
X22037928Y-14374500D01*
X22166500Y-14545929D02*
X22137928Y-14560214D01*
X22066500Y-14560214D01*
X22037928Y-14545929D01*
X22023643Y-14517357D01*
X22023643Y-14488786D01*
X22037928Y-14460214D01*
X22066500Y-14445929D01*
X22137928Y-14445929D01*
X22166500Y-14431643D01*
X22266500Y-14360214D02*
X22380786Y-14360214D01*
X22309357Y-14260214D02*
X22309357Y-14517357D01*
X22323643Y-14545929D01*
X22352214Y-14560214D01*
X22380786Y-14560214D01*
X22595071Y-14545929D02*
X22566500Y-14560214D01*
X22509357Y-14560214D01*
X22480786Y-14545929D01*
X22466500Y-14517357D01*
X22466500Y-14403071D01*
X22480786Y-14374500D01*
X22509357Y-14360214D01*
X22566500Y-14360214D01*
X22595071Y-14374500D01*
X22609357Y-14403071D01*
X22609357Y-14431643D01*
X22466500Y-14460214D01*
X22866500Y-14560214D02*
X22866500Y-14260214D01*
X22866500Y-14545929D02*
X22837928Y-14560214D01*
X22780786Y-14560214D01*
X22752214Y-14545929D01*
X22737928Y-14531643D01*
X22723643Y-14503071D01*
X22723643Y-14417357D01*
X22737928Y-14388786D01*
X22752214Y-14374500D01*
X22780786Y-14360214D01*
X22837928Y-14360214D01*
X22866500Y-14374500D01*
X22980786Y-14674500D02*
X22995071Y-14660214D01*
X23023643Y-14617357D01*
X23037928Y-14588786D01*
X23052214Y-14545929D01*
X23066500Y-14474500D01*
X23066500Y-14417357D01*
X23052214Y-14345929D01*
X23037928Y-14303071D01*
X23023643Y-14274500D01*
X22995071Y-14231643D01*
X22980786Y-14217357D01*
M02*
