G04 #@! TF.GenerationSoftware,KiCad,Pcbnew,5.1.10*
G04 #@! TF.CreationDate,2021-05-04T21:35:11+02:00*
G04 #@! TF.ProjectId,Weichensimulator-45links,57656963-6865-46e7-9369-6d756c61746f,rev?*
G04 #@! TF.SameCoordinates,Original*
G04 #@! TF.FileFunction,Legend,Top*
G04 #@! TF.FilePolarity,Positive*
%FSLAX46Y46*%
G04 Gerber Fmt 4.6, Leading zero omitted, Abs format (unit mm)*
G04 Created by KiCad (PCBNEW 5.1.10) date 2021-05-04 21:35:11*
%MOMM*%
%LPD*%
G01*
G04 APERTURE LIST*
%ADD10C,0.120000*%
%ADD11C,0.200000*%
%ADD12C,0.100000*%
%ADD13C,0.150000*%
%ADD14C,0.254000*%
%ADD15C,3.200000*%
%ADD16C,1.800000*%
%ADD17C,1.500000*%
%ADD18R,1.800000X1.800000*%
%ADD19O,1.600000X1.600000*%
%ADD20C,1.600000*%
%ADD21O,1.700000X1.700000*%
%ADD22R,1.700000X1.700000*%
G04 APERTURE END LIST*
D10*
X156305352Y-100589688D02*
X158490312Y-102774648D01*
X161708026Y-99871974D02*
G75*
G03*
X161708026Y-99871974I-2500000J0D01*
G01*
X161321950Y-97757398D02*
G75*
G02*
X158490192Y-102774528I-2113924J-2114576D01*
G01*
X161322602Y-97758050D02*
G75*
G03*
X156305472Y-100589808I-2114576J-2113924D01*
G01*
D11*
X153770000Y-95990000D02*
X153770000Y-95990000D01*
X153670000Y-95990000D02*
X153670000Y-95990000D01*
X153770000Y-95990000D02*
X153770000Y-95990000D01*
D12*
X154870000Y-106700000D02*
X154870000Y-96500000D01*
X134670000Y-106700000D02*
X154870000Y-106700000D01*
X134670000Y-96500000D02*
X134670000Y-106700000D01*
X154870000Y-96500000D02*
X134670000Y-96500000D01*
D11*
X153870000Y-95990000D02*
G75*
G02*
X153770000Y-95990000I-50000J0D01*
G01*
X153970000Y-95990000D02*
G75*
G02*
X153670000Y-95990000I-150000J0D01*
G01*
X153870000Y-95990000D02*
G75*
G02*
X153770000Y-95990000I-50000J0D01*
G01*
D10*
X153630000Y-119380000D02*
G75*
G03*
X153630000Y-119380000I-2500000J0D01*
G01*
X152675000Y-116820000D02*
X149585000Y-116820000D01*
X151129538Y-122370000D02*
G75*
G03*
X152674830Y-116820000I462J2990000D01*
G01*
X151130462Y-122370000D02*
G75*
G02*
X149585170Y-116820000I-462J2990000D01*
G01*
X145954648Y-115310312D02*
X143769688Y-113125352D01*
X145551974Y-116028026D02*
G75*
G03*
X145551974Y-116028026I-2500000J0D01*
G01*
X140938050Y-118142602D02*
G75*
G02*
X143769808Y-113125472I2113924J2114576D01*
G01*
X140937398Y-118141950D02*
G75*
G03*
X145954528Y-115310192I2114576J2113924D01*
G01*
X157440000Y-122590000D02*
X157770000Y-122590000D01*
X157440000Y-116170000D02*
X157440000Y-122590000D01*
X157770000Y-116170000D02*
X157440000Y-116170000D01*
X160060000Y-122590000D02*
X159730000Y-122590000D01*
X160060000Y-116170000D02*
X160060000Y-122590000D01*
X159730000Y-116170000D02*
X160060000Y-116170000D01*
D13*
X156205852Y-97913625D02*
X155498745Y-97206519D01*
X155667104Y-97038160D01*
X155801791Y-96970816D01*
X155936478Y-96970816D01*
X156037493Y-97004488D01*
X156205852Y-97105503D01*
X156306867Y-97206519D01*
X156407883Y-97374877D01*
X156441554Y-97475893D01*
X156441554Y-97610580D01*
X156374211Y-97745267D01*
X156205852Y-97913625D01*
X157283348Y-96836129D02*
X156879287Y-97240190D01*
X157081318Y-97038160D02*
X156374211Y-96331053D01*
X156407883Y-96499412D01*
X156407883Y-96634099D01*
X156374211Y-96735114D01*
D14*
X142572619Y-108524523D02*
X142572619Y-107254523D01*
X143298333Y-108524523D02*
X142754047Y-107798809D01*
X143298333Y-107254523D02*
X142572619Y-107980238D01*
X144507857Y-108524523D02*
X143782142Y-108524523D01*
X144145000Y-108524523D02*
X144145000Y-107254523D01*
X144024047Y-107435952D01*
X143903095Y-107556904D01*
X143782142Y-107617380D01*
D13*
X155542380Y-120118095D02*
X154542380Y-120118095D01*
X154542380Y-119880000D01*
X154590000Y-119737142D01*
X154685238Y-119641904D01*
X154780476Y-119594285D01*
X154970952Y-119546666D01*
X155113809Y-119546666D01*
X155304285Y-119594285D01*
X155399523Y-119641904D01*
X155494761Y-119737142D01*
X155542380Y-119880000D01*
X155542380Y-120118095D01*
X154637619Y-119165714D02*
X154590000Y-119118095D01*
X154542380Y-119022857D01*
X154542380Y-118784761D01*
X154590000Y-118689523D01*
X154637619Y-118641904D01*
X154732857Y-118594285D01*
X154828095Y-118594285D01*
X154970952Y-118641904D01*
X155542380Y-119213333D01*
X155542380Y-118594285D01*
X145650086Y-119669961D02*
X144942979Y-118962855D01*
X145111338Y-118794496D01*
X145246025Y-118727152D01*
X145380712Y-118727152D01*
X145481727Y-118760824D01*
X145650086Y-118861839D01*
X145751101Y-118962855D01*
X145852117Y-119131213D01*
X145885788Y-119232229D01*
X145885788Y-119366916D01*
X145818445Y-119501603D01*
X145650086Y-119669961D01*
X145582742Y-118323091D02*
X146020475Y-117885358D01*
X146054147Y-118390435D01*
X146155162Y-118289419D01*
X146256178Y-118255748D01*
X146323521Y-118255748D01*
X146424536Y-118289419D01*
X146592895Y-118457778D01*
X146626567Y-118558793D01*
X146626567Y-118626137D01*
X146592895Y-118727152D01*
X146390865Y-118929183D01*
X146289849Y-118962855D01*
X146222506Y-118962855D01*
X161512380Y-119546666D02*
X161036190Y-119880000D01*
X161512380Y-120118095D02*
X160512380Y-120118095D01*
X160512380Y-119737142D01*
X160560000Y-119641904D01*
X160607619Y-119594285D01*
X160702857Y-119546666D01*
X160845714Y-119546666D01*
X160940952Y-119594285D01*
X160988571Y-119641904D01*
X161036190Y-119737142D01*
X161036190Y-120118095D01*
X161512380Y-118594285D02*
X161512380Y-119165714D01*
X161512380Y-118880000D02*
X160512380Y-118880000D01*
X160655238Y-118975238D01*
X160750476Y-119070476D01*
X160798095Y-119165714D01*
X134286666Y-92162380D02*
X134286666Y-92876666D01*
X134239047Y-93019523D01*
X134143809Y-93114761D01*
X134000952Y-93162380D01*
X133905714Y-93162380D01*
X135286666Y-93162380D02*
X134715238Y-93162380D01*
X135000952Y-93162380D02*
X135000952Y-92162380D01*
X134905714Y-92305238D01*
X134810476Y-92400476D01*
X134715238Y-92448095D01*
X167306666Y-117562380D02*
X167306666Y-118276666D01*
X167259047Y-118419523D01*
X167163809Y-118514761D01*
X167020952Y-118562380D01*
X166925714Y-118562380D01*
X167735238Y-117657619D02*
X167782857Y-117610000D01*
X167878095Y-117562380D01*
X168116190Y-117562380D01*
X168211428Y-117610000D01*
X168259047Y-117657619D01*
X168306666Y-117752857D01*
X168306666Y-117848095D01*
X168259047Y-117990952D01*
X167687619Y-118562380D01*
X168306666Y-118562380D01*
%LPC*%
D15*
X156210000Y-110490000D03*
D16*
X160106051Y-98973949D03*
D12*
G36*
X158310000Y-102042792D02*
G01*
X157037208Y-100770000D01*
X158310000Y-99497208D01*
X159582792Y-100770000D01*
X158310000Y-102042792D01*
G37*
D17*
X153670000Y-97790000D03*
X151130000Y-97790000D03*
X146050000Y-97790000D03*
X140970000Y-97790000D03*
X135890000Y-97790000D03*
X135890000Y-105410000D03*
X140970000Y-105410000D03*
X146050000Y-105410000D03*
X151130000Y-105410000D03*
X153670000Y-105410000D03*
D18*
X151130000Y-118110000D03*
D16*
X151130000Y-120650000D03*
X142153949Y-116926051D03*
D12*
G36*
X143950000Y-113857208D02*
G01*
X145222792Y-115130000D01*
X143950000Y-116402792D01*
X142677208Y-115130000D01*
X143950000Y-113857208D01*
G37*
D19*
X158750000Y-123190000D03*
D20*
X158750000Y-115570000D03*
D21*
X137160000Y-90170000D03*
D22*
X137160000Y-92710000D03*
X167640000Y-113030000D03*
D21*
X165100000Y-113030000D03*
X165100000Y-115570000D03*
D22*
X167640000Y-115570000D03*
D15*
X135890000Y-123190000D03*
M02*
