G04 #@! TF.GenerationSoftware,KiCad,Pcbnew,5.1.10*
G04 #@! TF.CreationDate,2021-05-04T21:35:11+02:00*
G04 #@! TF.ProjectId,Weichensimulator-45links,57656963-6865-46e7-9369-6d756c61746f,rev?*
G04 #@! TF.SameCoordinates,Original*
G04 #@! TF.FileFunction,Legend,Bot*
G04 #@! TF.FilePolarity,Positive*
%FSLAX46Y46*%
G04 Gerber Fmt 4.6, Leading zero omitted, Abs format (unit mm)*
G04 Created by KiCad (PCBNEW 5.1.10) date 2021-05-04 21:35:11*
%MOMM*%
%LPD*%
G01*
G04 APERTURE LIST*
%ADD10C,0.300000*%
%ADD11C,0.120000*%
%ADD12C,3.200000*%
%ADD13C,1.800000*%
%ADD14C,0.100000*%
%ADD15C,1.500000*%
%ADD16R,1.800000X1.800000*%
%ADD17O,1.600000X1.600000*%
%ADD18C,1.600000*%
%ADD19O,1.700000X1.700000*%
%ADD20R,1.700000X1.700000*%
G04 APERTURE END LIST*
D10*
X164350000Y-118237142D02*
X164278571Y-118094285D01*
X164278571Y-117880000D01*
X164350000Y-117665714D01*
X164492857Y-117522857D01*
X164635714Y-117451428D01*
X164921428Y-117380000D01*
X165135714Y-117380000D01*
X165421428Y-117451428D01*
X165564285Y-117522857D01*
X165707142Y-117665714D01*
X165778571Y-117880000D01*
X165778571Y-118022857D01*
X165707142Y-118237142D01*
X165635714Y-118308571D01*
X165135714Y-118308571D01*
X165135714Y-118022857D01*
X165778571Y-118951428D02*
X164278571Y-118951428D01*
X165778571Y-119808571D01*
X164278571Y-119808571D01*
X165778571Y-120522857D02*
X164278571Y-120522857D01*
X164278571Y-120880000D01*
X164350000Y-121094285D01*
X164492857Y-121237142D01*
X164635714Y-121308571D01*
X164921428Y-121380000D01*
X165135714Y-121380000D01*
X165421428Y-121308571D01*
X165564285Y-121237142D01*
X165707142Y-121094285D01*
X165778571Y-120880000D01*
X165778571Y-120522857D01*
X167747142Y-117451428D02*
X167747142Y-118594285D01*
X168318571Y-118022857D02*
X167175714Y-118022857D01*
X166818571Y-120022857D02*
X166818571Y-119308571D01*
X167532857Y-119237142D01*
X167461428Y-119308571D01*
X167390000Y-119451428D01*
X167390000Y-119808571D01*
X167461428Y-119951428D01*
X167532857Y-120022857D01*
X167675714Y-120094285D01*
X168032857Y-120094285D01*
X168175714Y-120022857D01*
X168247142Y-119951428D01*
X168318571Y-119808571D01*
X168318571Y-119451428D01*
X168247142Y-119308571D01*
X168175714Y-119237142D01*
X166818571Y-120522857D02*
X168318571Y-121022857D01*
X166818571Y-121522857D01*
X134370000Y-89812857D02*
X134370000Y-90527142D01*
X133941428Y-89670000D02*
X135441428Y-90170000D01*
X133941428Y-90670000D01*
X135370000Y-92317142D02*
X135441428Y-92460000D01*
X135441428Y-92674285D01*
X135370000Y-92888571D01*
X135227142Y-93031428D01*
X135084285Y-93102857D01*
X134798571Y-93174285D01*
X134584285Y-93174285D01*
X134298571Y-93102857D01*
X134155714Y-93031428D01*
X134012857Y-92888571D01*
X133941428Y-92674285D01*
X133941428Y-92531428D01*
X134012857Y-92317142D01*
X134084285Y-92245714D01*
X134584285Y-92245714D01*
X134584285Y-92531428D01*
X153351428Y-99860714D02*
X153494285Y-99789285D01*
X153780000Y-99789285D01*
X153922857Y-99860714D01*
X154065714Y-100003571D01*
X154137142Y-100146428D01*
X154137142Y-100432142D01*
X154065714Y-100575000D01*
X153922857Y-100717857D01*
X153780000Y-100789285D01*
X153494285Y-100789285D01*
X153351428Y-100717857D01*
X153637142Y-99289285D02*
X153994285Y-99360714D01*
X154351428Y-99575000D01*
X154565714Y-99932142D01*
X154637142Y-100289285D01*
X154565714Y-100646428D01*
X154351428Y-101003571D01*
X153994285Y-101217857D01*
X153637142Y-101289285D01*
X153280000Y-101217857D01*
X152922857Y-101003571D01*
X152708571Y-100646428D01*
X152637142Y-100289285D01*
X152708571Y-99932142D01*
X152922857Y-99575000D01*
X153280000Y-99360714D01*
X153637142Y-99289285D01*
X151994285Y-101003571D02*
X151994285Y-99503571D01*
X151994285Y-100217857D02*
X151137142Y-100217857D01*
X151137142Y-101003571D02*
X151137142Y-99503571D01*
X150565714Y-99503571D02*
X149637142Y-99503571D01*
X150137142Y-100075000D01*
X149922857Y-100075000D01*
X149780000Y-100146428D01*
X149708571Y-100217857D01*
X149637142Y-100360714D01*
X149637142Y-100717857D01*
X149708571Y-100860714D01*
X149780000Y-100932142D01*
X149922857Y-101003571D01*
X150351428Y-101003571D01*
X150494285Y-100932142D01*
X150565714Y-100860714D01*
X148994285Y-100432142D02*
X147851428Y-100432142D01*
X147137142Y-101003571D02*
X147137142Y-99503571D01*
X147137142Y-100217857D02*
X146280000Y-100217857D01*
X146280000Y-101003571D02*
X146280000Y-99503571D01*
X144851428Y-99503571D02*
X145565714Y-99503571D01*
X145637142Y-100217857D01*
X145565714Y-100146428D01*
X145422857Y-100075000D01*
X145065714Y-100075000D01*
X144922857Y-100146428D01*
X144851428Y-100217857D01*
X144780000Y-100360714D01*
X144780000Y-100717857D01*
X144851428Y-100860714D01*
X144922857Y-100932142D01*
X145065714Y-101003571D01*
X145422857Y-101003571D01*
X145565714Y-100932142D01*
X145637142Y-100860714D01*
X144137142Y-101003571D02*
X144137142Y-99503571D01*
X143280000Y-101003571D01*
X143280000Y-99503571D01*
X141922857Y-99503571D02*
X142208571Y-99503571D01*
X142351428Y-99575000D01*
X142422857Y-99646428D01*
X142565714Y-99860714D01*
X142637142Y-100146428D01*
X142637142Y-100717857D01*
X142565714Y-100860714D01*
X142494285Y-100932142D01*
X142351428Y-101003571D01*
X142065714Y-101003571D01*
X141922857Y-100932142D01*
X141851428Y-100860714D01*
X141780000Y-100717857D01*
X141780000Y-100360714D01*
X141851428Y-100217857D01*
X141922857Y-100146428D01*
X142065714Y-100075000D01*
X142351428Y-100075000D01*
X142494285Y-100146428D01*
X142565714Y-100217857D01*
X142637142Y-100360714D01*
X140065714Y-99646428D02*
X139994285Y-99575000D01*
X139851428Y-99503571D01*
X139494285Y-99503571D01*
X139351428Y-99575000D01*
X139280000Y-99646428D01*
X139208571Y-99789285D01*
X139208571Y-99932142D01*
X139280000Y-100146428D01*
X140137142Y-101003571D01*
X139208571Y-101003571D01*
X138280000Y-99503571D02*
X138137142Y-99503571D01*
X137994285Y-99575000D01*
X137922857Y-99646428D01*
X137851428Y-99789285D01*
X137780000Y-100075000D01*
X137780000Y-100432142D01*
X137851428Y-100717857D01*
X137922857Y-100860714D01*
X137994285Y-100932142D01*
X138137142Y-101003571D01*
X138280000Y-101003571D01*
X138422857Y-100932142D01*
X138494285Y-100860714D01*
X138565714Y-100717857D01*
X138637142Y-100432142D01*
X138637142Y-100075000D01*
X138565714Y-99789285D01*
X138494285Y-99646428D01*
X138422857Y-99575000D01*
X138280000Y-99503571D01*
X137208571Y-99646428D02*
X137137142Y-99575000D01*
X136994285Y-99503571D01*
X136637142Y-99503571D01*
X136494285Y-99575000D01*
X136422857Y-99646428D01*
X136351428Y-99789285D01*
X136351428Y-99932142D01*
X136422857Y-100146428D01*
X137280000Y-101003571D01*
X136351428Y-101003571D01*
X134922857Y-101003571D02*
X135780000Y-101003571D01*
X135351428Y-101003571D02*
X135351428Y-99503571D01*
X135494285Y-99717857D01*
X135637142Y-99860714D01*
X135780000Y-99932142D01*
X155422857Y-102053571D02*
X155065714Y-103553571D01*
X154780000Y-102482142D01*
X154494285Y-103553571D01*
X154137142Y-102053571D01*
X152994285Y-103482142D02*
X153137142Y-103553571D01*
X153422857Y-103553571D01*
X153565714Y-103482142D01*
X153637142Y-103339285D01*
X153637142Y-102767857D01*
X153565714Y-102625000D01*
X153422857Y-102553571D01*
X153137142Y-102553571D01*
X152994285Y-102625000D01*
X152922857Y-102767857D01*
X152922857Y-102910714D01*
X153637142Y-103053571D01*
X152280000Y-103553571D02*
X152280000Y-102553571D01*
X152280000Y-102053571D02*
X152351428Y-102125000D01*
X152280000Y-102196428D01*
X152208571Y-102125000D01*
X152280000Y-102053571D01*
X152280000Y-102196428D01*
X150922857Y-103482142D02*
X151065714Y-103553571D01*
X151351428Y-103553571D01*
X151494285Y-103482142D01*
X151565714Y-103410714D01*
X151637142Y-103267857D01*
X151637142Y-102839285D01*
X151565714Y-102696428D01*
X151494285Y-102625000D01*
X151351428Y-102553571D01*
X151065714Y-102553571D01*
X150922857Y-102625000D01*
X150280000Y-103553571D02*
X150280000Y-102053571D01*
X149637142Y-103553571D02*
X149637142Y-102767857D01*
X149708571Y-102625000D01*
X149851428Y-102553571D01*
X150065714Y-102553571D01*
X150208571Y-102625000D01*
X150280000Y-102696428D01*
X148351428Y-103482142D02*
X148494285Y-103553571D01*
X148780000Y-103553571D01*
X148922857Y-103482142D01*
X148994285Y-103339285D01*
X148994285Y-102767857D01*
X148922857Y-102625000D01*
X148780000Y-102553571D01*
X148494285Y-102553571D01*
X148351428Y-102625000D01*
X148280000Y-102767857D01*
X148280000Y-102910714D01*
X148994285Y-103053571D01*
X146280000Y-103553571D02*
X146422857Y-103482142D01*
X146494285Y-103339285D01*
X146494285Y-102053571D01*
X145708571Y-103553571D02*
X145708571Y-102553571D01*
X145708571Y-102053571D02*
X145780000Y-102125000D01*
X145708571Y-102196428D01*
X145637142Y-102125000D01*
X145708571Y-102053571D01*
X145708571Y-102196428D01*
X143922857Y-101982142D02*
X145208571Y-103910714D01*
X142780000Y-102553571D02*
X142780000Y-103553571D01*
X143137142Y-101982142D02*
X143494285Y-103053571D01*
X142565714Y-103053571D01*
X141280000Y-102053571D02*
X141994285Y-102053571D01*
X142065714Y-102767857D01*
X141994285Y-102696428D01*
X141851428Y-102625000D01*
X141494285Y-102625000D01*
X141351428Y-102696428D01*
X141280000Y-102767857D01*
X141208571Y-102910714D01*
X141208571Y-103267857D01*
X141280000Y-103410714D01*
X141351428Y-103482142D01*
X141494285Y-103553571D01*
X141851428Y-103553571D01*
X141994285Y-103482142D01*
X142065714Y-103410714D01*
X140351428Y-102053571D02*
X140494285Y-102125000D01*
X140565714Y-102267857D01*
X140494285Y-102410714D01*
X140351428Y-102482142D01*
X140208571Y-102410714D01*
X140137142Y-102267857D01*
X140208571Y-102125000D01*
X140351428Y-102053571D01*
X138422857Y-102553571D02*
X138065714Y-103553571D01*
X137708571Y-102553571D01*
X136351428Y-103553571D02*
X137208571Y-103553571D01*
X136780000Y-103553571D02*
X136780000Y-102053571D01*
X136922857Y-102267857D01*
X137065714Y-102410714D01*
X137208571Y-102482142D01*
X135708571Y-103410714D02*
X135637142Y-103482142D01*
X135708571Y-103553571D01*
X135780000Y-103482142D01*
X135708571Y-103410714D01*
X135708571Y-103553571D01*
X134708571Y-102053571D02*
X134565714Y-102053571D01*
X134422857Y-102125000D01*
X134351428Y-102196428D01*
X134280000Y-102339285D01*
X134208571Y-102625000D01*
X134208571Y-102982142D01*
X134280000Y-103267857D01*
X134351428Y-103410714D01*
X134422857Y-103482142D01*
X134565714Y-103553571D01*
X134708571Y-103553571D01*
X134851428Y-103482142D01*
X134922857Y-103410714D01*
X134994285Y-103267857D01*
X135065714Y-102982142D01*
X135065714Y-102625000D01*
X134994285Y-102339285D01*
X134922857Y-102196428D01*
X134851428Y-102125000D01*
X134708571Y-102053571D01*
D11*
X135890000Y-93980000D02*
X137160000Y-93980000D01*
X135890000Y-92710000D02*
X135890000Y-93980000D01*
X138202929Y-89790000D02*
X138600000Y-89790000D01*
X138202929Y-90550000D02*
X138600000Y-90550000D01*
X147260000Y-89790000D02*
X141260000Y-89790000D01*
X147260000Y-90550000D02*
X147260000Y-89790000D01*
X141260000Y-90550000D02*
X147260000Y-90550000D01*
X138600000Y-91440000D02*
X141260000Y-91440000D01*
X138270000Y-92330000D02*
X138600000Y-92330000D01*
X138270000Y-93090000D02*
X138600000Y-93090000D01*
X141260000Y-92430000D02*
X147260000Y-92430000D01*
X141260000Y-92550000D02*
X147260000Y-92550000D01*
X141260000Y-92670000D02*
X147260000Y-92670000D01*
X141260000Y-92790000D02*
X147260000Y-92790000D01*
X141260000Y-92910000D02*
X147260000Y-92910000D01*
X141260000Y-93030000D02*
X147260000Y-93030000D01*
X147260000Y-92330000D02*
X141260000Y-92330000D01*
X147260000Y-93090000D02*
X147260000Y-92330000D01*
X141260000Y-93090000D02*
X147260000Y-93090000D01*
X141260000Y-94040000D02*
X138600000Y-94040000D01*
X141260000Y-88840000D02*
X141260000Y-94040000D01*
X138600000Y-88840000D02*
X141260000Y-88840000D01*
X138600000Y-94040000D02*
X138600000Y-88840000D01*
X168970000Y-111590000D02*
X163770000Y-111590000D01*
X163770000Y-111590000D02*
X163770000Y-108930000D01*
X163770000Y-108930000D02*
X168970000Y-108930000D01*
X168970000Y-108930000D02*
X168970000Y-111590000D01*
X168020000Y-108930000D02*
X168020000Y-102930000D01*
X168020000Y-102930000D02*
X167260000Y-102930000D01*
X167260000Y-102930000D02*
X167260000Y-108930000D01*
X167960000Y-108930000D02*
X167960000Y-102930000D01*
X167840000Y-108930000D02*
X167840000Y-102930000D01*
X167720000Y-108930000D02*
X167720000Y-102930000D01*
X167600000Y-108930000D02*
X167600000Y-102930000D01*
X167480000Y-108930000D02*
X167480000Y-102930000D01*
X167360000Y-108930000D02*
X167360000Y-102930000D01*
X168020000Y-111920000D02*
X168020000Y-111590000D01*
X167260000Y-111920000D02*
X167260000Y-111590000D01*
X166370000Y-111590000D02*
X166370000Y-108930000D01*
X165480000Y-108930000D02*
X165480000Y-102930000D01*
X165480000Y-102930000D02*
X164720000Y-102930000D01*
X164720000Y-102930000D02*
X164720000Y-108930000D01*
X165480000Y-111987071D02*
X165480000Y-111590000D01*
X164720000Y-111987071D02*
X164720000Y-111590000D01*
X167640000Y-114300000D02*
X168910000Y-114300000D01*
X168910000Y-114300000D02*
X168910000Y-113030000D01*
X168910000Y-116840000D02*
X168910000Y-115570000D01*
X167640000Y-116840000D02*
X168910000Y-116840000D01*
X164720000Y-114527071D02*
X164720000Y-114130000D01*
X165480000Y-114527071D02*
X165480000Y-114130000D01*
X164720000Y-105470000D02*
X164720000Y-111470000D01*
X165480000Y-105470000D02*
X164720000Y-105470000D01*
X165480000Y-111470000D02*
X165480000Y-105470000D01*
X166370000Y-114130000D02*
X166370000Y-111470000D01*
X167260000Y-114460000D02*
X167260000Y-114130000D01*
X168020000Y-114460000D02*
X168020000Y-114130000D01*
X167360000Y-111470000D02*
X167360000Y-105470000D01*
X167480000Y-111470000D02*
X167480000Y-105470000D01*
X167600000Y-111470000D02*
X167600000Y-105470000D01*
X167720000Y-111470000D02*
X167720000Y-105470000D01*
X167840000Y-111470000D02*
X167840000Y-105470000D01*
X167960000Y-111470000D02*
X167960000Y-105470000D01*
X167260000Y-105470000D02*
X167260000Y-111470000D01*
X168020000Y-105470000D02*
X167260000Y-105470000D01*
X168020000Y-111470000D02*
X168020000Y-105470000D01*
X168970000Y-111470000D02*
X168970000Y-114130000D01*
X163770000Y-111470000D02*
X168970000Y-111470000D01*
X163770000Y-114130000D02*
X163770000Y-111470000D01*
X168970000Y-114130000D02*
X163770000Y-114130000D01*
%LPC*%
D12*
X156210000Y-110490000D03*
D13*
X160106051Y-98973949D03*
D14*
G36*
X158310000Y-102042792D02*
G01*
X157037208Y-100770000D01*
X158310000Y-99497208D01*
X159582792Y-100770000D01*
X158310000Y-102042792D01*
G37*
D15*
X153670000Y-97790000D03*
X151130000Y-97790000D03*
X146050000Y-97790000D03*
X140970000Y-97790000D03*
X135890000Y-97790000D03*
X135890000Y-105410000D03*
X140970000Y-105410000D03*
X146050000Y-105410000D03*
X151130000Y-105410000D03*
X153670000Y-105410000D03*
D16*
X151130000Y-118110000D03*
D13*
X151130000Y-120650000D03*
X142153949Y-116926051D03*
D14*
G36*
X143950000Y-113857208D02*
G01*
X145222792Y-115130000D01*
X143950000Y-116402792D01*
X142677208Y-115130000D01*
X143950000Y-113857208D01*
G37*
D17*
X158750000Y-123190000D03*
D18*
X158750000Y-115570000D03*
D19*
X137160000Y-90170000D03*
D20*
X137160000Y-92710000D03*
X167640000Y-113030000D03*
D19*
X165100000Y-113030000D03*
X165100000Y-115570000D03*
D20*
X167640000Y-115570000D03*
D12*
X135890000Y-123190000D03*
M02*
