%FSLAX45Y45*%
G04 Gerber Fmt 4.5, Leading zero omitted, Abs format (unit mm)*
G04 Created by KiCad (PCBNEW 5.1.10) date 2021-05-04 21:35:37*
%MOMM*%
%LPD*%
G01*
G04 APERTURE LIST*
%TA.AperFunction,Profile*%
%ADD10C,0.050000*%
%TD*%
%ADD11C,0.200000*%
%ADD12C,0.300000*%
G04 APERTURE END LIST*
D10*
X13208000Y-9017000D02*
G75*
G02*
X13335000Y-8890000I127000J0D01*
G01*
X13335000Y-12700000D02*
G75*
G02*
X13208000Y-12573000I0J127000D01*
G01*
X17018000Y-12573000D02*
G75*
G02*
X16891000Y-12700000I-127000J0D01*
G01*
X16891000Y-8890000D02*
G75*
G02*
X17018000Y-9017000I0J-127000D01*
G01*
X13335000Y-8890000D02*
X16891000Y-8890000D01*
X13208000Y-12573000D02*
X13208000Y-9017000D01*
X16891000Y-12700000D02*
X13335000Y-12700000D01*
X17018000Y-9017000D02*
X17018000Y-12573000D01*
D11*
X13429000Y-12159000D02*
X13749000Y-12479000D01*
X13749000Y-12159000D02*
X13429000Y-12479000D01*
X15461000Y-10889000D02*
X15781000Y-11209000D01*
X15781000Y-10889000D02*
X15461000Y-11209000D01*
D12*
X13491928Y-13168214D02*
X13491928Y-12868214D01*
X13563357Y-12868214D01*
X13606214Y-12882500D01*
X13634786Y-12911071D01*
X13649071Y-12939643D01*
X13663357Y-12996786D01*
X13663357Y-13039643D01*
X13649071Y-13096786D01*
X13634786Y-13125357D01*
X13606214Y-13153929D01*
X13563357Y-13168214D01*
X13491928Y-13168214D01*
X13791928Y-13168214D02*
X13791928Y-12968214D01*
X13791928Y-13025357D02*
X13806214Y-12996786D01*
X13820500Y-12982500D01*
X13849071Y-12968214D01*
X13877643Y-12968214D01*
X13977643Y-13168214D02*
X13977643Y-12968214D01*
X13977643Y-12868214D02*
X13963357Y-12882500D01*
X13977643Y-12896786D01*
X13991928Y-12882500D01*
X13977643Y-12868214D01*
X13977643Y-12896786D01*
X14163357Y-13168214D02*
X14134786Y-13153929D01*
X14120500Y-13125357D01*
X14120500Y-12868214D01*
X14320500Y-13168214D02*
X14291928Y-13153929D01*
X14277643Y-13125357D01*
X14277643Y-12868214D01*
X14663357Y-13168214D02*
X14663357Y-12868214D01*
X14763357Y-13082500D01*
X14863357Y-12868214D01*
X14863357Y-13168214D01*
X15134786Y-13168214D02*
X15134786Y-13011071D01*
X15120500Y-12982500D01*
X15091928Y-12968214D01*
X15034786Y-12968214D01*
X15006214Y-12982500D01*
X15134786Y-13153929D02*
X15106214Y-13168214D01*
X15034786Y-13168214D01*
X15006214Y-13153929D01*
X14991928Y-13125357D01*
X14991928Y-13096786D01*
X15006214Y-13068214D01*
X15034786Y-13053929D01*
X15106214Y-13053929D01*
X15134786Y-13039643D01*
X15277643Y-12968214D02*
X15277643Y-13268214D01*
X15277643Y-12982500D02*
X15306214Y-12968214D01*
X15363357Y-12968214D01*
X15391928Y-12982500D01*
X15406214Y-12996786D01*
X15420500Y-13025357D01*
X15420500Y-13111071D01*
X15406214Y-13139643D01*
X15391928Y-13153929D01*
X15363357Y-13168214D01*
X15306214Y-13168214D01*
X15277643Y-13153929D01*
X15549071Y-13139643D02*
X15563357Y-13153929D01*
X15549071Y-13168214D01*
X15534786Y-13153929D01*
X15549071Y-13139643D01*
X15549071Y-13168214D01*
X15549071Y-12982500D02*
X15563357Y-12996786D01*
X15549071Y-13011071D01*
X15534786Y-12996786D01*
X15549071Y-12982500D01*
X15549071Y-13011071D01*
X12885500Y-13502500D02*
X13205500Y-13822500D01*
X13205500Y-13502500D02*
X12885500Y-13822500D01*
X13463357Y-13498214D02*
X13649071Y-13498214D01*
X13549071Y-13612500D01*
X13591928Y-13612500D01*
X13620500Y-13626786D01*
X13634786Y-13641071D01*
X13649071Y-13669643D01*
X13649071Y-13741071D01*
X13634786Y-13769643D01*
X13620500Y-13783929D01*
X13591928Y-13798214D01*
X13506214Y-13798214D01*
X13477643Y-13783929D01*
X13463357Y-13769643D01*
X13777643Y-13769643D02*
X13791928Y-13783929D01*
X13777643Y-13798214D01*
X13763357Y-13783929D01*
X13777643Y-13769643D01*
X13777643Y-13798214D01*
X13906214Y-13526786D02*
X13920500Y-13512500D01*
X13949071Y-13498214D01*
X14020500Y-13498214D01*
X14049071Y-13512500D01*
X14063357Y-13526786D01*
X14077643Y-13555357D01*
X14077643Y-13583929D01*
X14063357Y-13626786D01*
X13891928Y-13798214D01*
X14077643Y-13798214D01*
X14263357Y-13498214D02*
X14291928Y-13498214D01*
X14320500Y-13512500D01*
X14334786Y-13526786D01*
X14349071Y-13555357D01*
X14363357Y-13612500D01*
X14363357Y-13683929D01*
X14349071Y-13741071D01*
X14334786Y-13769643D01*
X14320500Y-13783929D01*
X14291928Y-13798214D01*
X14263357Y-13798214D01*
X14234786Y-13783929D01*
X14220500Y-13769643D01*
X14206214Y-13741071D01*
X14191928Y-13683929D01*
X14191928Y-13612500D01*
X14206214Y-13555357D01*
X14220500Y-13526786D01*
X14234786Y-13512500D01*
X14263357Y-13498214D01*
X14549071Y-13498214D02*
X14577643Y-13498214D01*
X14606214Y-13512500D01*
X14620500Y-13526786D01*
X14634786Y-13555357D01*
X14649071Y-13612500D01*
X14649071Y-13683929D01*
X14634786Y-13741071D01*
X14620500Y-13769643D01*
X14606214Y-13783929D01*
X14577643Y-13798214D01*
X14549071Y-13798214D01*
X14520500Y-13783929D01*
X14506214Y-13769643D01*
X14491928Y-13741071D01*
X14477643Y-13683929D01*
X14477643Y-13612500D01*
X14491928Y-13555357D01*
X14506214Y-13526786D01*
X14520500Y-13512500D01*
X14549071Y-13498214D01*
X14777643Y-13798214D02*
X14777643Y-13598214D01*
X14777643Y-13626786D02*
X14791928Y-13612500D01*
X14820500Y-13598214D01*
X14863357Y-13598214D01*
X14891928Y-13612500D01*
X14906214Y-13641071D01*
X14906214Y-13798214D01*
X14906214Y-13641071D02*
X14920500Y-13612500D01*
X14949071Y-13598214D01*
X14991928Y-13598214D01*
X15020500Y-13612500D01*
X15034786Y-13641071D01*
X15034786Y-13798214D01*
X15177643Y-13798214D02*
X15177643Y-13598214D01*
X15177643Y-13626786D02*
X15191928Y-13612500D01*
X15220500Y-13598214D01*
X15263357Y-13598214D01*
X15291928Y-13612500D01*
X15306214Y-13641071D01*
X15306214Y-13798214D01*
X15306214Y-13641071D02*
X15320500Y-13612500D01*
X15349071Y-13598214D01*
X15391928Y-13598214D01*
X15420500Y-13612500D01*
X15434786Y-13641071D01*
X15434786Y-13798214D01*
X16020500Y-13483929D02*
X15763357Y-13869643D01*
X16406214Y-13498214D02*
X16434786Y-13498214D01*
X16463357Y-13512500D01*
X16477643Y-13526786D01*
X16491928Y-13555357D01*
X16506214Y-13612500D01*
X16506214Y-13683929D01*
X16491928Y-13741071D01*
X16477643Y-13769643D01*
X16463357Y-13783929D01*
X16434786Y-13798214D01*
X16406214Y-13798214D01*
X16377643Y-13783929D01*
X16363357Y-13769643D01*
X16349071Y-13741071D01*
X16334786Y-13683929D01*
X16334786Y-13612500D01*
X16349071Y-13555357D01*
X16363357Y-13526786D01*
X16377643Y-13512500D01*
X16406214Y-13498214D01*
X16634786Y-13769643D02*
X16649071Y-13783929D01*
X16634786Y-13798214D01*
X16620500Y-13783929D01*
X16634786Y-13769643D01*
X16634786Y-13798214D01*
X16934786Y-13798214D02*
X16763357Y-13798214D01*
X16849071Y-13798214D02*
X16849071Y-13498214D01*
X16820500Y-13541071D01*
X16791928Y-13569643D01*
X16763357Y-13583929D01*
X17049071Y-13526786D02*
X17063357Y-13512500D01*
X17091928Y-13498214D01*
X17163357Y-13498214D01*
X17191928Y-13512500D01*
X17206214Y-13526786D01*
X17220500Y-13555357D01*
X17220500Y-13583929D01*
X17206214Y-13626786D01*
X17034786Y-13798214D01*
X17220500Y-13798214D01*
X17477643Y-13498214D02*
X17420500Y-13498214D01*
X17391928Y-13512500D01*
X17377643Y-13526786D01*
X17349071Y-13569643D01*
X17334786Y-13626786D01*
X17334786Y-13741071D01*
X17349071Y-13769643D01*
X17363357Y-13783929D01*
X17391928Y-13798214D01*
X17449071Y-13798214D01*
X17477643Y-13783929D01*
X17491928Y-13769643D01*
X17506214Y-13741071D01*
X17506214Y-13669643D01*
X17491928Y-13641071D01*
X17477643Y-13626786D01*
X17449071Y-13612500D01*
X17391928Y-13612500D01*
X17363357Y-13626786D01*
X17349071Y-13641071D01*
X17334786Y-13669643D01*
X17691928Y-13498214D02*
X17720500Y-13498214D01*
X17749071Y-13512500D01*
X17763357Y-13526786D01*
X17777643Y-13555357D01*
X17791928Y-13612500D01*
X17791928Y-13683929D01*
X17777643Y-13741071D01*
X17763357Y-13769643D01*
X17749071Y-13783929D01*
X17720500Y-13798214D01*
X17691928Y-13798214D01*
X17663357Y-13783929D01*
X17649071Y-13769643D01*
X17634786Y-13741071D01*
X17620500Y-13683929D01*
X17620500Y-13612500D01*
X17634786Y-13555357D01*
X17649071Y-13526786D01*
X17663357Y-13512500D01*
X17691928Y-13498214D01*
X17906214Y-13498214D02*
X17906214Y-13555357D01*
X18020500Y-13498214D02*
X18020500Y-13555357D01*
X18463357Y-13912500D02*
X18449071Y-13898214D01*
X18420500Y-13855357D01*
X18406214Y-13826786D01*
X18391928Y-13783929D01*
X18377643Y-13712500D01*
X18377643Y-13655357D01*
X18391928Y-13583929D01*
X18406214Y-13541071D01*
X18420500Y-13512500D01*
X18449071Y-13469643D01*
X18463357Y-13455357D01*
X18563357Y-13526786D02*
X18577643Y-13512500D01*
X18606214Y-13498214D01*
X18677643Y-13498214D01*
X18706214Y-13512500D01*
X18720500Y-13526786D01*
X18734786Y-13555357D01*
X18734786Y-13583929D01*
X18720500Y-13626786D01*
X18549071Y-13798214D01*
X18734786Y-13798214D01*
X19091928Y-13798214D02*
X19091928Y-13498214D01*
X19220500Y-13798214D02*
X19220500Y-13641071D01*
X19206214Y-13612500D01*
X19177643Y-13598214D01*
X19134786Y-13598214D01*
X19106214Y-13612500D01*
X19091928Y-13626786D01*
X19406214Y-13798214D02*
X19377643Y-13783929D01*
X19363357Y-13769643D01*
X19349071Y-13741071D01*
X19349071Y-13655357D01*
X19363357Y-13626786D01*
X19377643Y-13612500D01*
X19406214Y-13598214D01*
X19449071Y-13598214D01*
X19477643Y-13612500D01*
X19491928Y-13626786D01*
X19506214Y-13655357D01*
X19506214Y-13741071D01*
X19491928Y-13769643D01*
X19477643Y-13783929D01*
X19449071Y-13798214D01*
X19406214Y-13798214D01*
X19677643Y-13798214D02*
X19649071Y-13783929D01*
X19634786Y-13755357D01*
X19634786Y-13498214D01*
X19906214Y-13783929D02*
X19877643Y-13798214D01*
X19820500Y-13798214D01*
X19791928Y-13783929D01*
X19777643Y-13755357D01*
X19777643Y-13641071D01*
X19791928Y-13612500D01*
X19820500Y-13598214D01*
X19877643Y-13598214D01*
X19906214Y-13612500D01*
X19920500Y-13641071D01*
X19920500Y-13669643D01*
X19777643Y-13698214D01*
X20034786Y-13783929D02*
X20063357Y-13798214D01*
X20120500Y-13798214D01*
X20149071Y-13783929D01*
X20163357Y-13755357D01*
X20163357Y-13741071D01*
X20149071Y-13712500D01*
X20120500Y-13698214D01*
X20077643Y-13698214D01*
X20049071Y-13683929D01*
X20034786Y-13655357D01*
X20034786Y-13641071D01*
X20049071Y-13612500D01*
X20077643Y-13598214D01*
X20120500Y-13598214D01*
X20149071Y-13612500D01*
X20263357Y-13912500D02*
X20277643Y-13898214D01*
X20306214Y-13855357D01*
X20320500Y-13826786D01*
X20334786Y-13783929D01*
X20349071Y-13712500D01*
X20349071Y-13655357D01*
X20334786Y-13583929D01*
X20320500Y-13541071D01*
X20306214Y-13512500D01*
X20277643Y-13469643D01*
X20263357Y-13455357D01*
X20806214Y-13912500D02*
X20791928Y-13898214D01*
X20763357Y-13855357D01*
X20749071Y-13826786D01*
X20734786Y-13783929D01*
X20720500Y-13712500D01*
X20720500Y-13655357D01*
X20734786Y-13583929D01*
X20749071Y-13541071D01*
X20763357Y-13512500D01*
X20791928Y-13469643D01*
X20806214Y-13455357D01*
X20920500Y-13598214D02*
X20920500Y-13798214D01*
X20920500Y-13626786D02*
X20934786Y-13612500D01*
X20963357Y-13598214D01*
X21006214Y-13598214D01*
X21034786Y-13612500D01*
X21049071Y-13641071D01*
X21049071Y-13798214D01*
X21234786Y-13798214D02*
X21206214Y-13783929D01*
X21191928Y-13769643D01*
X21177643Y-13741071D01*
X21177643Y-13655357D01*
X21191928Y-13626786D01*
X21206214Y-13612500D01*
X21234786Y-13598214D01*
X21277643Y-13598214D01*
X21306214Y-13612500D01*
X21320500Y-13626786D01*
X21334786Y-13655357D01*
X21334786Y-13741071D01*
X21320500Y-13769643D01*
X21306214Y-13783929D01*
X21277643Y-13798214D01*
X21234786Y-13798214D01*
X21420500Y-13598214D02*
X21534786Y-13598214D01*
X21463357Y-13498214D02*
X21463357Y-13755357D01*
X21477643Y-13783929D01*
X21506214Y-13798214D01*
X21534786Y-13798214D01*
X21863357Y-13598214D02*
X21863357Y-13898214D01*
X21863357Y-13612500D02*
X21891928Y-13598214D01*
X21949071Y-13598214D01*
X21977643Y-13612500D01*
X21991928Y-13626786D01*
X22006214Y-13655357D01*
X22006214Y-13741071D01*
X21991928Y-13769643D01*
X21977643Y-13783929D01*
X21949071Y-13798214D01*
X21891928Y-13798214D01*
X21863357Y-13783929D01*
X22177643Y-13798214D02*
X22149071Y-13783929D01*
X22134786Y-13755357D01*
X22134786Y-13498214D01*
X22420500Y-13798214D02*
X22420500Y-13641071D01*
X22406214Y-13612500D01*
X22377643Y-13598214D01*
X22320500Y-13598214D01*
X22291928Y-13612500D01*
X22420500Y-13783929D02*
X22391928Y-13798214D01*
X22320500Y-13798214D01*
X22291928Y-13783929D01*
X22277643Y-13755357D01*
X22277643Y-13726786D01*
X22291928Y-13698214D01*
X22320500Y-13683929D01*
X22391928Y-13683929D01*
X22420500Y-13669643D01*
X22520500Y-13598214D02*
X22634786Y-13598214D01*
X22563357Y-13498214D02*
X22563357Y-13755357D01*
X22577643Y-13783929D01*
X22606214Y-13798214D01*
X22634786Y-13798214D01*
X22849071Y-13783929D02*
X22820500Y-13798214D01*
X22763357Y-13798214D01*
X22734786Y-13783929D01*
X22720500Y-13755357D01*
X22720500Y-13641071D01*
X22734786Y-13612500D01*
X22763357Y-13598214D01*
X22820500Y-13598214D01*
X22849071Y-13612500D01*
X22863357Y-13641071D01*
X22863357Y-13669643D01*
X22720500Y-13698214D01*
X23120500Y-13798214D02*
X23120500Y-13498214D01*
X23120500Y-13783929D02*
X23091928Y-13798214D01*
X23034786Y-13798214D01*
X23006214Y-13783929D01*
X22991928Y-13769643D01*
X22977643Y-13741071D01*
X22977643Y-13655357D01*
X22991928Y-13626786D01*
X23006214Y-13612500D01*
X23034786Y-13598214D01*
X23091928Y-13598214D01*
X23120500Y-13612500D01*
X23234786Y-13912500D02*
X23249071Y-13898214D01*
X23277643Y-13855357D01*
X23291928Y-13826786D01*
X23306214Y-13783929D01*
X23320500Y-13712500D01*
X23320500Y-13655357D01*
X23306214Y-13583929D01*
X23291928Y-13541071D01*
X23277643Y-13512500D01*
X23249071Y-13469643D01*
X23234786Y-13455357D01*
M02*
