M48
; DRILL file {KiCad 5.1.10} date Tue May  4 21:10:47 2021
; FORMAT={-:-/ absolute / metric / decimal}
; #@! TF.CreationDate,2021-05-04T21:10:47+02:00
; #@! TF.GenerationSoftware,Kicad,Pcbnew,5.1.10
; #@! TF.FileFunction,Plated,1,2,PTH
FMAT,2
METRIC
T1C0.800
T2C0.900
T3C1.000
%
G90
G05
T1
X128.27Y-99.06
X135.89Y-99.06
T2
X121.92Y-106.68
X124.46Y-106.68
X141.8Y-99.5
X143.596Y-97.704
X144.78Y-106.68
X147.32Y-106.68
T3
X116.84Y-121.92
X119.38Y-121.92
X125.73Y-114.3
X125.73Y-121.92
X128.27Y-114.3
X128.27Y-121.92
X133.35Y-114.3
X133.35Y-121.92
X138.43Y-114.3
X138.43Y-121.92
X139.7Y-88.9
X139.7Y-91.44
X142.24Y-88.9
X142.24Y-91.44
X143.51Y-114.3
X143.51Y-121.92
T0
M30
