G04 #@! TF.GenerationSoftware,KiCad,Pcbnew,5.1.10*
G04 #@! TF.CreationDate,2021-05-04T21:09:51+02:00*
G04 #@! TF.ProjectId,Weichensimulator-links,57656963-6865-46e7-9369-6d756c61746f,rev?*
G04 #@! TF.SameCoordinates,Original*
G04 #@! TF.FileFunction,Legend,Bot*
G04 #@! TF.FilePolarity,Positive*
%FSLAX46Y46*%
G04 Gerber Fmt 4.6, Leading zero omitted, Abs format (unit mm)*
G04 Created by KiCad (PCBNEW 5.1.10) date 2021-05-04 21:09:51*
%MOMM*%
%LPD*%
G01*
G04 APERTURE LIST*
%ADD10C,0.300000*%
%ADD11C,0.150000*%
%ADD12C,0.120000*%
%ADD13C,3.200000*%
%ADD14C,1.500000*%
%ADD15C,1.800000*%
%ADD16R,1.800000X1.800000*%
%ADD17C,0.100000*%
%ADD18O,1.600000X1.600000*%
%ADD19C,1.600000*%
%ADD20O,1.700000X1.700000*%
%ADD21R,1.700000X1.700000*%
G04 APERTURE END LIST*
D10*
X119737142Y-124710000D02*
X119022857Y-124710000D01*
X119880000Y-125138571D02*
X119380000Y-123638571D01*
X118880000Y-125138571D01*
X116447142Y-123710000D02*
X116590000Y-123638571D01*
X116804285Y-123638571D01*
X117018571Y-123710000D01*
X117161428Y-123852857D01*
X117232857Y-123995714D01*
X117304285Y-124281428D01*
X117304285Y-124495714D01*
X117232857Y-124781428D01*
X117161428Y-124924285D01*
X117018571Y-125067142D01*
X116804285Y-125138571D01*
X116661428Y-125138571D01*
X116447142Y-125067142D01*
X116375714Y-124995714D01*
X116375714Y-124495714D01*
X116661428Y-124495714D01*
X147192857Y-90690000D02*
X147335714Y-90618571D01*
X147550000Y-90618571D01*
X147764285Y-90690000D01*
X147907142Y-90832857D01*
X147978571Y-90975714D01*
X148050000Y-91261428D01*
X148050000Y-91475714D01*
X147978571Y-91761428D01*
X147907142Y-91904285D01*
X147764285Y-92047142D01*
X147550000Y-92118571D01*
X147407142Y-92118571D01*
X147192857Y-92047142D01*
X147121428Y-91975714D01*
X147121428Y-91475714D01*
X147407142Y-91475714D01*
X146478571Y-92118571D02*
X146478571Y-90618571D01*
X145621428Y-92118571D01*
X145621428Y-90618571D01*
X144907142Y-92118571D02*
X144907142Y-90618571D01*
X144550000Y-90618571D01*
X144335714Y-90690000D01*
X144192857Y-90832857D01*
X144121428Y-90975714D01*
X144050000Y-91261428D01*
X144050000Y-91475714D01*
X144121428Y-91761428D01*
X144192857Y-91904285D01*
X144335714Y-92047142D01*
X144550000Y-92118571D01*
X144907142Y-92118571D01*
X147978571Y-89007142D02*
X146835714Y-89007142D01*
X147407142Y-89578571D02*
X147407142Y-88435714D01*
X145407142Y-88078571D02*
X146121428Y-88078571D01*
X146192857Y-88792857D01*
X146121428Y-88721428D01*
X145978571Y-88650000D01*
X145621428Y-88650000D01*
X145478571Y-88721428D01*
X145407142Y-88792857D01*
X145335714Y-88935714D01*
X145335714Y-89292857D01*
X145407142Y-89435714D01*
X145478571Y-89507142D01*
X145621428Y-89578571D01*
X145978571Y-89578571D01*
X146121428Y-89507142D01*
X146192857Y-89435714D01*
X144907142Y-88078571D02*
X144407142Y-89578571D01*
X143907142Y-88078571D01*
D11*
X141604285Y-116975476D02*
X141699523Y-116927857D01*
X141890000Y-116927857D01*
X141985238Y-116975476D01*
X142080476Y-117070714D01*
X142128095Y-117165952D01*
X142128095Y-117356428D01*
X142080476Y-117451666D01*
X141985238Y-117546904D01*
X141890000Y-117594523D01*
X141699523Y-117594523D01*
X141604285Y-117546904D01*
X141794761Y-116594523D02*
X142032857Y-116642142D01*
X142270952Y-116785000D01*
X142413809Y-117023095D01*
X142461428Y-117261190D01*
X142413809Y-117499285D01*
X142270952Y-117737380D01*
X142032857Y-117880238D01*
X141794761Y-117927857D01*
X141556666Y-117880238D01*
X141318571Y-117737380D01*
X141175714Y-117499285D01*
X141128095Y-117261190D01*
X141175714Y-117023095D01*
X141318571Y-116785000D01*
X141556666Y-116642142D01*
X141794761Y-116594523D01*
X140699523Y-117737380D02*
X140699523Y-116737380D01*
X140699523Y-117213571D02*
X140128095Y-117213571D01*
X140128095Y-117737380D02*
X140128095Y-116737380D01*
X139747142Y-116737380D02*
X139128095Y-116737380D01*
X139461428Y-117118333D01*
X139318571Y-117118333D01*
X139223333Y-117165952D01*
X139175714Y-117213571D01*
X139128095Y-117308809D01*
X139128095Y-117546904D01*
X139175714Y-117642142D01*
X139223333Y-117689761D01*
X139318571Y-117737380D01*
X139604285Y-117737380D01*
X139699523Y-117689761D01*
X139747142Y-117642142D01*
X138699523Y-117356428D02*
X137937619Y-117356428D01*
X137461428Y-117737380D02*
X137461428Y-116737380D01*
X137461428Y-117213571D02*
X136890000Y-117213571D01*
X136890000Y-117737380D02*
X136890000Y-116737380D01*
X135937619Y-116737380D02*
X136413809Y-116737380D01*
X136461428Y-117213571D01*
X136413809Y-117165952D01*
X136318571Y-117118333D01*
X136080476Y-117118333D01*
X135985238Y-117165952D01*
X135937619Y-117213571D01*
X135890000Y-117308809D01*
X135890000Y-117546904D01*
X135937619Y-117642142D01*
X135985238Y-117689761D01*
X136080476Y-117737380D01*
X136318571Y-117737380D01*
X136413809Y-117689761D01*
X136461428Y-117642142D01*
X135461428Y-117737380D02*
X135461428Y-116737380D01*
X134890000Y-117737380D01*
X134890000Y-116737380D01*
X133985238Y-116737380D02*
X134175714Y-116737380D01*
X134270952Y-116785000D01*
X134318571Y-116832619D01*
X134413809Y-116975476D01*
X134461428Y-117165952D01*
X134461428Y-117546904D01*
X134413809Y-117642142D01*
X134366190Y-117689761D01*
X134270952Y-117737380D01*
X134080476Y-117737380D01*
X133985238Y-117689761D01*
X133937619Y-117642142D01*
X133890000Y-117546904D01*
X133890000Y-117308809D01*
X133937619Y-117213571D01*
X133985238Y-117165952D01*
X134080476Y-117118333D01*
X134270952Y-117118333D01*
X134366190Y-117165952D01*
X134413809Y-117213571D01*
X134461428Y-117308809D01*
X132747142Y-116832619D02*
X132699523Y-116785000D01*
X132604285Y-116737380D01*
X132366190Y-116737380D01*
X132270952Y-116785000D01*
X132223333Y-116832619D01*
X132175714Y-116927857D01*
X132175714Y-117023095D01*
X132223333Y-117165952D01*
X132794761Y-117737380D01*
X132175714Y-117737380D01*
X131556666Y-116737380D02*
X131461428Y-116737380D01*
X131366190Y-116785000D01*
X131318571Y-116832619D01*
X131270952Y-116927857D01*
X131223333Y-117118333D01*
X131223333Y-117356428D01*
X131270952Y-117546904D01*
X131318571Y-117642142D01*
X131366190Y-117689761D01*
X131461428Y-117737380D01*
X131556666Y-117737380D01*
X131651904Y-117689761D01*
X131699523Y-117642142D01*
X131747142Y-117546904D01*
X131794761Y-117356428D01*
X131794761Y-117118333D01*
X131747142Y-116927857D01*
X131699523Y-116832619D01*
X131651904Y-116785000D01*
X131556666Y-116737380D01*
X130842380Y-116832619D02*
X130794761Y-116785000D01*
X130699523Y-116737380D01*
X130461428Y-116737380D01*
X130366190Y-116785000D01*
X130318571Y-116832619D01*
X130270952Y-116927857D01*
X130270952Y-117023095D01*
X130318571Y-117165952D01*
X130890000Y-117737380D01*
X130270952Y-117737380D01*
X129318571Y-117737380D02*
X129890000Y-117737380D01*
X129604285Y-117737380D02*
X129604285Y-116737380D01*
X129699523Y-116880238D01*
X129794761Y-116975476D01*
X129890000Y-117023095D01*
X141128095Y-118387380D02*
X140890000Y-119387380D01*
X140699523Y-118673095D01*
X140509047Y-119387380D01*
X140270952Y-118387380D01*
X139509047Y-119339761D02*
X139604285Y-119387380D01*
X139794761Y-119387380D01*
X139890000Y-119339761D01*
X139937619Y-119244523D01*
X139937619Y-118863571D01*
X139890000Y-118768333D01*
X139794761Y-118720714D01*
X139604285Y-118720714D01*
X139509047Y-118768333D01*
X139461428Y-118863571D01*
X139461428Y-118958809D01*
X139937619Y-119054047D01*
X139032857Y-119387380D02*
X139032857Y-118720714D01*
X139032857Y-118387380D02*
X139080476Y-118435000D01*
X139032857Y-118482619D01*
X138985238Y-118435000D01*
X139032857Y-118387380D01*
X139032857Y-118482619D01*
X138128095Y-119339761D02*
X138223333Y-119387380D01*
X138413809Y-119387380D01*
X138509047Y-119339761D01*
X138556666Y-119292142D01*
X138604285Y-119196904D01*
X138604285Y-118911190D01*
X138556666Y-118815952D01*
X138509047Y-118768333D01*
X138413809Y-118720714D01*
X138223333Y-118720714D01*
X138128095Y-118768333D01*
X137699523Y-119387380D02*
X137699523Y-118387380D01*
X137270952Y-119387380D02*
X137270952Y-118863571D01*
X137318571Y-118768333D01*
X137413809Y-118720714D01*
X137556666Y-118720714D01*
X137651904Y-118768333D01*
X137699523Y-118815952D01*
X136413809Y-119339761D02*
X136509047Y-119387380D01*
X136699523Y-119387380D01*
X136794761Y-119339761D01*
X136842380Y-119244523D01*
X136842380Y-118863571D01*
X136794761Y-118768333D01*
X136699523Y-118720714D01*
X136509047Y-118720714D01*
X136413809Y-118768333D01*
X136366190Y-118863571D01*
X136366190Y-118958809D01*
X136842380Y-119054047D01*
X135032857Y-119387380D02*
X135128095Y-119339761D01*
X135175714Y-119244523D01*
X135175714Y-118387380D01*
X134651904Y-119387380D02*
X134651904Y-118720714D01*
X134651904Y-118387380D02*
X134699523Y-118435000D01*
X134651904Y-118482619D01*
X134604285Y-118435000D01*
X134651904Y-118387380D01*
X134651904Y-118482619D01*
X133509047Y-118720714D02*
X133270952Y-119387380D01*
X133032857Y-118720714D01*
X132128095Y-119387380D02*
X132699523Y-119387380D01*
X132413809Y-119387380D02*
X132413809Y-118387380D01*
X132509047Y-118530238D01*
X132604285Y-118625476D01*
X132699523Y-118673095D01*
X131699523Y-119292142D02*
X131651904Y-119339761D01*
X131699523Y-119387380D01*
X131747142Y-119339761D01*
X131699523Y-119292142D01*
X131699523Y-119387380D01*
X131032857Y-118387380D02*
X130937619Y-118387380D01*
X130842380Y-118435000D01*
X130794761Y-118482619D01*
X130747142Y-118577857D01*
X130699523Y-118768333D01*
X130699523Y-119006428D01*
X130747142Y-119196904D01*
X130794761Y-119292142D01*
X130842380Y-119339761D01*
X130937619Y-119387380D01*
X131032857Y-119387380D01*
X131128095Y-119339761D01*
X131175714Y-119292142D01*
X131223333Y-119196904D01*
X131270952Y-119006428D01*
X131270952Y-118768333D01*
X131223333Y-118577857D01*
X131175714Y-118482619D01*
X131128095Y-118435000D01*
X131032857Y-118387380D01*
D12*
X120650000Y-123190000D02*
X120650000Y-121920000D01*
X119380000Y-123190000D02*
X120650000Y-123190000D01*
X116460000Y-120877071D02*
X116460000Y-120480000D01*
X117220000Y-120877071D02*
X117220000Y-120480000D01*
X116460000Y-111820000D02*
X116460000Y-117820000D01*
X117220000Y-111820000D02*
X116460000Y-111820000D01*
X117220000Y-117820000D02*
X117220000Y-111820000D01*
X118110000Y-120480000D02*
X118110000Y-117820000D01*
X119000000Y-120810000D02*
X119000000Y-120480000D01*
X119760000Y-120810000D02*
X119760000Y-120480000D01*
X119100000Y-117820000D02*
X119100000Y-111820000D01*
X119220000Y-117820000D02*
X119220000Y-111820000D01*
X119340000Y-117820000D02*
X119340000Y-111820000D01*
X119460000Y-117820000D02*
X119460000Y-111820000D01*
X119580000Y-117820000D02*
X119580000Y-111820000D01*
X119700000Y-117820000D02*
X119700000Y-111820000D01*
X119000000Y-111820000D02*
X119000000Y-117820000D01*
X119760000Y-111820000D02*
X119000000Y-111820000D01*
X119760000Y-117820000D02*
X119760000Y-111820000D01*
X120710000Y-117820000D02*
X120710000Y-120480000D01*
X115510000Y-117820000D02*
X120710000Y-117820000D01*
X115510000Y-120480000D02*
X115510000Y-117820000D01*
X120710000Y-120480000D02*
X115510000Y-120480000D01*
X138260000Y-87570000D02*
X138260000Y-92770000D01*
X138260000Y-92770000D02*
X135600000Y-92770000D01*
X135600000Y-92770000D02*
X135600000Y-87570000D01*
X135600000Y-87570000D02*
X138260000Y-87570000D01*
X135600000Y-88520000D02*
X129600000Y-88520000D01*
X129600000Y-88520000D02*
X129600000Y-89280000D01*
X129600000Y-89280000D02*
X135600000Y-89280000D01*
X135600000Y-88580000D02*
X129600000Y-88580000D01*
X135600000Y-88700000D02*
X129600000Y-88700000D01*
X135600000Y-88820000D02*
X129600000Y-88820000D01*
X135600000Y-88940000D02*
X129600000Y-88940000D01*
X135600000Y-89060000D02*
X129600000Y-89060000D01*
X135600000Y-89180000D02*
X129600000Y-89180000D01*
X138590000Y-88520000D02*
X138260000Y-88520000D01*
X138590000Y-89280000D02*
X138260000Y-89280000D01*
X138260000Y-90170000D02*
X135600000Y-90170000D01*
X135600000Y-91060000D02*
X129600000Y-91060000D01*
X129600000Y-91060000D02*
X129600000Y-91820000D01*
X129600000Y-91820000D02*
X135600000Y-91820000D01*
X138657071Y-91060000D02*
X138260000Y-91060000D01*
X138657071Y-91820000D02*
X138260000Y-91820000D01*
X140970000Y-88900000D02*
X140970000Y-87630000D01*
X140970000Y-87630000D02*
X139700000Y-87630000D01*
X143510000Y-87630000D02*
X142240000Y-87630000D01*
X143510000Y-88900000D02*
X143510000Y-87630000D01*
X141197071Y-91820000D02*
X140800000Y-91820000D01*
X141197071Y-91060000D02*
X140800000Y-91060000D01*
X132140000Y-91820000D02*
X138140000Y-91820000D01*
X132140000Y-91060000D02*
X132140000Y-91820000D01*
X138140000Y-91060000D02*
X132140000Y-91060000D01*
X140800000Y-90170000D02*
X138140000Y-90170000D01*
X141130000Y-89280000D02*
X140800000Y-89280000D01*
X141130000Y-88520000D02*
X140800000Y-88520000D01*
X138140000Y-89180000D02*
X132140000Y-89180000D01*
X138140000Y-89060000D02*
X132140000Y-89060000D01*
X138140000Y-88940000D02*
X132140000Y-88940000D01*
X138140000Y-88820000D02*
X132140000Y-88820000D01*
X138140000Y-88700000D02*
X132140000Y-88700000D01*
X138140000Y-88580000D02*
X132140000Y-88580000D01*
X132140000Y-89280000D02*
X138140000Y-89280000D01*
X132140000Y-88520000D02*
X132140000Y-89280000D01*
X138140000Y-88520000D02*
X132140000Y-88520000D01*
X138140000Y-87570000D02*
X140800000Y-87570000D01*
X138140000Y-92770000D02*
X138140000Y-87570000D01*
X140800000Y-92770000D02*
X138140000Y-92770000D01*
X140800000Y-87570000D02*
X140800000Y-92770000D01*
%LPC*%
D13*
X123190000Y-97790000D03*
D14*
X125730000Y-121920000D03*
X128270000Y-121920000D03*
X133350000Y-121920000D03*
X138430000Y-121920000D03*
X143510000Y-121920000D03*
X143510000Y-114300000D03*
X138430000Y-114300000D03*
X133350000Y-114300000D03*
X128270000Y-114300000D03*
X125730000Y-114300000D03*
D15*
X121920000Y-106680000D03*
D16*
X124460000Y-106680000D03*
X144780000Y-106680000D03*
D15*
X147320000Y-106680000D03*
X143596051Y-97703949D03*
D17*
G36*
X141800000Y-100772792D02*
G01*
X140527208Y-99500000D01*
X141800000Y-98227208D01*
X143072792Y-99500000D01*
X141800000Y-100772792D01*
G37*
D18*
X135890000Y-99060000D03*
D19*
X128270000Y-99060000D03*
D20*
X116840000Y-121920000D03*
D21*
X119380000Y-121920000D03*
X139700000Y-88900000D03*
D20*
X139700000Y-91440000D03*
X142240000Y-91440000D03*
D21*
X142240000Y-88900000D03*
D13*
X149860000Y-121920000D03*
M02*
