%FSLAX45Y45*%
G04 Gerber Fmt 4.5, Leading zero omitted, Abs format (unit mm)*
G04 Created by KiCad (PCBNEW 5.1.10) date 2021-05-04 21:10:54*
%MOMM*%
%LPD*%
G01*
G04 APERTURE LIST*
%TA.AperFunction,Profile*%
%ADD10C,0.050000*%
%TD*%
%ADD11C,0.200000*%
%ADD12C,0.300000*%
G04 APERTURE END LIST*
D10*
X11557000Y-8890000D02*
G75*
G02*
X11684000Y-8763000I127000J0D01*
G01*
X11684000Y-12573000D02*
G75*
G02*
X11557000Y-12446000I0J127000D01*
G01*
X15367000Y-12446000D02*
G75*
G02*
X15240000Y-12573000I-127000J0D01*
G01*
X15240000Y-8763000D02*
G75*
G02*
X15367000Y-8890000I0J-127000D01*
G01*
X15367000Y-12446000D02*
X15367000Y-12446000D01*
X11557000Y-12446000D02*
X11557000Y-8890000D01*
X15240000Y-12573000D02*
X11684000Y-12573000D01*
X15367000Y-8890000D02*
X15367000Y-12446000D01*
X11684000Y-8763000D02*
X15240000Y-8763000D01*
D11*
X12159000Y-9619000D02*
X12479000Y-9939000D01*
X12479000Y-9619000D02*
X12159000Y-9939000D01*
X14826000Y-12032000D02*
X15146000Y-12352000D01*
X15146000Y-12032000D02*
X14826000Y-12352000D01*
D12*
X11840928Y-13041214D02*
X11840928Y-12741214D01*
X11912357Y-12741214D01*
X11955214Y-12755500D01*
X11983786Y-12784071D01*
X11998071Y-12812643D01*
X12012357Y-12869786D01*
X12012357Y-12912643D01*
X11998071Y-12969786D01*
X11983786Y-12998357D01*
X11955214Y-13026929D01*
X11912357Y-13041214D01*
X11840928Y-13041214D01*
X12140928Y-13041214D02*
X12140928Y-12841214D01*
X12140928Y-12898357D02*
X12155214Y-12869786D01*
X12169500Y-12855500D01*
X12198071Y-12841214D01*
X12226643Y-12841214D01*
X12326643Y-13041214D02*
X12326643Y-12841214D01*
X12326643Y-12741214D02*
X12312357Y-12755500D01*
X12326643Y-12769786D01*
X12340928Y-12755500D01*
X12326643Y-12741214D01*
X12326643Y-12769786D01*
X12512357Y-13041214D02*
X12483786Y-13026929D01*
X12469500Y-12998357D01*
X12469500Y-12741214D01*
X12669500Y-13041214D02*
X12640928Y-13026929D01*
X12626643Y-12998357D01*
X12626643Y-12741214D01*
X13012357Y-13041214D02*
X13012357Y-12741214D01*
X13112357Y-12955500D01*
X13212357Y-12741214D01*
X13212357Y-13041214D01*
X13483786Y-13041214D02*
X13483786Y-12884071D01*
X13469500Y-12855500D01*
X13440928Y-12841214D01*
X13383786Y-12841214D01*
X13355214Y-12855500D01*
X13483786Y-13026929D02*
X13455214Y-13041214D01*
X13383786Y-13041214D01*
X13355214Y-13026929D01*
X13340928Y-12998357D01*
X13340928Y-12969786D01*
X13355214Y-12941214D01*
X13383786Y-12926929D01*
X13455214Y-12926929D01*
X13483786Y-12912643D01*
X13626643Y-12841214D02*
X13626643Y-13141214D01*
X13626643Y-12855500D02*
X13655214Y-12841214D01*
X13712357Y-12841214D01*
X13740928Y-12855500D01*
X13755214Y-12869786D01*
X13769500Y-12898357D01*
X13769500Y-12984071D01*
X13755214Y-13012643D01*
X13740928Y-13026929D01*
X13712357Y-13041214D01*
X13655214Y-13041214D01*
X13626643Y-13026929D01*
X13898071Y-13012643D02*
X13912357Y-13026929D01*
X13898071Y-13041214D01*
X13883786Y-13026929D01*
X13898071Y-13012643D01*
X13898071Y-13041214D01*
X13898071Y-12855500D02*
X13912357Y-12869786D01*
X13898071Y-12884071D01*
X13883786Y-12869786D01*
X13898071Y-12855500D01*
X13898071Y-12884071D01*
X11234500Y-13375500D02*
X11554500Y-13695500D01*
X11554500Y-13375500D02*
X11234500Y-13695500D01*
X11812357Y-13371214D02*
X11998071Y-13371214D01*
X11898071Y-13485500D01*
X11940928Y-13485500D01*
X11969500Y-13499786D01*
X11983786Y-13514071D01*
X11998071Y-13542643D01*
X11998071Y-13614071D01*
X11983786Y-13642643D01*
X11969500Y-13656929D01*
X11940928Y-13671214D01*
X11855214Y-13671214D01*
X11826643Y-13656929D01*
X11812357Y-13642643D01*
X12126643Y-13642643D02*
X12140928Y-13656929D01*
X12126643Y-13671214D01*
X12112357Y-13656929D01*
X12126643Y-13642643D01*
X12126643Y-13671214D01*
X12255214Y-13399786D02*
X12269500Y-13385500D01*
X12298071Y-13371214D01*
X12369500Y-13371214D01*
X12398071Y-13385500D01*
X12412357Y-13399786D01*
X12426643Y-13428357D01*
X12426643Y-13456929D01*
X12412357Y-13499786D01*
X12240928Y-13671214D01*
X12426643Y-13671214D01*
X12612357Y-13371214D02*
X12640928Y-13371214D01*
X12669500Y-13385500D01*
X12683786Y-13399786D01*
X12698071Y-13428357D01*
X12712357Y-13485500D01*
X12712357Y-13556929D01*
X12698071Y-13614071D01*
X12683786Y-13642643D01*
X12669500Y-13656929D01*
X12640928Y-13671214D01*
X12612357Y-13671214D01*
X12583786Y-13656929D01*
X12569500Y-13642643D01*
X12555214Y-13614071D01*
X12540928Y-13556929D01*
X12540928Y-13485500D01*
X12555214Y-13428357D01*
X12569500Y-13399786D01*
X12583786Y-13385500D01*
X12612357Y-13371214D01*
X12898071Y-13371214D02*
X12926643Y-13371214D01*
X12955214Y-13385500D01*
X12969500Y-13399786D01*
X12983786Y-13428357D01*
X12998071Y-13485500D01*
X12998071Y-13556929D01*
X12983786Y-13614071D01*
X12969500Y-13642643D01*
X12955214Y-13656929D01*
X12926643Y-13671214D01*
X12898071Y-13671214D01*
X12869500Y-13656929D01*
X12855214Y-13642643D01*
X12840928Y-13614071D01*
X12826643Y-13556929D01*
X12826643Y-13485500D01*
X12840928Y-13428357D01*
X12855214Y-13399786D01*
X12869500Y-13385500D01*
X12898071Y-13371214D01*
X13126643Y-13671214D02*
X13126643Y-13471214D01*
X13126643Y-13499786D02*
X13140928Y-13485500D01*
X13169500Y-13471214D01*
X13212357Y-13471214D01*
X13240928Y-13485500D01*
X13255214Y-13514071D01*
X13255214Y-13671214D01*
X13255214Y-13514071D02*
X13269500Y-13485500D01*
X13298071Y-13471214D01*
X13340928Y-13471214D01*
X13369500Y-13485500D01*
X13383786Y-13514071D01*
X13383786Y-13671214D01*
X13526643Y-13671214D02*
X13526643Y-13471214D01*
X13526643Y-13499786D02*
X13540928Y-13485500D01*
X13569500Y-13471214D01*
X13612357Y-13471214D01*
X13640928Y-13485500D01*
X13655214Y-13514071D01*
X13655214Y-13671214D01*
X13655214Y-13514071D02*
X13669500Y-13485500D01*
X13698071Y-13471214D01*
X13740928Y-13471214D01*
X13769500Y-13485500D01*
X13783786Y-13514071D01*
X13783786Y-13671214D01*
X14369500Y-13356929D02*
X14112357Y-13742643D01*
X14755214Y-13371214D02*
X14783786Y-13371214D01*
X14812357Y-13385500D01*
X14826643Y-13399786D01*
X14840928Y-13428357D01*
X14855214Y-13485500D01*
X14855214Y-13556929D01*
X14840928Y-13614071D01*
X14826643Y-13642643D01*
X14812357Y-13656929D01*
X14783786Y-13671214D01*
X14755214Y-13671214D01*
X14726643Y-13656929D01*
X14712357Y-13642643D01*
X14698071Y-13614071D01*
X14683786Y-13556929D01*
X14683786Y-13485500D01*
X14698071Y-13428357D01*
X14712357Y-13399786D01*
X14726643Y-13385500D01*
X14755214Y-13371214D01*
X14983786Y-13642643D02*
X14998071Y-13656929D01*
X14983786Y-13671214D01*
X14969500Y-13656929D01*
X14983786Y-13642643D01*
X14983786Y-13671214D01*
X15283786Y-13671214D02*
X15112357Y-13671214D01*
X15198071Y-13671214D02*
X15198071Y-13371214D01*
X15169500Y-13414071D01*
X15140928Y-13442643D01*
X15112357Y-13456929D01*
X15398071Y-13399786D02*
X15412357Y-13385500D01*
X15440928Y-13371214D01*
X15512357Y-13371214D01*
X15540928Y-13385500D01*
X15555214Y-13399786D01*
X15569500Y-13428357D01*
X15569500Y-13456929D01*
X15555214Y-13499786D01*
X15383786Y-13671214D01*
X15569500Y-13671214D01*
X15826643Y-13371214D02*
X15769500Y-13371214D01*
X15740928Y-13385500D01*
X15726643Y-13399786D01*
X15698071Y-13442643D01*
X15683786Y-13499786D01*
X15683786Y-13614071D01*
X15698071Y-13642643D01*
X15712357Y-13656929D01*
X15740928Y-13671214D01*
X15798071Y-13671214D01*
X15826643Y-13656929D01*
X15840928Y-13642643D01*
X15855214Y-13614071D01*
X15855214Y-13542643D01*
X15840928Y-13514071D01*
X15826643Y-13499786D01*
X15798071Y-13485500D01*
X15740928Y-13485500D01*
X15712357Y-13499786D01*
X15698071Y-13514071D01*
X15683786Y-13542643D01*
X16040928Y-13371214D02*
X16069500Y-13371214D01*
X16098071Y-13385500D01*
X16112357Y-13399786D01*
X16126643Y-13428357D01*
X16140928Y-13485500D01*
X16140928Y-13556929D01*
X16126643Y-13614071D01*
X16112357Y-13642643D01*
X16098071Y-13656929D01*
X16069500Y-13671214D01*
X16040928Y-13671214D01*
X16012357Y-13656929D01*
X15998071Y-13642643D01*
X15983786Y-13614071D01*
X15969500Y-13556929D01*
X15969500Y-13485500D01*
X15983786Y-13428357D01*
X15998071Y-13399786D01*
X16012357Y-13385500D01*
X16040928Y-13371214D01*
X16255214Y-13371214D02*
X16255214Y-13428357D01*
X16369500Y-13371214D02*
X16369500Y-13428357D01*
X16812357Y-13785500D02*
X16798071Y-13771214D01*
X16769500Y-13728357D01*
X16755214Y-13699786D01*
X16740928Y-13656929D01*
X16726643Y-13585500D01*
X16726643Y-13528357D01*
X16740928Y-13456929D01*
X16755214Y-13414071D01*
X16769500Y-13385500D01*
X16798071Y-13342643D01*
X16812357Y-13328357D01*
X16912357Y-13399786D02*
X16926643Y-13385500D01*
X16955214Y-13371214D01*
X17026643Y-13371214D01*
X17055214Y-13385500D01*
X17069500Y-13399786D01*
X17083786Y-13428357D01*
X17083786Y-13456929D01*
X17069500Y-13499786D01*
X16898071Y-13671214D01*
X17083786Y-13671214D01*
X17440928Y-13671214D02*
X17440928Y-13371214D01*
X17569500Y-13671214D02*
X17569500Y-13514071D01*
X17555214Y-13485500D01*
X17526643Y-13471214D01*
X17483786Y-13471214D01*
X17455214Y-13485500D01*
X17440928Y-13499786D01*
X17755214Y-13671214D02*
X17726643Y-13656929D01*
X17712357Y-13642643D01*
X17698071Y-13614071D01*
X17698071Y-13528357D01*
X17712357Y-13499786D01*
X17726643Y-13485500D01*
X17755214Y-13471214D01*
X17798071Y-13471214D01*
X17826643Y-13485500D01*
X17840928Y-13499786D01*
X17855214Y-13528357D01*
X17855214Y-13614071D01*
X17840928Y-13642643D01*
X17826643Y-13656929D01*
X17798071Y-13671214D01*
X17755214Y-13671214D01*
X18026643Y-13671214D02*
X17998071Y-13656929D01*
X17983786Y-13628357D01*
X17983786Y-13371214D01*
X18255214Y-13656929D02*
X18226643Y-13671214D01*
X18169500Y-13671214D01*
X18140928Y-13656929D01*
X18126643Y-13628357D01*
X18126643Y-13514071D01*
X18140928Y-13485500D01*
X18169500Y-13471214D01*
X18226643Y-13471214D01*
X18255214Y-13485500D01*
X18269500Y-13514071D01*
X18269500Y-13542643D01*
X18126643Y-13571214D01*
X18383786Y-13656929D02*
X18412357Y-13671214D01*
X18469500Y-13671214D01*
X18498071Y-13656929D01*
X18512357Y-13628357D01*
X18512357Y-13614071D01*
X18498071Y-13585500D01*
X18469500Y-13571214D01*
X18426643Y-13571214D01*
X18398071Y-13556929D01*
X18383786Y-13528357D01*
X18383786Y-13514071D01*
X18398071Y-13485500D01*
X18426643Y-13471214D01*
X18469500Y-13471214D01*
X18498071Y-13485500D01*
X18612357Y-13785500D02*
X18626643Y-13771214D01*
X18655214Y-13728357D01*
X18669500Y-13699786D01*
X18683786Y-13656929D01*
X18698071Y-13585500D01*
X18698071Y-13528357D01*
X18683786Y-13456929D01*
X18669500Y-13414071D01*
X18655214Y-13385500D01*
X18626643Y-13342643D01*
X18612357Y-13328357D01*
X19155214Y-13785500D02*
X19140928Y-13771214D01*
X19112357Y-13728357D01*
X19098071Y-13699786D01*
X19083786Y-13656929D01*
X19069500Y-13585500D01*
X19069500Y-13528357D01*
X19083786Y-13456929D01*
X19098071Y-13414071D01*
X19112357Y-13385500D01*
X19140928Y-13342643D01*
X19155214Y-13328357D01*
X19269500Y-13471214D02*
X19269500Y-13671214D01*
X19269500Y-13499786D02*
X19283786Y-13485500D01*
X19312357Y-13471214D01*
X19355214Y-13471214D01*
X19383786Y-13485500D01*
X19398071Y-13514071D01*
X19398071Y-13671214D01*
X19583786Y-13671214D02*
X19555214Y-13656929D01*
X19540928Y-13642643D01*
X19526643Y-13614071D01*
X19526643Y-13528357D01*
X19540928Y-13499786D01*
X19555214Y-13485500D01*
X19583786Y-13471214D01*
X19626643Y-13471214D01*
X19655214Y-13485500D01*
X19669500Y-13499786D01*
X19683786Y-13528357D01*
X19683786Y-13614071D01*
X19669500Y-13642643D01*
X19655214Y-13656929D01*
X19626643Y-13671214D01*
X19583786Y-13671214D01*
X19769500Y-13471214D02*
X19883786Y-13471214D01*
X19812357Y-13371214D02*
X19812357Y-13628357D01*
X19826643Y-13656929D01*
X19855214Y-13671214D01*
X19883786Y-13671214D01*
X20212357Y-13471214D02*
X20212357Y-13771214D01*
X20212357Y-13485500D02*
X20240928Y-13471214D01*
X20298071Y-13471214D01*
X20326643Y-13485500D01*
X20340928Y-13499786D01*
X20355214Y-13528357D01*
X20355214Y-13614071D01*
X20340928Y-13642643D01*
X20326643Y-13656929D01*
X20298071Y-13671214D01*
X20240928Y-13671214D01*
X20212357Y-13656929D01*
X20526643Y-13671214D02*
X20498071Y-13656929D01*
X20483786Y-13628357D01*
X20483786Y-13371214D01*
X20769500Y-13671214D02*
X20769500Y-13514071D01*
X20755214Y-13485500D01*
X20726643Y-13471214D01*
X20669500Y-13471214D01*
X20640928Y-13485500D01*
X20769500Y-13656929D02*
X20740928Y-13671214D01*
X20669500Y-13671214D01*
X20640928Y-13656929D01*
X20626643Y-13628357D01*
X20626643Y-13599786D01*
X20640928Y-13571214D01*
X20669500Y-13556929D01*
X20740928Y-13556929D01*
X20769500Y-13542643D01*
X20869500Y-13471214D02*
X20983786Y-13471214D01*
X20912357Y-13371214D02*
X20912357Y-13628357D01*
X20926643Y-13656929D01*
X20955214Y-13671214D01*
X20983786Y-13671214D01*
X21198071Y-13656929D02*
X21169500Y-13671214D01*
X21112357Y-13671214D01*
X21083786Y-13656929D01*
X21069500Y-13628357D01*
X21069500Y-13514071D01*
X21083786Y-13485500D01*
X21112357Y-13471214D01*
X21169500Y-13471214D01*
X21198071Y-13485500D01*
X21212357Y-13514071D01*
X21212357Y-13542643D01*
X21069500Y-13571214D01*
X21469500Y-13671214D02*
X21469500Y-13371214D01*
X21469500Y-13656929D02*
X21440928Y-13671214D01*
X21383786Y-13671214D01*
X21355214Y-13656929D01*
X21340928Y-13642643D01*
X21326643Y-13614071D01*
X21326643Y-13528357D01*
X21340928Y-13499786D01*
X21355214Y-13485500D01*
X21383786Y-13471214D01*
X21440928Y-13471214D01*
X21469500Y-13485500D01*
X21583786Y-13785500D02*
X21598071Y-13771214D01*
X21626643Y-13728357D01*
X21640928Y-13699786D01*
X21655214Y-13656929D01*
X21669500Y-13585500D01*
X21669500Y-13528357D01*
X21655214Y-13456929D01*
X21640928Y-13414071D01*
X21626643Y-13385500D01*
X21598071Y-13342643D01*
X21583786Y-13328357D01*
M02*
