M48
; DRILL file {KiCad 5.1.9} date Fri Apr  9 01:44:09 2021
; FORMAT={-:-/ absolute / inch / decimal}
; #@! TF.CreationDate,2021-04-09T01:44:09+02:00
; #@! TF.GenerationSoftware,Kicad,Pcbnew,5.1.9
; #@! TF.FileFunction,Plated,1,2,PTH
FMAT,2
INCH
T1C0.0315
T2C0.0354
T3C0.0394
%
G90
G05
T1
X5.1Y-4.2
X5.4Y-4.2
T2
X4.8Y-4.2
X4.9Y-4.2
X5.6793Y-3.8207
X5.7Y-4.2
X5.75Y-3.75
X5.8Y-4.2
T3
X4.6Y-4.8
X4.7Y-4.8
X5.0Y-4.4921
X5.0Y-4.7921
X5.1Y-4.4921
X5.1Y-4.7921
X5.3Y-4.4921
X5.3Y-4.7921
X5.5Y-3.5
X5.5Y-3.6
X5.5Y-3.7
X5.5Y-3.8
X5.5Y-4.4921
X5.5Y-4.7921
X5.7Y-4.4921
X5.7Y-4.7921
T0
M30
