%FSLAX45Y45*%
G04 Gerber Fmt 4.5, Leading zero omitted, Abs format (unit mm)*
G04 Created by KiCad (PCBNEW 5.1.10) date 2021-05-04 23:10:41*
%MOMM*%
%LPD*%
G01*
G04 APERTURE LIST*
%TA.AperFunction,Profile*%
%ADD10C,0.050000*%
%TD*%
%ADD11C,0.200000*%
%ADD12C,0.300000*%
G04 APERTURE END LIST*
D10*
X12192000Y-13462000D02*
X12192000Y-10668000D01*
X14224000Y-13462000D02*
X12192000Y-13462000D01*
X14224000Y-10668000D02*
X14224000Y-13462000D01*
X12192000Y-10668000D02*
X14224000Y-10668000D01*
D11*
X12396000Y-10872000D02*
X12496000Y-10972000D01*
X12496000Y-10872000D02*
X12396000Y-10972000D01*
X12650000Y-10872000D02*
X12750000Y-10972000D01*
X12750000Y-10872000D02*
X12650000Y-10972000D01*
X12904000Y-10872000D02*
X13004000Y-10972000D01*
X13004000Y-10872000D02*
X12904000Y-10972000D01*
X12904000Y-11888000D02*
X13004000Y-11988000D01*
X13004000Y-11888000D02*
X12904000Y-11988000D01*
X12904000Y-12142000D02*
X13004000Y-12242000D01*
X13004000Y-12142000D02*
X12904000Y-12242000D01*
X13158000Y-10872000D02*
X13258000Y-10972000D01*
X13258000Y-10872000D02*
X13158000Y-10972000D01*
X13158000Y-11888000D02*
X13258000Y-11988000D01*
X13258000Y-11888000D02*
X13158000Y-11988000D01*
X13158000Y-12142000D02*
X13258000Y-12242000D01*
X13258000Y-12142000D02*
X13158000Y-12242000D01*
X13412000Y-10872000D02*
X13512000Y-10972000D01*
X13512000Y-10872000D02*
X13412000Y-10972000D01*
X13412000Y-11888000D02*
X13512000Y-11988000D01*
X13512000Y-11888000D02*
X13412000Y-11988000D01*
X13412000Y-12142000D02*
X13512000Y-12242000D01*
X13512000Y-12142000D02*
X13412000Y-12242000D01*
X13666000Y-10872000D02*
X13766000Y-10972000D01*
X13766000Y-10872000D02*
X13666000Y-10972000D01*
D12*
X12475928Y-13930214D02*
X12475928Y-13630214D01*
X12547357Y-13630214D01*
X12590214Y-13644500D01*
X12618786Y-13673071D01*
X12633071Y-13701643D01*
X12647357Y-13758786D01*
X12647357Y-13801643D01*
X12633071Y-13858786D01*
X12618786Y-13887357D01*
X12590214Y-13915929D01*
X12547357Y-13930214D01*
X12475928Y-13930214D01*
X12775928Y-13930214D02*
X12775928Y-13730214D01*
X12775928Y-13787357D02*
X12790214Y-13758786D01*
X12804500Y-13744500D01*
X12833071Y-13730214D01*
X12861643Y-13730214D01*
X12961643Y-13930214D02*
X12961643Y-13730214D01*
X12961643Y-13630214D02*
X12947357Y-13644500D01*
X12961643Y-13658786D01*
X12975928Y-13644500D01*
X12961643Y-13630214D01*
X12961643Y-13658786D01*
X13147357Y-13930214D02*
X13118786Y-13915929D01*
X13104500Y-13887357D01*
X13104500Y-13630214D01*
X13304500Y-13930214D02*
X13275928Y-13915929D01*
X13261643Y-13887357D01*
X13261643Y-13630214D01*
X13647357Y-13930214D02*
X13647357Y-13630214D01*
X13747357Y-13844500D01*
X13847357Y-13630214D01*
X13847357Y-13930214D01*
X14118786Y-13930214D02*
X14118786Y-13773071D01*
X14104500Y-13744500D01*
X14075928Y-13730214D01*
X14018786Y-13730214D01*
X13990214Y-13744500D01*
X14118786Y-13915929D02*
X14090214Y-13930214D01*
X14018786Y-13930214D01*
X13990214Y-13915929D01*
X13975928Y-13887357D01*
X13975928Y-13858786D01*
X13990214Y-13830214D01*
X14018786Y-13815929D01*
X14090214Y-13815929D01*
X14118786Y-13801643D01*
X14261643Y-13730214D02*
X14261643Y-14030214D01*
X14261643Y-13744500D02*
X14290214Y-13730214D01*
X14347357Y-13730214D01*
X14375928Y-13744500D01*
X14390214Y-13758786D01*
X14404500Y-13787357D01*
X14404500Y-13873071D01*
X14390214Y-13901643D01*
X14375928Y-13915929D01*
X14347357Y-13930214D01*
X14290214Y-13930214D01*
X14261643Y-13915929D01*
X14533071Y-13901643D02*
X14547357Y-13915929D01*
X14533071Y-13930214D01*
X14518786Y-13915929D01*
X14533071Y-13901643D01*
X14533071Y-13930214D01*
X14533071Y-13744500D02*
X14547357Y-13758786D01*
X14533071Y-13773071D01*
X14518786Y-13758786D01*
X14533071Y-13744500D01*
X14533071Y-13773071D01*
X12089500Y-14374500D02*
X12189500Y-14474500D01*
X12189500Y-14374500D02*
X12089500Y-14474500D01*
X12633071Y-14560214D02*
X12461643Y-14560214D01*
X12547357Y-14560214D02*
X12547357Y-14260214D01*
X12518786Y-14303071D01*
X12490214Y-14331643D01*
X12461643Y-14345929D01*
X12761643Y-14531643D02*
X12775928Y-14545929D01*
X12761643Y-14560214D01*
X12747357Y-14545929D01*
X12761643Y-14531643D01*
X12761643Y-14560214D01*
X12961643Y-14260214D02*
X12990214Y-14260214D01*
X13018786Y-14274500D01*
X13033071Y-14288786D01*
X13047357Y-14317357D01*
X13061643Y-14374500D01*
X13061643Y-14445929D01*
X13047357Y-14503071D01*
X13033071Y-14531643D01*
X13018786Y-14545929D01*
X12990214Y-14560214D01*
X12961643Y-14560214D01*
X12933071Y-14545929D01*
X12918786Y-14531643D01*
X12904500Y-14503071D01*
X12890214Y-14445929D01*
X12890214Y-14374500D01*
X12904500Y-14317357D01*
X12918786Y-14288786D01*
X12933071Y-14274500D01*
X12961643Y-14260214D01*
X13247357Y-14260214D02*
X13275928Y-14260214D01*
X13304500Y-14274500D01*
X13318786Y-14288786D01*
X13333071Y-14317357D01*
X13347357Y-14374500D01*
X13347357Y-14445929D01*
X13333071Y-14503071D01*
X13318786Y-14531643D01*
X13304500Y-14545929D01*
X13275928Y-14560214D01*
X13247357Y-14560214D01*
X13218786Y-14545929D01*
X13204500Y-14531643D01*
X13190214Y-14503071D01*
X13175928Y-14445929D01*
X13175928Y-14374500D01*
X13190214Y-14317357D01*
X13204500Y-14288786D01*
X13218786Y-14274500D01*
X13247357Y-14260214D01*
X13533071Y-14260214D02*
X13561643Y-14260214D01*
X13590214Y-14274500D01*
X13604500Y-14288786D01*
X13618786Y-14317357D01*
X13633071Y-14374500D01*
X13633071Y-14445929D01*
X13618786Y-14503071D01*
X13604500Y-14531643D01*
X13590214Y-14545929D01*
X13561643Y-14560214D01*
X13533071Y-14560214D01*
X13504500Y-14545929D01*
X13490214Y-14531643D01*
X13475928Y-14503071D01*
X13461643Y-14445929D01*
X13461643Y-14374500D01*
X13475928Y-14317357D01*
X13490214Y-14288786D01*
X13504500Y-14274500D01*
X13533071Y-14260214D01*
X13761643Y-14560214D02*
X13761643Y-14360214D01*
X13761643Y-14388786D02*
X13775928Y-14374500D01*
X13804500Y-14360214D01*
X13847357Y-14360214D01*
X13875928Y-14374500D01*
X13890214Y-14403071D01*
X13890214Y-14560214D01*
X13890214Y-14403071D02*
X13904500Y-14374500D01*
X13933071Y-14360214D01*
X13975928Y-14360214D01*
X14004500Y-14374500D01*
X14018786Y-14403071D01*
X14018786Y-14560214D01*
X14161643Y-14560214D02*
X14161643Y-14360214D01*
X14161643Y-14388786D02*
X14175928Y-14374500D01*
X14204500Y-14360214D01*
X14247357Y-14360214D01*
X14275928Y-14374500D01*
X14290214Y-14403071D01*
X14290214Y-14560214D01*
X14290214Y-14403071D02*
X14304500Y-14374500D01*
X14333071Y-14360214D01*
X14375928Y-14360214D01*
X14404500Y-14374500D01*
X14418786Y-14403071D01*
X14418786Y-14560214D01*
X15004500Y-14245929D02*
X14747357Y-14631643D01*
X15390214Y-14260214D02*
X15418786Y-14260214D01*
X15447357Y-14274500D01*
X15461643Y-14288786D01*
X15475928Y-14317357D01*
X15490214Y-14374500D01*
X15490214Y-14445929D01*
X15475928Y-14503071D01*
X15461643Y-14531643D01*
X15447357Y-14545929D01*
X15418786Y-14560214D01*
X15390214Y-14560214D01*
X15361643Y-14545929D01*
X15347357Y-14531643D01*
X15333071Y-14503071D01*
X15318786Y-14445929D01*
X15318786Y-14374500D01*
X15333071Y-14317357D01*
X15347357Y-14288786D01*
X15361643Y-14274500D01*
X15390214Y-14260214D01*
X15618786Y-14531643D02*
X15633071Y-14545929D01*
X15618786Y-14560214D01*
X15604500Y-14545929D01*
X15618786Y-14531643D01*
X15618786Y-14560214D01*
X15818786Y-14260214D02*
X15847357Y-14260214D01*
X15875928Y-14274500D01*
X15890214Y-14288786D01*
X15904500Y-14317357D01*
X15918786Y-14374500D01*
X15918786Y-14445929D01*
X15904500Y-14503071D01*
X15890214Y-14531643D01*
X15875928Y-14545929D01*
X15847357Y-14560214D01*
X15818786Y-14560214D01*
X15790214Y-14545929D01*
X15775928Y-14531643D01*
X15761643Y-14503071D01*
X15747357Y-14445929D01*
X15747357Y-14374500D01*
X15761643Y-14317357D01*
X15775928Y-14288786D01*
X15790214Y-14274500D01*
X15818786Y-14260214D01*
X16018786Y-14260214D02*
X16204500Y-14260214D01*
X16104500Y-14374500D01*
X16147357Y-14374500D01*
X16175928Y-14388786D01*
X16190214Y-14403071D01*
X16204500Y-14431643D01*
X16204500Y-14503071D01*
X16190214Y-14531643D01*
X16175928Y-14545929D01*
X16147357Y-14560214D01*
X16061643Y-14560214D01*
X16033071Y-14545929D01*
X16018786Y-14531643D01*
X16347357Y-14560214D02*
X16404500Y-14560214D01*
X16433071Y-14545929D01*
X16447357Y-14531643D01*
X16475928Y-14488786D01*
X16490214Y-14431643D01*
X16490214Y-14317357D01*
X16475928Y-14288786D01*
X16461643Y-14274500D01*
X16433071Y-14260214D01*
X16375928Y-14260214D01*
X16347357Y-14274500D01*
X16333071Y-14288786D01*
X16318786Y-14317357D01*
X16318786Y-14388786D01*
X16333071Y-14417357D01*
X16347357Y-14431643D01*
X16375928Y-14445929D01*
X16433071Y-14445929D01*
X16461643Y-14431643D01*
X16475928Y-14417357D01*
X16490214Y-14388786D01*
X16747357Y-14360214D02*
X16747357Y-14560214D01*
X16675928Y-14245929D02*
X16604500Y-14460214D01*
X16790214Y-14460214D01*
X16890214Y-14260214D02*
X16890214Y-14317357D01*
X17004500Y-14260214D02*
X17004500Y-14317357D01*
X17447357Y-14674500D02*
X17433071Y-14660214D01*
X17404500Y-14617357D01*
X17390214Y-14588786D01*
X17375928Y-14545929D01*
X17361643Y-14474500D01*
X17361643Y-14417357D01*
X17375928Y-14345929D01*
X17390214Y-14303071D01*
X17404500Y-14274500D01*
X17433071Y-14231643D01*
X17447357Y-14217357D01*
X17718786Y-14560214D02*
X17547357Y-14560214D01*
X17633071Y-14560214D02*
X17633071Y-14260214D01*
X17604500Y-14303071D01*
X17575928Y-14331643D01*
X17547357Y-14345929D01*
X17833071Y-14288786D02*
X17847357Y-14274500D01*
X17875928Y-14260214D01*
X17947357Y-14260214D01*
X17975928Y-14274500D01*
X17990214Y-14288786D01*
X18004500Y-14317357D01*
X18004500Y-14345929D01*
X17990214Y-14388786D01*
X17818786Y-14560214D01*
X18004500Y-14560214D01*
X18361643Y-14560214D02*
X18361643Y-14260214D01*
X18490214Y-14560214D02*
X18490214Y-14403071D01*
X18475928Y-14374500D01*
X18447357Y-14360214D01*
X18404500Y-14360214D01*
X18375928Y-14374500D01*
X18361643Y-14388786D01*
X18675928Y-14560214D02*
X18647357Y-14545929D01*
X18633071Y-14531643D01*
X18618786Y-14503071D01*
X18618786Y-14417357D01*
X18633071Y-14388786D01*
X18647357Y-14374500D01*
X18675928Y-14360214D01*
X18718786Y-14360214D01*
X18747357Y-14374500D01*
X18761643Y-14388786D01*
X18775928Y-14417357D01*
X18775928Y-14503071D01*
X18761643Y-14531643D01*
X18747357Y-14545929D01*
X18718786Y-14560214D01*
X18675928Y-14560214D01*
X18947357Y-14560214D02*
X18918786Y-14545929D01*
X18904500Y-14517357D01*
X18904500Y-14260214D01*
X19175928Y-14545929D02*
X19147357Y-14560214D01*
X19090214Y-14560214D01*
X19061643Y-14545929D01*
X19047357Y-14517357D01*
X19047357Y-14403071D01*
X19061643Y-14374500D01*
X19090214Y-14360214D01*
X19147357Y-14360214D01*
X19175928Y-14374500D01*
X19190214Y-14403071D01*
X19190214Y-14431643D01*
X19047357Y-14460214D01*
X19304500Y-14545929D02*
X19333071Y-14560214D01*
X19390214Y-14560214D01*
X19418786Y-14545929D01*
X19433071Y-14517357D01*
X19433071Y-14503071D01*
X19418786Y-14474500D01*
X19390214Y-14460214D01*
X19347357Y-14460214D01*
X19318786Y-14445929D01*
X19304500Y-14417357D01*
X19304500Y-14403071D01*
X19318786Y-14374500D01*
X19347357Y-14360214D01*
X19390214Y-14360214D01*
X19418786Y-14374500D01*
X19533071Y-14674500D02*
X19547357Y-14660214D01*
X19575928Y-14617357D01*
X19590214Y-14588786D01*
X19604500Y-14545929D01*
X19618786Y-14474500D01*
X19618786Y-14417357D01*
X19604500Y-14345929D01*
X19590214Y-14303071D01*
X19575928Y-14274500D01*
X19547357Y-14231643D01*
X19533071Y-14217357D01*
M02*
