G04 #@! TF.GenerationSoftware,KiCad,Pcbnew,5.1.10*
G04 #@! TF.CreationDate,2021-05-04T23:10:24+02:00*
G04 #@! TF.ProjectId,2x3zu1x6,3278337a-7531-4783-962e-6b696361645f,rev?*
G04 #@! TF.SameCoordinates,Original*
G04 #@! TF.FileFunction,Legend,Top*
G04 #@! TF.FilePolarity,Positive*
%FSLAX46Y46*%
G04 Gerber Fmt 4.6, Leading zero omitted, Abs format (unit mm)*
G04 Created by KiCad (PCBNEW 5.1.10) date 2021-05-04 23:10:24*
%MOMM*%
%LPD*%
G01*
G04 APERTURE LIST*
%ADD10C,0.150000*%
%ADD11C,0.120000*%
%ADD12R,1.700000X1.700000*%
%ADD13O,1.700000X1.700000*%
%ADD14C,1.700000*%
G04 APERTURE END LIST*
D10*
X123976666Y-112212380D02*
X123976666Y-111545714D01*
X123976666Y-111736190D02*
X124024285Y-111640952D01*
X124071904Y-111593333D01*
X124167142Y-111545714D01*
X124262380Y-111545714D01*
X125119523Y-112212380D02*
X124548095Y-112212380D01*
X124833809Y-112212380D02*
X124833809Y-111212380D01*
X124738571Y-111355238D01*
X124643333Y-111450476D01*
X124548095Y-111498095D01*
X126310000Y-112212380D02*
X126310000Y-111545714D01*
X126310000Y-111736190D02*
X126357619Y-111640952D01*
X126405238Y-111593333D01*
X126500476Y-111545714D01*
X126595714Y-111545714D01*
X126881428Y-111307619D02*
X126929047Y-111260000D01*
X127024285Y-111212380D01*
X127262380Y-111212380D01*
X127357619Y-111260000D01*
X127405238Y-111307619D01*
X127452857Y-111402857D01*
X127452857Y-111498095D01*
X127405238Y-111640952D01*
X126833809Y-112212380D01*
X127452857Y-112212380D01*
X129071904Y-111545714D02*
X129071904Y-112355238D01*
X129024285Y-112450476D01*
X128976666Y-112498095D01*
X128881428Y-112545714D01*
X128738571Y-112545714D01*
X128643333Y-112498095D01*
X129071904Y-112164761D02*
X128976666Y-112212380D01*
X128786190Y-112212380D01*
X128690952Y-112164761D01*
X128643333Y-112117142D01*
X128595714Y-112021904D01*
X128595714Y-111736190D01*
X128643333Y-111640952D01*
X128690952Y-111593333D01*
X128786190Y-111545714D01*
X128976666Y-111545714D01*
X129071904Y-111593333D01*
X129548095Y-112212380D02*
X129548095Y-111545714D01*
X129548095Y-111736190D02*
X129595714Y-111640952D01*
X129643333Y-111593333D01*
X129738571Y-111545714D01*
X129833809Y-111545714D01*
X131690952Y-111831428D02*
X132452857Y-111831428D01*
X132071904Y-112212380D02*
X132071904Y-111450476D01*
X134119523Y-111545714D02*
X134119523Y-112355238D01*
X134071904Y-112450476D01*
X134024285Y-112498095D01*
X133929047Y-112545714D01*
X133786190Y-112545714D01*
X133690952Y-112498095D01*
X134119523Y-112164761D02*
X134024285Y-112212380D01*
X133833809Y-112212380D01*
X133738571Y-112164761D01*
X133690952Y-112117142D01*
X133643333Y-112021904D01*
X133643333Y-111736190D01*
X133690952Y-111640952D01*
X133738571Y-111593333D01*
X133833809Y-111545714D01*
X134024285Y-111545714D01*
X134119523Y-111593333D01*
X134976666Y-112164761D02*
X134881428Y-112212380D01*
X134690952Y-112212380D01*
X134595714Y-112164761D01*
X134548095Y-112069523D01*
X134548095Y-111688571D01*
X134595714Y-111593333D01*
X134690952Y-111545714D01*
X134881428Y-111545714D01*
X134976666Y-111593333D01*
X135024285Y-111688571D01*
X135024285Y-111783809D01*
X134548095Y-111879047D01*
X136119523Y-111545714D02*
X136310000Y-112212380D01*
X136500476Y-111736190D01*
X136690952Y-112212380D01*
X136881428Y-111545714D01*
X137643333Y-112164761D02*
X137548095Y-112212380D01*
X137357619Y-112212380D01*
X137262380Y-112164761D01*
X137214761Y-112069523D01*
X137214761Y-111688571D01*
X137262380Y-111593333D01*
X137357619Y-111545714D01*
X137548095Y-111545714D01*
X137643333Y-111593333D01*
X137690952Y-111688571D01*
X137690952Y-111783809D01*
X137214761Y-111879047D01*
D11*
X123130000Y-107890000D02*
X123130000Y-110550000D01*
X135890000Y-107890000D02*
X123130000Y-107890000D01*
X135890000Y-110550000D02*
X123130000Y-110550000D01*
X135890000Y-107890000D02*
X135890000Y-110550000D01*
X137160000Y-107890000D02*
X138490000Y-107890000D01*
X138490000Y-107890000D02*
X138490000Y-109220000D01*
X134120000Y-117030000D02*
X134620000Y-118030000D01*
X135120000Y-117030000D02*
X134120000Y-117030000D01*
X134620000Y-118030000D02*
X135120000Y-117030000D01*
X124330000Y-123650000D02*
X139830000Y-123650000D01*
X124330000Y-132770000D02*
X124330000Y-123650000D01*
X139830000Y-132770000D02*
X124330000Y-132770000D01*
X139830000Y-123650000D02*
X139830000Y-132770000D01*
X130030000Y-123650000D02*
X130030000Y-132770000D01*
X134130000Y-123650000D02*
X134130000Y-132770000D01*
D10*
X139152380Y-110823333D02*
X139866666Y-110823333D01*
X140009523Y-110870952D01*
X140104761Y-110966190D01*
X140152380Y-111109047D01*
X140152380Y-111204285D01*
X140152380Y-109823333D02*
X140152380Y-110394761D01*
X140152380Y-110109047D02*
X139152380Y-110109047D01*
X139295238Y-110204285D01*
X139390476Y-110299523D01*
X139438095Y-110394761D01*
X140172380Y-125928333D02*
X140886666Y-125928333D01*
X141029523Y-125975952D01*
X141124761Y-126071190D01*
X141172380Y-126214047D01*
X141172380Y-126309285D01*
X140267619Y-125499761D02*
X140220000Y-125452142D01*
X140172380Y-125356904D01*
X140172380Y-125118809D01*
X140220000Y-125023571D01*
X140267619Y-124975952D01*
X140362857Y-124928333D01*
X140458095Y-124928333D01*
X140600952Y-124975952D01*
X141172380Y-125547380D01*
X141172380Y-124928333D01*
%LPC*%
D12*
X137160000Y-109220000D03*
D13*
X134620000Y-109220000D03*
X132080000Y-109220000D03*
X129540000Y-109220000D03*
X127000000Y-109220000D03*
X124460000Y-109220000D03*
G36*
G01*
X134020000Y-118530000D02*
X135220000Y-118530000D01*
G75*
G02*
X135470000Y-118780000I0J-250000D01*
G01*
X135470000Y-119980000D01*
G75*
G02*
X135220000Y-120230000I-250000J0D01*
G01*
X134020000Y-120230000D01*
G75*
G02*
X133770000Y-119980000I0J250000D01*
G01*
X133770000Y-118780000D01*
G75*
G02*
X134020000Y-118530000I250000J0D01*
G01*
G37*
D14*
X132080000Y-119380000D03*
X129540000Y-119380000D03*
X134620000Y-121920000D03*
X132080000Y-121920000D03*
X129540000Y-121920000D03*
M02*
