%FSLAX45Y45*%
G04 Gerber Fmt 4.5, Leading zero omitted, Abs format (unit mm)*
G04 Created by KiCad (PCBNEW 5.1.10) date 2021-05-04 23:10:41*
%MOMM*%
%LPD*%
G01*
G04 APERTURE LIST*
%TA.AperFunction,Profile*%
%ADD10C,0.050000*%
%TD*%
%ADD11C,0.200000*%
%ADD12C,0.300000*%
G04 APERTURE END LIST*
D10*
X12192000Y-13462000D02*
X12192000Y-10668000D01*
X14224000Y-13462000D02*
X12192000Y-13462000D01*
X14224000Y-10668000D02*
X14224000Y-13462000D01*
X12192000Y-10668000D02*
X14224000Y-10668000D01*
D11*
D12*
X12475928Y-13930214D02*
X12475928Y-13630214D01*
X12547357Y-13630214D01*
X12590214Y-13644500D01*
X12618786Y-13673071D01*
X12633071Y-13701643D01*
X12647357Y-13758786D01*
X12647357Y-13801643D01*
X12633071Y-13858786D01*
X12618786Y-13887357D01*
X12590214Y-13915929D01*
X12547357Y-13930214D01*
X12475928Y-13930214D01*
X12775928Y-13930214D02*
X12775928Y-13730214D01*
X12775928Y-13787357D02*
X12790214Y-13758786D01*
X12804500Y-13744500D01*
X12833071Y-13730214D01*
X12861643Y-13730214D01*
X12961643Y-13930214D02*
X12961643Y-13730214D01*
X12961643Y-13630214D02*
X12947357Y-13644500D01*
X12961643Y-13658786D01*
X12975928Y-13644500D01*
X12961643Y-13630214D01*
X12961643Y-13658786D01*
X13147357Y-13930214D02*
X13118786Y-13915929D01*
X13104500Y-13887357D01*
X13104500Y-13630214D01*
X13304500Y-13930214D02*
X13275928Y-13915929D01*
X13261643Y-13887357D01*
X13261643Y-13630214D01*
X13647357Y-13930214D02*
X13647357Y-13630214D01*
X13747357Y-13844500D01*
X13847357Y-13630214D01*
X13847357Y-13930214D01*
X14118786Y-13930214D02*
X14118786Y-13773071D01*
X14104500Y-13744500D01*
X14075928Y-13730214D01*
X14018786Y-13730214D01*
X13990214Y-13744500D01*
X14118786Y-13915929D02*
X14090214Y-13930214D01*
X14018786Y-13930214D01*
X13990214Y-13915929D01*
X13975928Y-13887357D01*
X13975928Y-13858786D01*
X13990214Y-13830214D01*
X14018786Y-13815929D01*
X14090214Y-13815929D01*
X14118786Y-13801643D01*
X14261643Y-13730214D02*
X14261643Y-14030214D01*
X14261643Y-13744500D02*
X14290214Y-13730214D01*
X14347357Y-13730214D01*
X14375928Y-13744500D01*
X14390214Y-13758786D01*
X14404500Y-13787357D01*
X14404500Y-13873071D01*
X14390214Y-13901643D01*
X14375928Y-13915929D01*
X14347357Y-13930214D01*
X14290214Y-13930214D01*
X14261643Y-13915929D01*
X14533071Y-13901643D02*
X14547357Y-13915929D01*
X14533071Y-13930214D01*
X14518786Y-13915929D01*
X14533071Y-13901643D01*
X14533071Y-13930214D01*
X14533071Y-13744500D02*
X14547357Y-13758786D01*
X14533071Y-13773071D01*
X14518786Y-13758786D01*
X14533071Y-13744500D01*
X14533071Y-13773071D01*
M02*
