%FSLAX45Y45*%
G04 Gerber Fmt 4.5, Leading zero omitted, Abs format (unit mm)*
G04 Created by KiCad (PCBNEW 5.1.9) date 2021-04-18 01:27:07*
%MOMM*%
%LPD*%
G01*
G04 APERTURE LIST*
%TA.AperFunction,Profile*%
%ADD10C,0.050000*%
%TD*%
%ADD11C,0.200000*%
%ADD12C,0.300000*%
G04 APERTURE END LIST*
D10*
X2413000Y-6223000D02*
X2413000Y-2413000D01*
X6223000Y-6223000D02*
X2413000Y-6223000D01*
X6223000Y-2413000D02*
X6223000Y-6223000D01*
X2413000Y-2413000D02*
X6223000Y-2413000D01*
D11*
D12*
X2696928Y-6691214D02*
X2696928Y-6391214D01*
X2768357Y-6391214D01*
X2811214Y-6405500D01*
X2839786Y-6434071D01*
X2854071Y-6462643D01*
X2868357Y-6519786D01*
X2868357Y-6562643D01*
X2854071Y-6619786D01*
X2839786Y-6648357D01*
X2811214Y-6676929D01*
X2768357Y-6691214D01*
X2696928Y-6691214D01*
X2996928Y-6691214D02*
X2996928Y-6491214D01*
X2996928Y-6548357D02*
X3011214Y-6519786D01*
X3025500Y-6505500D01*
X3054071Y-6491214D01*
X3082643Y-6491214D01*
X3182643Y-6691214D02*
X3182643Y-6491214D01*
X3182643Y-6391214D02*
X3168357Y-6405500D01*
X3182643Y-6419786D01*
X3196928Y-6405500D01*
X3182643Y-6391214D01*
X3182643Y-6419786D01*
X3368357Y-6691214D02*
X3339786Y-6676929D01*
X3325500Y-6648357D01*
X3325500Y-6391214D01*
X3525500Y-6691214D02*
X3496928Y-6676929D01*
X3482643Y-6648357D01*
X3482643Y-6391214D01*
X3868357Y-6691214D02*
X3868357Y-6391214D01*
X3968357Y-6605500D01*
X4068357Y-6391214D01*
X4068357Y-6691214D01*
X4339786Y-6691214D02*
X4339786Y-6534071D01*
X4325500Y-6505500D01*
X4296928Y-6491214D01*
X4239786Y-6491214D01*
X4211214Y-6505500D01*
X4339786Y-6676929D02*
X4311214Y-6691214D01*
X4239786Y-6691214D01*
X4211214Y-6676929D01*
X4196928Y-6648357D01*
X4196928Y-6619786D01*
X4211214Y-6591214D01*
X4239786Y-6576929D01*
X4311214Y-6576929D01*
X4339786Y-6562643D01*
X4482643Y-6491214D02*
X4482643Y-6791214D01*
X4482643Y-6505500D02*
X4511214Y-6491214D01*
X4568357Y-6491214D01*
X4596928Y-6505500D01*
X4611214Y-6519786D01*
X4625500Y-6548357D01*
X4625500Y-6634071D01*
X4611214Y-6662643D01*
X4596928Y-6676929D01*
X4568357Y-6691214D01*
X4511214Y-6691214D01*
X4482643Y-6676929D01*
X4754071Y-6662643D02*
X4768357Y-6676929D01*
X4754071Y-6691214D01*
X4739786Y-6676929D01*
X4754071Y-6662643D01*
X4754071Y-6691214D01*
X4754071Y-6505500D02*
X4768357Y-6519786D01*
X4754071Y-6534071D01*
X4739786Y-6519786D01*
X4754071Y-6505500D01*
X4754071Y-6534071D01*
M02*
