G04 #@! TF.GenerationSoftware,KiCad,Pcbnew,5.1.9*
G04 #@! TF.CreationDate,2021-04-18T01:28:33+02:00*
G04 #@! TF.ProjectId,Signalsimulator,5369676e-616c-4736-996d-756c61746f72,rev?*
G04 #@! TF.SameCoordinates,Original*
G04 #@! TF.FileFunction,Copper,L2,Bot*
G04 #@! TF.FilePolarity,Positive*
%FSLAX46Y46*%
G04 Gerber Fmt 4.6, Leading zero omitted, Abs format (unit mm)*
G04 Created by KiCad (PCBNEW 5.1.9) date 2021-04-18 01:28:33*
%MOMM*%
%LPD*%
G01*
G04 APERTURE LIST*
G04 #@! TA.AperFunction,ComponentPad*
%ADD10C,1.800000*%
G04 #@! TD*
G04 #@! TA.AperFunction,ComponentPad*
%ADD11R,1.800000X1.800000*%
G04 #@! TD*
G04 #@! TA.AperFunction,ComponentPad*
%ADD12O,1.400000X1.400000*%
G04 #@! TD*
G04 #@! TA.AperFunction,ComponentPad*
%ADD13C,1.400000*%
G04 #@! TD*
G04 #@! TA.AperFunction,ComponentPad*
%ADD14C,1.700000*%
G04 #@! TD*
G04 #@! TA.AperFunction,Conductor*
%ADD15C,0.250000*%
G04 #@! TD*
G04 APERTURE END LIST*
D10*
X58420000Y-38100000D03*
D11*
X55880000Y-38100000D03*
X48260000Y-30480000D03*
D10*
X50800000Y-30480000D03*
X50800000Y-55880000D03*
D11*
X48260000Y-55880000D03*
X48260000Y-48260000D03*
D10*
X50800000Y-48260000D03*
X58420000Y-45720000D03*
D11*
X55880000Y-45720000D03*
X48260000Y-38100000D03*
D10*
X50800000Y-38100000D03*
D12*
X33020000Y-27940000D03*
D13*
X40640000Y-27940000D03*
X35560000Y-25400000D03*
D12*
X27940000Y-25400000D03*
D13*
X44450000Y-58420000D03*
D12*
X44450000Y-50800000D03*
X44450000Y-40640000D03*
D13*
X44450000Y-48260000D03*
D12*
X30480000Y-30480000D03*
D13*
X38100000Y-30480000D03*
G04 #@! TA.AperFunction,ComponentPad*
G36*
G01*
X29880000Y-34710000D02*
X31080000Y-34710000D01*
G75*
G02*
X31330000Y-34960000I0J-250000D01*
G01*
X31330000Y-36160000D01*
G75*
G02*
X31080000Y-36410000I-250000J0D01*
G01*
X29880000Y-36410000D01*
G75*
G02*
X29630000Y-36160000I0J250000D01*
G01*
X29630000Y-34960000D01*
G75*
G02*
X29880000Y-34710000I250000J0D01*
G01*
G37*
G04 #@! TD.AperFunction*
D14*
X33020000Y-35560000D03*
X35560000Y-35560000D03*
X30480000Y-38100000D03*
X33020000Y-38100000D03*
X35560000Y-38100000D03*
D15*
X50800000Y-55880000D02*
X50800000Y-48260000D01*
X50800000Y-48260000D02*
X58420000Y-48260000D01*
X58420000Y-48260000D02*
X58420000Y-45720000D01*
X58420000Y-45720000D02*
X58420000Y-38100000D01*
X58420000Y-38100000D02*
X58420000Y-30480000D01*
X58420000Y-30480000D02*
X50800000Y-30480000D01*
X50800000Y-38100000D02*
X50800000Y-41910000D01*
X50800000Y-41910000D02*
X58420000Y-41910000D01*
X50800000Y-53340000D02*
X50800000Y-55880000D01*
X34290000Y-53340000D02*
X50800000Y-53340000D01*
X33020000Y-52070000D02*
X34290000Y-53340000D01*
X33020000Y-38100000D02*
X33020000Y-52070000D01*
X55880000Y-34290000D02*
X55880000Y-38100000D01*
X45720000Y-34290000D02*
X55880000Y-34290000D01*
X45720000Y-27940000D02*
X45720000Y-34290000D01*
X40640000Y-27940000D02*
X45720000Y-27940000D01*
X35560000Y-25400000D02*
X48260000Y-25400000D01*
X48260000Y-25400000D02*
X48260000Y-30480000D01*
X44450000Y-59690000D02*
X48260000Y-59690000D01*
X48260000Y-59690000D02*
X48260000Y-55880000D01*
X44450000Y-59690000D02*
X44450000Y-58420000D01*
X44450000Y-48260000D02*
X48260000Y-48260000D01*
X48260000Y-48260000D02*
X48260000Y-45720000D01*
X48260000Y-45720000D02*
X55880000Y-45720000D01*
X38100000Y-30480000D02*
X43180000Y-30480000D01*
X43180000Y-30480000D02*
X43180000Y-38100000D01*
X43180000Y-38100000D02*
X48260000Y-38100000D01*
X43180000Y-40640000D02*
X44450000Y-40640000D01*
X38100000Y-35560000D02*
X43180000Y-40640000D01*
X35560000Y-35560000D02*
X38100000Y-35560000D01*
X33020000Y-27940000D02*
X33020000Y-35560000D01*
X27940000Y-25400000D02*
X25400000Y-25400000D01*
X25400000Y-25400000D02*
X25400000Y-38100000D01*
X25400000Y-38100000D02*
X30480000Y-38100000D01*
X30480000Y-30480000D02*
X30480000Y-35560000D01*
X36830000Y-50800000D02*
X44450000Y-50800000D01*
X35560000Y-49530000D02*
X36830000Y-50800000D01*
X35560000Y-38100000D02*
X35560000Y-49530000D01*
M02*
