M48
; DRILL file {KiCad 5.1.9} date Sun Apr 18 01:27:09 2021
; FORMAT={-:-/ absolute / metric / decimal}
; #@! TF.CreationDate,2021-04-18T01:27:09+02:00
; #@! TF.GenerationSoftware,Kicad,Pcbnew,5.1.9
; #@! TF.FileFunction,Plated,1,2,PTH
FMAT,2
METRIC
T1C0.700
T2C0.900
T3C1.000
%
G90
G05
T1
X27.94Y-25.4
X30.48Y-30.48
X33.02Y-27.94
X35.56Y-25.4
X38.1Y-30.48
X40.64Y-27.94
X44.45Y-40.64
X44.45Y-48.26
X44.45Y-50.8
X44.45Y-58.42
T2
X48.26Y-30.48
X48.26Y-38.1
X48.26Y-48.26
X48.26Y-55.88
X50.8Y-30.48
X50.8Y-38.1
X50.8Y-48.26
X50.8Y-55.88
X55.88Y-38.1
X55.88Y-45.72
X58.42Y-38.1
X58.42Y-45.72
T3
X30.48Y-35.56
X30.48Y-38.1
X33.02Y-35.56
X33.02Y-38.1
X35.56Y-35.56
X35.56Y-38.1
T0
M30
