%FSLAX45Y45*%
G04 Gerber Fmt 4.5, Leading zero omitted, Abs format (unit mm)*
G04 Created by KiCad (PCBNEW 5.1.9) date 2021-04-18 01:27:07*
%MOMM*%
%LPD*%
G01*
G04 APERTURE LIST*
%TA.AperFunction,Profile*%
%ADD10C,0.050000*%
%TD*%
%ADD11C,0.200000*%
%ADD12C,0.300000*%
G04 APERTURE END LIST*
D10*
X2413000Y-6223000D02*
X2413000Y-2413000D01*
X6223000Y-6223000D02*
X2413000Y-6223000D01*
X6223000Y-2413000D02*
X6223000Y-6223000D01*
X2413000Y-2413000D02*
X6223000Y-2413000D01*
D11*
X2759000Y-2505000D02*
X2829000Y-2575000D01*
X2829000Y-2505000D02*
X2759000Y-2575000D01*
X3013000Y-3013000D02*
X3083000Y-3083000D01*
X3083000Y-3013000D02*
X3013000Y-3083000D01*
X3267000Y-2759000D02*
X3337000Y-2829000D01*
X3337000Y-2759000D02*
X3267000Y-2829000D01*
X3521000Y-2505000D02*
X3591000Y-2575000D01*
X3591000Y-2505000D02*
X3521000Y-2575000D01*
X3775000Y-3013000D02*
X3845000Y-3083000D01*
X3845000Y-3013000D02*
X3775000Y-3083000D01*
X4029000Y-2759000D02*
X4099000Y-2829000D01*
X4099000Y-2759000D02*
X4029000Y-2829000D01*
X4410000Y-4029000D02*
X4480000Y-4099000D01*
X4480000Y-4029000D02*
X4410000Y-4099000D01*
X4410000Y-4791000D02*
X4480000Y-4861000D01*
X4480000Y-4791000D02*
X4410000Y-4861000D01*
X4410000Y-5045000D02*
X4480000Y-5115000D01*
X4480000Y-5045000D02*
X4410000Y-5115000D01*
X4410000Y-5807000D02*
X4480000Y-5877000D01*
X4480000Y-5807000D02*
X4410000Y-5877000D01*
X4871000Y-3048000D02*
G75*
G03*
X4871000Y-3048000I-45000J0D01*
G01*
X4871000Y-3810000D02*
G75*
G03*
X4871000Y-3810000I-45000J0D01*
G01*
X4871000Y-4826000D02*
G75*
G03*
X4871000Y-4826000I-45000J0D01*
G01*
X4871000Y-5588000D02*
G75*
G03*
X4871000Y-5588000I-45000J0D01*
G01*
X5125000Y-3048000D02*
G75*
G03*
X5125000Y-3048000I-45000J0D01*
G01*
X5125000Y-3810000D02*
G75*
G03*
X5125000Y-3810000I-45000J0D01*
G01*
X5125000Y-4826000D02*
G75*
G03*
X5125000Y-4826000I-45000J0D01*
G01*
X5125000Y-5588000D02*
G75*
G03*
X5125000Y-5588000I-45000J0D01*
G01*
X5633000Y-3810000D02*
G75*
G03*
X5633000Y-3810000I-45000J0D01*
G01*
X5633000Y-4572000D02*
G75*
G03*
X5633000Y-4572000I-45000J0D01*
G01*
X5887000Y-3810000D02*
G75*
G03*
X5887000Y-3810000I-45000J0D01*
G01*
X5887000Y-4572000D02*
G75*
G03*
X5887000Y-4572000I-45000J0D01*
G01*
X3048000Y-3506000D02*
X3048000Y-3606000D01*
X2998000Y-3556000D02*
X3098000Y-3556000D01*
X3048000Y-3760000D02*
X3048000Y-3860000D01*
X2998000Y-3810000D02*
X3098000Y-3810000D01*
X3302000Y-3506000D02*
X3302000Y-3606000D01*
X3252000Y-3556000D02*
X3352000Y-3556000D01*
X3302000Y-3760000D02*
X3302000Y-3860000D01*
X3252000Y-3810000D02*
X3352000Y-3810000D01*
X3556000Y-3506000D02*
X3556000Y-3606000D01*
X3506000Y-3556000D02*
X3606000Y-3556000D01*
X3556000Y-3760000D02*
X3556000Y-3860000D01*
X3506000Y-3810000D02*
X3606000Y-3810000D01*
D12*
X2696928Y-6691214D02*
X2696928Y-6391214D01*
X2768357Y-6391214D01*
X2811214Y-6405500D01*
X2839786Y-6434071D01*
X2854071Y-6462643D01*
X2868357Y-6519786D01*
X2868357Y-6562643D01*
X2854071Y-6619786D01*
X2839786Y-6648357D01*
X2811214Y-6676929D01*
X2768357Y-6691214D01*
X2696928Y-6691214D01*
X2996928Y-6691214D02*
X2996928Y-6491214D01*
X2996928Y-6548357D02*
X3011214Y-6519786D01*
X3025500Y-6505500D01*
X3054071Y-6491214D01*
X3082643Y-6491214D01*
X3182643Y-6691214D02*
X3182643Y-6491214D01*
X3182643Y-6391214D02*
X3168357Y-6405500D01*
X3182643Y-6419786D01*
X3196928Y-6405500D01*
X3182643Y-6391214D01*
X3182643Y-6419786D01*
X3368357Y-6691214D02*
X3339786Y-6676929D01*
X3325500Y-6648357D01*
X3325500Y-6391214D01*
X3525500Y-6691214D02*
X3496928Y-6676929D01*
X3482643Y-6648357D01*
X3482643Y-6391214D01*
X3868357Y-6691214D02*
X3868357Y-6391214D01*
X3968357Y-6605500D01*
X4068357Y-6391214D01*
X4068357Y-6691214D01*
X4339786Y-6691214D02*
X4339786Y-6534071D01*
X4325500Y-6505500D01*
X4296928Y-6491214D01*
X4239786Y-6491214D01*
X4211214Y-6505500D01*
X4339786Y-6676929D02*
X4311214Y-6691214D01*
X4239786Y-6691214D01*
X4211214Y-6676929D01*
X4196928Y-6648357D01*
X4196928Y-6619786D01*
X4211214Y-6591214D01*
X4239786Y-6576929D01*
X4311214Y-6576929D01*
X4339786Y-6562643D01*
X4482643Y-6491214D02*
X4482643Y-6791214D01*
X4482643Y-6505500D02*
X4511214Y-6491214D01*
X4568357Y-6491214D01*
X4596928Y-6505500D01*
X4611214Y-6519786D01*
X4625500Y-6548357D01*
X4625500Y-6634071D01*
X4611214Y-6662643D01*
X4596928Y-6676929D01*
X4568357Y-6691214D01*
X4511214Y-6691214D01*
X4482643Y-6676929D01*
X4754071Y-6662643D02*
X4768357Y-6676929D01*
X4754071Y-6691214D01*
X4739786Y-6676929D01*
X4754071Y-6662643D01*
X4754071Y-6691214D01*
X4754071Y-6505500D02*
X4768357Y-6519786D01*
X4754071Y-6534071D01*
X4739786Y-6519786D01*
X4754071Y-6505500D01*
X4754071Y-6534071D01*
X2340500Y-7150500D02*
X2410500Y-7220500D01*
X2410500Y-7150500D02*
X2340500Y-7220500D01*
X2754071Y-7021214D02*
X2782643Y-7021214D01*
X2811214Y-7035500D01*
X2825500Y-7049786D01*
X2839786Y-7078357D01*
X2854071Y-7135500D01*
X2854071Y-7206929D01*
X2839786Y-7264071D01*
X2825500Y-7292643D01*
X2811214Y-7306929D01*
X2782643Y-7321214D01*
X2754071Y-7321214D01*
X2725500Y-7306929D01*
X2711214Y-7292643D01*
X2696928Y-7264071D01*
X2682643Y-7206929D01*
X2682643Y-7135500D01*
X2696928Y-7078357D01*
X2711214Y-7049786D01*
X2725500Y-7035500D01*
X2754071Y-7021214D01*
X2982643Y-7292643D02*
X2996928Y-7306929D01*
X2982643Y-7321214D01*
X2968357Y-7306929D01*
X2982643Y-7292643D01*
X2982643Y-7321214D01*
X3096928Y-7021214D02*
X3296928Y-7021214D01*
X3168357Y-7321214D01*
X3468357Y-7021214D02*
X3496928Y-7021214D01*
X3525500Y-7035500D01*
X3539786Y-7049786D01*
X3554071Y-7078357D01*
X3568357Y-7135500D01*
X3568357Y-7206929D01*
X3554071Y-7264071D01*
X3539786Y-7292643D01*
X3525500Y-7306929D01*
X3496928Y-7321214D01*
X3468357Y-7321214D01*
X3439786Y-7306929D01*
X3425500Y-7292643D01*
X3411214Y-7264071D01*
X3396928Y-7206929D01*
X3396928Y-7135500D01*
X3411214Y-7078357D01*
X3425500Y-7049786D01*
X3439786Y-7035500D01*
X3468357Y-7021214D01*
X3696928Y-7321214D02*
X3696928Y-7121214D01*
X3696928Y-7149786D02*
X3711214Y-7135500D01*
X3739786Y-7121214D01*
X3782643Y-7121214D01*
X3811214Y-7135500D01*
X3825500Y-7164071D01*
X3825500Y-7321214D01*
X3825500Y-7164071D02*
X3839786Y-7135500D01*
X3868357Y-7121214D01*
X3911214Y-7121214D01*
X3939786Y-7135500D01*
X3954071Y-7164071D01*
X3954071Y-7321214D01*
X4096928Y-7321214D02*
X4096928Y-7121214D01*
X4096928Y-7149786D02*
X4111214Y-7135500D01*
X4139786Y-7121214D01*
X4182643Y-7121214D01*
X4211214Y-7135500D01*
X4225500Y-7164071D01*
X4225500Y-7321214D01*
X4225500Y-7164071D02*
X4239786Y-7135500D01*
X4268357Y-7121214D01*
X4311214Y-7121214D01*
X4339786Y-7135500D01*
X4354071Y-7164071D01*
X4354071Y-7321214D01*
X4939786Y-7006929D02*
X4682643Y-7392643D01*
X5325500Y-7021214D02*
X5354071Y-7021214D01*
X5382643Y-7035500D01*
X5396928Y-7049786D01*
X5411214Y-7078357D01*
X5425500Y-7135500D01*
X5425500Y-7206929D01*
X5411214Y-7264071D01*
X5396928Y-7292643D01*
X5382643Y-7306929D01*
X5354071Y-7321214D01*
X5325500Y-7321214D01*
X5296928Y-7306929D01*
X5282643Y-7292643D01*
X5268357Y-7264071D01*
X5254071Y-7206929D01*
X5254071Y-7135500D01*
X5268357Y-7078357D01*
X5282643Y-7049786D01*
X5296928Y-7035500D01*
X5325500Y-7021214D01*
X5554071Y-7292643D02*
X5568357Y-7306929D01*
X5554071Y-7321214D01*
X5539786Y-7306929D01*
X5554071Y-7292643D01*
X5554071Y-7321214D01*
X5754071Y-7021214D02*
X5782643Y-7021214D01*
X5811214Y-7035500D01*
X5825500Y-7049786D01*
X5839786Y-7078357D01*
X5854071Y-7135500D01*
X5854071Y-7206929D01*
X5839786Y-7264071D01*
X5825500Y-7292643D01*
X5811214Y-7306929D01*
X5782643Y-7321214D01*
X5754071Y-7321214D01*
X5725500Y-7306929D01*
X5711214Y-7292643D01*
X5696928Y-7264071D01*
X5682643Y-7206929D01*
X5682643Y-7135500D01*
X5696928Y-7078357D01*
X5711214Y-7049786D01*
X5725500Y-7035500D01*
X5754071Y-7021214D01*
X5968357Y-7049786D02*
X5982643Y-7035500D01*
X6011214Y-7021214D01*
X6082643Y-7021214D01*
X6111214Y-7035500D01*
X6125500Y-7049786D01*
X6139786Y-7078357D01*
X6139786Y-7106929D01*
X6125500Y-7149786D01*
X5954071Y-7321214D01*
X6139786Y-7321214D01*
X6311214Y-7149786D02*
X6282643Y-7135500D01*
X6268357Y-7121214D01*
X6254071Y-7092643D01*
X6254071Y-7078357D01*
X6268357Y-7049786D01*
X6282643Y-7035500D01*
X6311214Y-7021214D01*
X6368357Y-7021214D01*
X6396928Y-7035500D01*
X6411214Y-7049786D01*
X6425500Y-7078357D01*
X6425500Y-7092643D01*
X6411214Y-7121214D01*
X6396928Y-7135500D01*
X6368357Y-7149786D01*
X6311214Y-7149786D01*
X6282643Y-7164071D01*
X6268357Y-7178357D01*
X6254071Y-7206929D01*
X6254071Y-7264071D01*
X6268357Y-7292643D01*
X6282643Y-7306929D01*
X6311214Y-7321214D01*
X6368357Y-7321214D01*
X6396928Y-7306929D01*
X6411214Y-7292643D01*
X6425500Y-7264071D01*
X6425500Y-7206929D01*
X6411214Y-7178357D01*
X6396928Y-7164071D01*
X6368357Y-7149786D01*
X6539786Y-7021214D02*
X6539786Y-7078357D01*
X6654071Y-7021214D02*
X6654071Y-7078357D01*
X7096928Y-7435500D02*
X7082643Y-7421214D01*
X7054071Y-7378357D01*
X7039786Y-7349786D01*
X7025500Y-7306929D01*
X7011214Y-7235500D01*
X7011214Y-7178357D01*
X7025500Y-7106929D01*
X7039786Y-7064071D01*
X7054071Y-7035500D01*
X7082643Y-6992643D01*
X7096928Y-6978357D01*
X7368357Y-7321214D02*
X7196928Y-7321214D01*
X7282643Y-7321214D02*
X7282643Y-7021214D01*
X7254071Y-7064071D01*
X7225500Y-7092643D01*
X7196928Y-7106929D01*
X7554071Y-7021214D02*
X7582643Y-7021214D01*
X7611214Y-7035500D01*
X7625500Y-7049786D01*
X7639786Y-7078357D01*
X7654071Y-7135500D01*
X7654071Y-7206929D01*
X7639786Y-7264071D01*
X7625500Y-7292643D01*
X7611214Y-7306929D01*
X7582643Y-7321214D01*
X7554071Y-7321214D01*
X7525500Y-7306929D01*
X7511214Y-7292643D01*
X7496928Y-7264071D01*
X7482643Y-7206929D01*
X7482643Y-7135500D01*
X7496928Y-7078357D01*
X7511214Y-7049786D01*
X7525500Y-7035500D01*
X7554071Y-7021214D01*
X8011214Y-7321214D02*
X8011214Y-7021214D01*
X8139786Y-7321214D02*
X8139786Y-7164071D01*
X8125500Y-7135500D01*
X8096928Y-7121214D01*
X8054071Y-7121214D01*
X8025500Y-7135500D01*
X8011214Y-7149786D01*
X8325500Y-7321214D02*
X8296928Y-7306929D01*
X8282643Y-7292643D01*
X8268357Y-7264071D01*
X8268357Y-7178357D01*
X8282643Y-7149786D01*
X8296928Y-7135500D01*
X8325500Y-7121214D01*
X8368357Y-7121214D01*
X8396928Y-7135500D01*
X8411214Y-7149786D01*
X8425500Y-7178357D01*
X8425500Y-7264071D01*
X8411214Y-7292643D01*
X8396928Y-7306929D01*
X8368357Y-7321214D01*
X8325500Y-7321214D01*
X8596928Y-7321214D02*
X8568357Y-7306929D01*
X8554071Y-7278357D01*
X8554071Y-7021214D01*
X8825500Y-7306929D02*
X8796928Y-7321214D01*
X8739786Y-7321214D01*
X8711214Y-7306929D01*
X8696928Y-7278357D01*
X8696928Y-7164071D01*
X8711214Y-7135500D01*
X8739786Y-7121214D01*
X8796928Y-7121214D01*
X8825500Y-7135500D01*
X8839786Y-7164071D01*
X8839786Y-7192643D01*
X8696928Y-7221214D01*
X8954071Y-7306929D02*
X8982643Y-7321214D01*
X9039786Y-7321214D01*
X9068357Y-7306929D01*
X9082643Y-7278357D01*
X9082643Y-7264071D01*
X9068357Y-7235500D01*
X9039786Y-7221214D01*
X8996928Y-7221214D01*
X8968357Y-7206929D01*
X8954071Y-7178357D01*
X8954071Y-7164071D01*
X8968357Y-7135500D01*
X8996928Y-7121214D01*
X9039786Y-7121214D01*
X9068357Y-7135500D01*
X9182643Y-7435500D02*
X9196928Y-7421214D01*
X9225500Y-7378357D01*
X9239786Y-7349786D01*
X9254071Y-7306929D01*
X9268357Y-7235500D01*
X9268357Y-7178357D01*
X9254071Y-7106929D01*
X9239786Y-7064071D01*
X9225500Y-7035500D01*
X9196928Y-6992643D01*
X9182643Y-6978357D01*
X2410500Y-7581500D02*
G75*
G03*
X2410500Y-7581500I-45000J0D01*
G01*
X2754071Y-7417214D02*
X2782643Y-7417214D01*
X2811214Y-7431500D01*
X2825500Y-7445786D01*
X2839786Y-7474357D01*
X2854071Y-7531500D01*
X2854071Y-7602929D01*
X2839786Y-7660071D01*
X2825500Y-7688643D01*
X2811214Y-7702929D01*
X2782643Y-7717214D01*
X2754071Y-7717214D01*
X2725500Y-7702929D01*
X2711214Y-7688643D01*
X2696928Y-7660071D01*
X2682643Y-7602929D01*
X2682643Y-7531500D01*
X2696928Y-7474357D01*
X2711214Y-7445786D01*
X2725500Y-7431500D01*
X2754071Y-7417214D01*
X2982643Y-7688643D02*
X2996928Y-7702929D01*
X2982643Y-7717214D01*
X2968357Y-7702929D01*
X2982643Y-7688643D01*
X2982643Y-7717214D01*
X3139786Y-7717214D02*
X3196928Y-7717214D01*
X3225500Y-7702929D01*
X3239786Y-7688643D01*
X3268357Y-7645786D01*
X3282643Y-7588643D01*
X3282643Y-7474357D01*
X3268357Y-7445786D01*
X3254071Y-7431500D01*
X3225500Y-7417214D01*
X3168357Y-7417214D01*
X3139786Y-7431500D01*
X3125500Y-7445786D01*
X3111214Y-7474357D01*
X3111214Y-7545786D01*
X3125500Y-7574357D01*
X3139786Y-7588643D01*
X3168357Y-7602929D01*
X3225500Y-7602929D01*
X3254071Y-7588643D01*
X3268357Y-7574357D01*
X3282643Y-7545786D01*
X3468357Y-7417214D02*
X3496928Y-7417214D01*
X3525500Y-7431500D01*
X3539786Y-7445786D01*
X3554071Y-7474357D01*
X3568357Y-7531500D01*
X3568357Y-7602929D01*
X3554071Y-7660071D01*
X3539786Y-7688643D01*
X3525500Y-7702929D01*
X3496928Y-7717214D01*
X3468357Y-7717214D01*
X3439786Y-7702929D01*
X3425500Y-7688643D01*
X3411214Y-7660071D01*
X3396928Y-7602929D01*
X3396928Y-7531500D01*
X3411214Y-7474357D01*
X3425500Y-7445786D01*
X3439786Y-7431500D01*
X3468357Y-7417214D01*
X3696928Y-7717214D02*
X3696928Y-7517214D01*
X3696928Y-7545786D02*
X3711214Y-7531500D01*
X3739786Y-7517214D01*
X3782643Y-7517214D01*
X3811214Y-7531500D01*
X3825500Y-7560071D01*
X3825500Y-7717214D01*
X3825500Y-7560071D02*
X3839786Y-7531500D01*
X3868357Y-7517214D01*
X3911214Y-7517214D01*
X3939786Y-7531500D01*
X3954071Y-7560071D01*
X3954071Y-7717214D01*
X4096928Y-7717214D02*
X4096928Y-7517214D01*
X4096928Y-7545786D02*
X4111214Y-7531500D01*
X4139786Y-7517214D01*
X4182643Y-7517214D01*
X4211214Y-7531500D01*
X4225500Y-7560071D01*
X4225500Y-7717214D01*
X4225500Y-7560071D02*
X4239786Y-7531500D01*
X4268357Y-7517214D01*
X4311214Y-7517214D01*
X4339786Y-7531500D01*
X4354071Y-7560071D01*
X4354071Y-7717214D01*
X4939786Y-7402929D02*
X4682643Y-7788643D01*
X5325500Y-7417214D02*
X5354071Y-7417214D01*
X5382643Y-7431500D01*
X5396928Y-7445786D01*
X5411214Y-7474357D01*
X5425500Y-7531500D01*
X5425500Y-7602929D01*
X5411214Y-7660071D01*
X5396928Y-7688643D01*
X5382643Y-7702929D01*
X5354071Y-7717214D01*
X5325500Y-7717214D01*
X5296928Y-7702929D01*
X5282643Y-7688643D01*
X5268357Y-7660071D01*
X5254071Y-7602929D01*
X5254071Y-7531500D01*
X5268357Y-7474357D01*
X5282643Y-7445786D01*
X5296928Y-7431500D01*
X5325500Y-7417214D01*
X5554071Y-7688643D02*
X5568357Y-7702929D01*
X5554071Y-7717214D01*
X5539786Y-7702929D01*
X5554071Y-7688643D01*
X5554071Y-7717214D01*
X5754071Y-7417214D02*
X5782643Y-7417214D01*
X5811214Y-7431500D01*
X5825500Y-7445786D01*
X5839786Y-7474357D01*
X5854071Y-7531500D01*
X5854071Y-7602929D01*
X5839786Y-7660071D01*
X5825500Y-7688643D01*
X5811214Y-7702929D01*
X5782643Y-7717214D01*
X5754071Y-7717214D01*
X5725500Y-7702929D01*
X5711214Y-7688643D01*
X5696928Y-7660071D01*
X5682643Y-7602929D01*
X5682643Y-7531500D01*
X5696928Y-7474357D01*
X5711214Y-7445786D01*
X5725500Y-7431500D01*
X5754071Y-7417214D01*
X5954071Y-7417214D02*
X6139786Y-7417214D01*
X6039786Y-7531500D01*
X6082643Y-7531500D01*
X6111214Y-7545786D01*
X6125500Y-7560071D01*
X6139786Y-7588643D01*
X6139786Y-7660071D01*
X6125500Y-7688643D01*
X6111214Y-7702929D01*
X6082643Y-7717214D01*
X5996928Y-7717214D01*
X5968357Y-7702929D01*
X5954071Y-7688643D01*
X6411214Y-7417214D02*
X6268357Y-7417214D01*
X6254071Y-7560071D01*
X6268357Y-7545786D01*
X6296928Y-7531500D01*
X6368357Y-7531500D01*
X6396928Y-7545786D01*
X6411214Y-7560071D01*
X6425500Y-7588643D01*
X6425500Y-7660071D01*
X6411214Y-7688643D01*
X6396928Y-7702929D01*
X6368357Y-7717214D01*
X6296928Y-7717214D01*
X6268357Y-7702929D01*
X6254071Y-7688643D01*
X6539786Y-7417214D02*
X6539786Y-7474357D01*
X6654071Y-7417214D02*
X6654071Y-7474357D01*
X7096928Y-7831500D02*
X7082643Y-7817214D01*
X7054071Y-7774357D01*
X7039786Y-7745786D01*
X7025500Y-7702929D01*
X7011214Y-7631500D01*
X7011214Y-7574357D01*
X7025500Y-7502929D01*
X7039786Y-7460071D01*
X7054071Y-7431500D01*
X7082643Y-7388643D01*
X7096928Y-7374357D01*
X7368357Y-7717214D02*
X7196928Y-7717214D01*
X7282643Y-7717214D02*
X7282643Y-7417214D01*
X7254071Y-7460071D01*
X7225500Y-7488643D01*
X7196928Y-7502929D01*
X7482643Y-7445786D02*
X7496928Y-7431500D01*
X7525500Y-7417214D01*
X7596928Y-7417214D01*
X7625500Y-7431500D01*
X7639786Y-7445786D01*
X7654071Y-7474357D01*
X7654071Y-7502929D01*
X7639786Y-7545786D01*
X7468357Y-7717214D01*
X7654071Y-7717214D01*
X8011214Y-7717214D02*
X8011214Y-7417214D01*
X8139786Y-7717214D02*
X8139786Y-7560071D01*
X8125500Y-7531500D01*
X8096928Y-7517214D01*
X8054071Y-7517214D01*
X8025500Y-7531500D01*
X8011214Y-7545786D01*
X8325500Y-7717214D02*
X8296928Y-7702929D01*
X8282643Y-7688643D01*
X8268357Y-7660071D01*
X8268357Y-7574357D01*
X8282643Y-7545786D01*
X8296928Y-7531500D01*
X8325500Y-7517214D01*
X8368357Y-7517214D01*
X8396928Y-7531500D01*
X8411214Y-7545786D01*
X8425500Y-7574357D01*
X8425500Y-7660071D01*
X8411214Y-7688643D01*
X8396928Y-7702929D01*
X8368357Y-7717214D01*
X8325500Y-7717214D01*
X8596928Y-7717214D02*
X8568357Y-7702929D01*
X8554071Y-7674357D01*
X8554071Y-7417214D01*
X8825500Y-7702929D02*
X8796928Y-7717214D01*
X8739786Y-7717214D01*
X8711214Y-7702929D01*
X8696928Y-7674357D01*
X8696928Y-7560071D01*
X8711214Y-7531500D01*
X8739786Y-7517214D01*
X8796928Y-7517214D01*
X8825500Y-7531500D01*
X8839786Y-7560071D01*
X8839786Y-7588643D01*
X8696928Y-7617214D01*
X8954071Y-7702929D02*
X8982643Y-7717214D01*
X9039786Y-7717214D01*
X9068357Y-7702929D01*
X9082643Y-7674357D01*
X9082643Y-7660071D01*
X9068357Y-7631500D01*
X9039786Y-7617214D01*
X8996928Y-7617214D01*
X8968357Y-7602929D01*
X8954071Y-7574357D01*
X8954071Y-7560071D01*
X8968357Y-7531500D01*
X8996928Y-7517214D01*
X9039786Y-7517214D01*
X9068357Y-7531500D01*
X9182643Y-7831500D02*
X9196928Y-7817214D01*
X9225500Y-7774357D01*
X9239786Y-7745786D01*
X9254071Y-7702929D01*
X9268357Y-7631500D01*
X9268357Y-7574357D01*
X9254071Y-7502929D01*
X9239786Y-7460071D01*
X9225500Y-7431500D01*
X9196928Y-7388643D01*
X9182643Y-7374357D01*
X2360500Y-7927500D02*
X2360500Y-8027500D01*
X2310500Y-7977500D02*
X2410500Y-7977500D01*
X2854071Y-8113214D02*
X2682643Y-8113214D01*
X2768357Y-8113214D02*
X2768357Y-7813214D01*
X2739786Y-7856071D01*
X2711214Y-7884643D01*
X2682643Y-7898929D01*
X2982643Y-8084643D02*
X2996928Y-8098929D01*
X2982643Y-8113214D01*
X2968357Y-8098929D01*
X2982643Y-8084643D01*
X2982643Y-8113214D01*
X3182643Y-7813214D02*
X3211214Y-7813214D01*
X3239786Y-7827500D01*
X3254071Y-7841786D01*
X3268357Y-7870357D01*
X3282643Y-7927500D01*
X3282643Y-7998929D01*
X3268357Y-8056071D01*
X3254071Y-8084643D01*
X3239786Y-8098929D01*
X3211214Y-8113214D01*
X3182643Y-8113214D01*
X3154071Y-8098929D01*
X3139786Y-8084643D01*
X3125500Y-8056071D01*
X3111214Y-7998929D01*
X3111214Y-7927500D01*
X3125500Y-7870357D01*
X3139786Y-7841786D01*
X3154071Y-7827500D01*
X3182643Y-7813214D01*
X3468357Y-7813214D02*
X3496928Y-7813214D01*
X3525500Y-7827500D01*
X3539786Y-7841786D01*
X3554071Y-7870357D01*
X3568357Y-7927500D01*
X3568357Y-7998929D01*
X3554071Y-8056071D01*
X3539786Y-8084643D01*
X3525500Y-8098929D01*
X3496928Y-8113214D01*
X3468357Y-8113214D01*
X3439786Y-8098929D01*
X3425500Y-8084643D01*
X3411214Y-8056071D01*
X3396928Y-7998929D01*
X3396928Y-7927500D01*
X3411214Y-7870357D01*
X3425500Y-7841786D01*
X3439786Y-7827500D01*
X3468357Y-7813214D01*
X3696928Y-8113214D02*
X3696928Y-7913214D01*
X3696928Y-7941786D02*
X3711214Y-7927500D01*
X3739786Y-7913214D01*
X3782643Y-7913214D01*
X3811214Y-7927500D01*
X3825500Y-7956071D01*
X3825500Y-8113214D01*
X3825500Y-7956071D02*
X3839786Y-7927500D01*
X3868357Y-7913214D01*
X3911214Y-7913214D01*
X3939786Y-7927500D01*
X3954071Y-7956071D01*
X3954071Y-8113214D01*
X4096928Y-8113214D02*
X4096928Y-7913214D01*
X4096928Y-7941786D02*
X4111214Y-7927500D01*
X4139786Y-7913214D01*
X4182643Y-7913214D01*
X4211214Y-7927500D01*
X4225500Y-7956071D01*
X4225500Y-8113214D01*
X4225500Y-7956071D02*
X4239786Y-7927500D01*
X4268357Y-7913214D01*
X4311214Y-7913214D01*
X4339786Y-7927500D01*
X4354071Y-7956071D01*
X4354071Y-8113214D01*
X4939786Y-7798929D02*
X4682643Y-8184643D01*
X5325500Y-7813214D02*
X5354071Y-7813214D01*
X5382643Y-7827500D01*
X5396928Y-7841786D01*
X5411214Y-7870357D01*
X5425500Y-7927500D01*
X5425500Y-7998929D01*
X5411214Y-8056071D01*
X5396928Y-8084643D01*
X5382643Y-8098929D01*
X5354071Y-8113214D01*
X5325500Y-8113214D01*
X5296928Y-8098929D01*
X5282643Y-8084643D01*
X5268357Y-8056071D01*
X5254071Y-7998929D01*
X5254071Y-7927500D01*
X5268357Y-7870357D01*
X5282643Y-7841786D01*
X5296928Y-7827500D01*
X5325500Y-7813214D01*
X5554071Y-8084643D02*
X5568357Y-8098929D01*
X5554071Y-8113214D01*
X5539786Y-8098929D01*
X5554071Y-8084643D01*
X5554071Y-8113214D01*
X5754071Y-7813214D02*
X5782643Y-7813214D01*
X5811214Y-7827500D01*
X5825500Y-7841786D01*
X5839786Y-7870357D01*
X5854071Y-7927500D01*
X5854071Y-7998929D01*
X5839786Y-8056071D01*
X5825500Y-8084643D01*
X5811214Y-8098929D01*
X5782643Y-8113214D01*
X5754071Y-8113214D01*
X5725500Y-8098929D01*
X5711214Y-8084643D01*
X5696928Y-8056071D01*
X5682643Y-7998929D01*
X5682643Y-7927500D01*
X5696928Y-7870357D01*
X5711214Y-7841786D01*
X5725500Y-7827500D01*
X5754071Y-7813214D01*
X5954071Y-7813214D02*
X6139786Y-7813214D01*
X6039786Y-7927500D01*
X6082643Y-7927500D01*
X6111214Y-7941786D01*
X6125500Y-7956071D01*
X6139786Y-7984643D01*
X6139786Y-8056071D01*
X6125500Y-8084643D01*
X6111214Y-8098929D01*
X6082643Y-8113214D01*
X5996928Y-8113214D01*
X5968357Y-8098929D01*
X5954071Y-8084643D01*
X6282643Y-8113214D02*
X6339786Y-8113214D01*
X6368357Y-8098929D01*
X6382643Y-8084643D01*
X6411214Y-8041786D01*
X6425500Y-7984643D01*
X6425500Y-7870357D01*
X6411214Y-7841786D01*
X6396928Y-7827500D01*
X6368357Y-7813214D01*
X6311214Y-7813214D01*
X6282643Y-7827500D01*
X6268357Y-7841786D01*
X6254071Y-7870357D01*
X6254071Y-7941786D01*
X6268357Y-7970357D01*
X6282643Y-7984643D01*
X6311214Y-7998929D01*
X6368357Y-7998929D01*
X6396928Y-7984643D01*
X6411214Y-7970357D01*
X6425500Y-7941786D01*
X6539786Y-7813214D02*
X6539786Y-7870357D01*
X6654071Y-7813214D02*
X6654071Y-7870357D01*
X7096928Y-8227500D02*
X7082643Y-8213214D01*
X7054071Y-8170357D01*
X7039786Y-8141786D01*
X7025500Y-8098929D01*
X7011214Y-8027500D01*
X7011214Y-7970357D01*
X7025500Y-7898929D01*
X7039786Y-7856071D01*
X7054071Y-7827500D01*
X7082643Y-7784643D01*
X7096928Y-7770357D01*
X7339786Y-7813214D02*
X7282643Y-7813214D01*
X7254071Y-7827500D01*
X7239786Y-7841786D01*
X7211214Y-7884643D01*
X7196928Y-7941786D01*
X7196928Y-8056071D01*
X7211214Y-8084643D01*
X7225500Y-8098929D01*
X7254071Y-8113214D01*
X7311214Y-8113214D01*
X7339786Y-8098929D01*
X7354071Y-8084643D01*
X7368357Y-8056071D01*
X7368357Y-7984643D01*
X7354071Y-7956071D01*
X7339786Y-7941786D01*
X7311214Y-7927500D01*
X7254071Y-7927500D01*
X7225500Y-7941786D01*
X7211214Y-7956071D01*
X7196928Y-7984643D01*
X7725500Y-8113214D02*
X7725500Y-7813214D01*
X7854071Y-8113214D02*
X7854071Y-7956071D01*
X7839786Y-7927500D01*
X7811214Y-7913214D01*
X7768357Y-7913214D01*
X7739786Y-7927500D01*
X7725500Y-7941786D01*
X8039786Y-8113214D02*
X8011214Y-8098929D01*
X7996928Y-8084643D01*
X7982643Y-8056071D01*
X7982643Y-7970357D01*
X7996928Y-7941786D01*
X8011214Y-7927500D01*
X8039786Y-7913214D01*
X8082643Y-7913214D01*
X8111214Y-7927500D01*
X8125500Y-7941786D01*
X8139786Y-7970357D01*
X8139786Y-8056071D01*
X8125500Y-8084643D01*
X8111214Y-8098929D01*
X8082643Y-8113214D01*
X8039786Y-8113214D01*
X8311214Y-8113214D02*
X8282643Y-8098929D01*
X8268357Y-8070357D01*
X8268357Y-7813214D01*
X8539786Y-8098929D02*
X8511214Y-8113214D01*
X8454071Y-8113214D01*
X8425500Y-8098929D01*
X8411214Y-8070357D01*
X8411214Y-7956071D01*
X8425500Y-7927500D01*
X8454071Y-7913214D01*
X8511214Y-7913214D01*
X8539786Y-7927500D01*
X8554071Y-7956071D01*
X8554071Y-7984643D01*
X8411214Y-8013214D01*
X8668357Y-8098929D02*
X8696928Y-8113214D01*
X8754071Y-8113214D01*
X8782643Y-8098929D01*
X8796928Y-8070357D01*
X8796928Y-8056071D01*
X8782643Y-8027500D01*
X8754071Y-8013214D01*
X8711214Y-8013214D01*
X8682643Y-7998929D01*
X8668357Y-7970357D01*
X8668357Y-7956071D01*
X8682643Y-7927500D01*
X8711214Y-7913214D01*
X8754071Y-7913214D01*
X8782643Y-7927500D01*
X8896928Y-8227500D02*
X8911214Y-8213214D01*
X8939786Y-8170357D01*
X8954071Y-8141786D01*
X8968357Y-8098929D01*
X8982643Y-8027500D01*
X8982643Y-7970357D01*
X8968357Y-7898929D01*
X8954071Y-7856071D01*
X8939786Y-7827500D01*
X8911214Y-7784643D01*
X8896928Y-7770357D01*
M02*
