G04 #@! TF.GenerationSoftware,KiCad,Pcbnew,5.1.10*
G04 #@! TF.CreationDate,2021-05-04T21:13:44+02:00*
G04 #@! TF.ProjectId,Weichensimulator-rechts,57656963-6865-46e7-9369-6d756c61746f,rev?*
G04 #@! TF.SameCoordinates,Original*
G04 #@! TF.FileFunction,Legend,Bot*
G04 #@! TF.FilePolarity,Positive*
%FSLAX46Y46*%
G04 Gerber Fmt 4.6, Leading zero omitted, Abs format (unit mm)*
G04 Created by KiCad (PCBNEW 5.1.10) date 2021-05-04 21:13:44*
%MOMM*%
%LPD*%
G01*
G04 APERTURE LIST*
%ADD10C,0.300000*%
%ADD11C,0.120000*%
%ADD12C,3.200000*%
%ADD13C,1.500000*%
%ADD14C,1.800000*%
%ADD15R,1.800000X1.800000*%
%ADD16C,0.100000*%
%ADD17O,1.600000X1.600000*%
%ADD18C,1.600000*%
%ADD19O,1.700000X1.700000*%
%ADD20R,1.700000X1.700000*%
G04 APERTURE END LIST*
D10*
X121007142Y-125980000D02*
X120292857Y-125980000D01*
X121150000Y-126408571D02*
X120650000Y-124908571D01*
X120150000Y-126408571D01*
X117717142Y-124980000D02*
X117860000Y-124908571D01*
X118074285Y-124908571D01*
X118288571Y-124980000D01*
X118431428Y-125122857D01*
X118502857Y-125265714D01*
X118574285Y-125551428D01*
X118574285Y-125765714D01*
X118502857Y-126051428D01*
X118431428Y-126194285D01*
X118288571Y-126337142D01*
X118074285Y-126408571D01*
X117931428Y-126408571D01*
X117717142Y-126337142D01*
X117645714Y-126265714D01*
X117645714Y-125765714D01*
X117931428Y-125765714D01*
X145731428Y-117640714D02*
X145874285Y-117569285D01*
X146160000Y-117569285D01*
X146302857Y-117640714D01*
X146445714Y-117783571D01*
X146517142Y-117926428D01*
X146517142Y-118212142D01*
X146445714Y-118355000D01*
X146302857Y-118497857D01*
X146160000Y-118569285D01*
X145874285Y-118569285D01*
X145731428Y-118497857D01*
X146017142Y-117069285D02*
X146374285Y-117140714D01*
X146731428Y-117355000D01*
X146945714Y-117712142D01*
X147017142Y-118069285D01*
X146945714Y-118426428D01*
X146731428Y-118783571D01*
X146374285Y-118997857D01*
X146017142Y-119069285D01*
X145660000Y-118997857D01*
X145302857Y-118783571D01*
X145088571Y-118426428D01*
X145017142Y-118069285D01*
X145088571Y-117712142D01*
X145302857Y-117355000D01*
X145660000Y-117140714D01*
X146017142Y-117069285D01*
X144374285Y-118783571D02*
X144374285Y-117283571D01*
X144374285Y-117997857D02*
X143517142Y-117997857D01*
X143517142Y-118783571D02*
X143517142Y-117283571D01*
X142945714Y-117283571D02*
X142017142Y-117283571D01*
X142517142Y-117855000D01*
X142302857Y-117855000D01*
X142160000Y-117926428D01*
X142088571Y-117997857D01*
X142017142Y-118140714D01*
X142017142Y-118497857D01*
X142088571Y-118640714D01*
X142160000Y-118712142D01*
X142302857Y-118783571D01*
X142731428Y-118783571D01*
X142874285Y-118712142D01*
X142945714Y-118640714D01*
X141374285Y-118212142D02*
X140231428Y-118212142D01*
X139517142Y-118783571D02*
X139517142Y-117283571D01*
X139517142Y-117997857D02*
X138660000Y-117997857D01*
X138660000Y-118783571D02*
X138660000Y-117283571D01*
X137231428Y-117283571D02*
X137945714Y-117283571D01*
X138017142Y-117997857D01*
X137945714Y-117926428D01*
X137802857Y-117855000D01*
X137445714Y-117855000D01*
X137302857Y-117926428D01*
X137231428Y-117997857D01*
X137160000Y-118140714D01*
X137160000Y-118497857D01*
X137231428Y-118640714D01*
X137302857Y-118712142D01*
X137445714Y-118783571D01*
X137802857Y-118783571D01*
X137945714Y-118712142D01*
X138017142Y-118640714D01*
X136517142Y-118783571D02*
X136517142Y-117283571D01*
X135660000Y-118783571D01*
X135660000Y-117283571D01*
X134302857Y-117283571D02*
X134588571Y-117283571D01*
X134731428Y-117355000D01*
X134802857Y-117426428D01*
X134945714Y-117640714D01*
X135017142Y-117926428D01*
X135017142Y-118497857D01*
X134945714Y-118640714D01*
X134874285Y-118712142D01*
X134731428Y-118783571D01*
X134445714Y-118783571D01*
X134302857Y-118712142D01*
X134231428Y-118640714D01*
X134160000Y-118497857D01*
X134160000Y-118140714D01*
X134231428Y-117997857D01*
X134302857Y-117926428D01*
X134445714Y-117855000D01*
X134731428Y-117855000D01*
X134874285Y-117926428D01*
X134945714Y-117997857D01*
X135017142Y-118140714D01*
X132445714Y-117426428D02*
X132374285Y-117355000D01*
X132231428Y-117283571D01*
X131874285Y-117283571D01*
X131731428Y-117355000D01*
X131660000Y-117426428D01*
X131588571Y-117569285D01*
X131588571Y-117712142D01*
X131660000Y-117926428D01*
X132517142Y-118783571D01*
X131588571Y-118783571D01*
X130660000Y-117283571D02*
X130517142Y-117283571D01*
X130374285Y-117355000D01*
X130302857Y-117426428D01*
X130231428Y-117569285D01*
X130160000Y-117855000D01*
X130160000Y-118212142D01*
X130231428Y-118497857D01*
X130302857Y-118640714D01*
X130374285Y-118712142D01*
X130517142Y-118783571D01*
X130660000Y-118783571D01*
X130802857Y-118712142D01*
X130874285Y-118640714D01*
X130945714Y-118497857D01*
X131017142Y-118212142D01*
X131017142Y-117855000D01*
X130945714Y-117569285D01*
X130874285Y-117426428D01*
X130802857Y-117355000D01*
X130660000Y-117283571D01*
X129588571Y-117426428D02*
X129517142Y-117355000D01*
X129374285Y-117283571D01*
X129017142Y-117283571D01*
X128874285Y-117355000D01*
X128802857Y-117426428D01*
X128731428Y-117569285D01*
X128731428Y-117712142D01*
X128802857Y-117926428D01*
X129660000Y-118783571D01*
X128731428Y-118783571D01*
X127302857Y-118783571D02*
X128160000Y-118783571D01*
X127731428Y-118783571D02*
X127731428Y-117283571D01*
X127874285Y-117497857D01*
X128017142Y-117640714D01*
X128160000Y-117712142D01*
X145374285Y-119833571D02*
X145017142Y-121333571D01*
X144731428Y-120262142D01*
X144445714Y-121333571D01*
X144088571Y-119833571D01*
X142945714Y-121262142D02*
X143088571Y-121333571D01*
X143374285Y-121333571D01*
X143517142Y-121262142D01*
X143588571Y-121119285D01*
X143588571Y-120547857D01*
X143517142Y-120405000D01*
X143374285Y-120333571D01*
X143088571Y-120333571D01*
X142945714Y-120405000D01*
X142874285Y-120547857D01*
X142874285Y-120690714D01*
X143588571Y-120833571D01*
X142231428Y-121333571D02*
X142231428Y-120333571D01*
X142231428Y-119833571D02*
X142302857Y-119905000D01*
X142231428Y-119976428D01*
X142160000Y-119905000D01*
X142231428Y-119833571D01*
X142231428Y-119976428D01*
X140874285Y-121262142D02*
X141017142Y-121333571D01*
X141302857Y-121333571D01*
X141445714Y-121262142D01*
X141517142Y-121190714D01*
X141588571Y-121047857D01*
X141588571Y-120619285D01*
X141517142Y-120476428D01*
X141445714Y-120405000D01*
X141302857Y-120333571D01*
X141017142Y-120333571D01*
X140874285Y-120405000D01*
X140231428Y-121333571D02*
X140231428Y-119833571D01*
X139588571Y-121333571D02*
X139588571Y-120547857D01*
X139660000Y-120405000D01*
X139802857Y-120333571D01*
X140017142Y-120333571D01*
X140160000Y-120405000D01*
X140231428Y-120476428D01*
X138302857Y-121262142D02*
X138445714Y-121333571D01*
X138731428Y-121333571D01*
X138874285Y-121262142D01*
X138945714Y-121119285D01*
X138945714Y-120547857D01*
X138874285Y-120405000D01*
X138731428Y-120333571D01*
X138445714Y-120333571D01*
X138302857Y-120405000D01*
X138231428Y-120547857D01*
X138231428Y-120690714D01*
X138945714Y-120833571D01*
X136445714Y-121333571D02*
X136445714Y-120333571D01*
X136445714Y-120619285D02*
X136374285Y-120476428D01*
X136302857Y-120405000D01*
X136160000Y-120333571D01*
X136017142Y-120333571D01*
X134945714Y-121262142D02*
X135088571Y-121333571D01*
X135374285Y-121333571D01*
X135517142Y-121262142D01*
X135588571Y-121119285D01*
X135588571Y-120547857D01*
X135517142Y-120405000D01*
X135374285Y-120333571D01*
X135088571Y-120333571D01*
X134945714Y-120405000D01*
X134874285Y-120547857D01*
X134874285Y-120690714D01*
X135588571Y-120833571D01*
X133231428Y-120333571D02*
X132874285Y-121333571D01*
X132517142Y-120333571D01*
X131160000Y-121333571D02*
X132017142Y-121333571D01*
X131588571Y-121333571D02*
X131588571Y-119833571D01*
X131731428Y-120047857D01*
X131874285Y-120190714D01*
X132017142Y-120262142D01*
X130517142Y-121190714D02*
X130445714Y-121262142D01*
X130517142Y-121333571D01*
X130588571Y-121262142D01*
X130517142Y-121190714D01*
X130517142Y-121333571D01*
X129517142Y-119833571D02*
X129374285Y-119833571D01*
X129231428Y-119905000D01*
X129160000Y-119976428D01*
X129088571Y-120119285D01*
X129017142Y-120405000D01*
X129017142Y-120762142D01*
X129088571Y-121047857D01*
X129160000Y-121190714D01*
X129231428Y-121262142D01*
X129374285Y-121333571D01*
X129517142Y-121333571D01*
X129660000Y-121262142D01*
X129731428Y-121190714D01*
X129802857Y-121047857D01*
X129874285Y-120762142D01*
X129874285Y-120405000D01*
X129802857Y-120119285D01*
X129731428Y-119976428D01*
X129660000Y-119905000D01*
X129517142Y-119833571D01*
D11*
X121920000Y-124460000D02*
X121920000Y-123190000D01*
X120650000Y-124460000D02*
X121920000Y-124460000D01*
X117730000Y-122147071D02*
X117730000Y-121750000D01*
X118490000Y-122147071D02*
X118490000Y-121750000D01*
X117730000Y-113090000D02*
X117730000Y-119090000D01*
X118490000Y-113090000D02*
X117730000Y-113090000D01*
X118490000Y-119090000D02*
X118490000Y-113090000D01*
X119380000Y-121750000D02*
X119380000Y-119090000D01*
X120270000Y-122080000D02*
X120270000Y-121750000D01*
X121030000Y-122080000D02*
X121030000Y-121750000D01*
X120370000Y-119090000D02*
X120370000Y-113090000D01*
X120490000Y-119090000D02*
X120490000Y-113090000D01*
X120610000Y-119090000D02*
X120610000Y-113090000D01*
X120730000Y-119090000D02*
X120730000Y-113090000D01*
X120850000Y-119090000D02*
X120850000Y-113090000D01*
X120970000Y-119090000D02*
X120970000Y-113090000D01*
X120270000Y-113090000D02*
X120270000Y-119090000D01*
X121030000Y-113090000D02*
X120270000Y-113090000D01*
X121030000Y-119090000D02*
X121030000Y-113090000D01*
X121980000Y-119090000D02*
X121980000Y-121750000D01*
X116780000Y-119090000D02*
X121980000Y-119090000D01*
X116780000Y-121750000D02*
X116780000Y-119090000D01*
X121980000Y-121750000D02*
X116780000Y-121750000D01*
X139530000Y-88840000D02*
X139530000Y-94040000D01*
X139530000Y-94040000D02*
X136870000Y-94040000D01*
X136870000Y-94040000D02*
X136870000Y-88840000D01*
X136870000Y-88840000D02*
X139530000Y-88840000D01*
X136870000Y-89790000D02*
X130870000Y-89790000D01*
X130870000Y-89790000D02*
X130870000Y-90550000D01*
X130870000Y-90550000D02*
X136870000Y-90550000D01*
X136870000Y-89850000D02*
X130870000Y-89850000D01*
X136870000Y-89970000D02*
X130870000Y-89970000D01*
X136870000Y-90090000D02*
X130870000Y-90090000D01*
X136870000Y-90210000D02*
X130870000Y-90210000D01*
X136870000Y-90330000D02*
X130870000Y-90330000D01*
X136870000Y-90450000D02*
X130870000Y-90450000D01*
X139860000Y-89790000D02*
X139530000Y-89790000D01*
X139860000Y-90550000D02*
X139530000Y-90550000D01*
X139530000Y-91440000D02*
X136870000Y-91440000D01*
X136870000Y-92330000D02*
X130870000Y-92330000D01*
X130870000Y-92330000D02*
X130870000Y-93090000D01*
X130870000Y-93090000D02*
X136870000Y-93090000D01*
X139927071Y-92330000D02*
X139530000Y-92330000D01*
X139927071Y-93090000D02*
X139530000Y-93090000D01*
X142240000Y-90170000D02*
X142240000Y-88900000D01*
X142240000Y-88900000D02*
X140970000Y-88900000D01*
X144780000Y-88900000D02*
X143510000Y-88900000D01*
X144780000Y-90170000D02*
X144780000Y-88900000D01*
X142467071Y-93090000D02*
X142070000Y-93090000D01*
X142467071Y-92330000D02*
X142070000Y-92330000D01*
X133410000Y-93090000D02*
X139410000Y-93090000D01*
X133410000Y-92330000D02*
X133410000Y-93090000D01*
X139410000Y-92330000D02*
X133410000Y-92330000D01*
X142070000Y-91440000D02*
X139410000Y-91440000D01*
X142400000Y-90550000D02*
X142070000Y-90550000D01*
X142400000Y-89790000D02*
X142070000Y-89790000D01*
X139410000Y-90450000D02*
X133410000Y-90450000D01*
X139410000Y-90330000D02*
X133410000Y-90330000D01*
X139410000Y-90210000D02*
X133410000Y-90210000D01*
X139410000Y-90090000D02*
X133410000Y-90090000D01*
X139410000Y-89970000D02*
X133410000Y-89970000D01*
X139410000Y-89850000D02*
X133410000Y-89850000D01*
X133410000Y-90550000D02*
X139410000Y-90550000D01*
X133410000Y-89790000D02*
X133410000Y-90550000D01*
X139410000Y-89790000D02*
X133410000Y-89790000D01*
X139410000Y-88840000D02*
X142070000Y-88840000D01*
X139410000Y-94040000D02*
X139410000Y-88840000D01*
X142070000Y-94040000D02*
X139410000Y-94040000D01*
X142070000Y-88840000D02*
X142070000Y-94040000D01*
%LPC*%
D12*
X120650000Y-92710000D03*
D13*
X128270000Y-123190000D03*
X130810000Y-123190000D03*
X135890000Y-123190000D03*
X140970000Y-123190000D03*
X146050000Y-123190000D03*
X146050000Y-115570000D03*
X140970000Y-115570000D03*
X135890000Y-115570000D03*
X130810000Y-115570000D03*
X128270000Y-115570000D03*
D14*
X123190000Y-107950000D03*
D15*
X125730000Y-107950000D03*
X146050000Y-107950000D03*
D14*
X148590000Y-107950000D03*
X126913949Y-98973949D03*
D16*
G36*
X129982792Y-100770000D02*
G01*
X128710000Y-102042792D01*
X127437208Y-100770000D01*
X128710000Y-99497208D01*
X129982792Y-100770000D01*
G37*
D17*
X135890000Y-97790000D03*
D18*
X135890000Y-105410000D03*
D19*
X118110000Y-123190000D03*
D20*
X120650000Y-123190000D03*
X140970000Y-90170000D03*
D19*
X140970000Y-92710000D03*
X143510000Y-92710000D03*
D20*
X143510000Y-90170000D03*
D12*
X151130000Y-123190000D03*
M02*
