G04 #@! TF.GenerationSoftware,KiCad,Pcbnew,5.1.10*
G04 #@! TF.CreationDate,2021-05-04T21:13:44+02:00*
G04 #@! TF.ProjectId,Weichensimulator-rechts,57656963-6865-46e7-9369-6d756c61746f,rev?*
G04 #@! TF.SameCoordinates,Original*
G04 #@! TF.FileFunction,Legend,Top*
G04 #@! TF.FilePolarity,Positive*
%FSLAX46Y46*%
G04 Gerber Fmt 4.6, Leading zero omitted, Abs format (unit mm)*
G04 Created by KiCad (PCBNEW 5.1.10) date 2021-05-04 21:13:44*
%MOMM*%
%LPD*%
G01*
G04 APERTURE LIST*
%ADD10C,0.200000*%
%ADD11C,0.100000*%
%ADD12C,0.120000*%
%ADD13C,0.254000*%
%ADD14C,0.150000*%
%ADD15C,3.200000*%
%ADD16C,1.500000*%
%ADD17C,1.800000*%
%ADD18R,1.800000X1.800000*%
%ADD19O,1.600000X1.600000*%
%ADD20C,1.600000*%
%ADD21O,1.700000X1.700000*%
%ADD22R,1.700000X1.700000*%
G04 APERTURE END LIST*
D10*
X128170000Y-124990000D02*
X128170000Y-124990000D01*
X128270000Y-124990000D02*
X128270000Y-124990000D01*
X128170000Y-124990000D02*
X128170000Y-124990000D01*
D11*
X127070000Y-114280000D02*
X127070000Y-124480000D01*
X147270000Y-114280000D02*
X127070000Y-114280000D01*
X147270000Y-124480000D02*
X147270000Y-114280000D01*
X127070000Y-124480000D02*
X147270000Y-124480000D01*
D10*
X128070000Y-124990000D02*
G75*
G02*
X128170000Y-124990000I50000J0D01*
G01*
X127970000Y-124990000D02*
G75*
G02*
X128270000Y-124990000I150000J0D01*
G01*
X128070000Y-124990000D02*
G75*
G02*
X128170000Y-124990000I50000J0D01*
G01*
D12*
X127020000Y-109495000D02*
X127020000Y-106405000D01*
X126960000Y-107950000D02*
G75*
G03*
X126960000Y-107950000I-2500000J0D01*
G01*
X121470000Y-107950462D02*
G75*
G02*
X127020000Y-106405170I2990000J462D01*
G01*
X121470000Y-107949538D02*
G75*
G03*
X127020000Y-109494830I2990000J-462D01*
G01*
X149820000Y-107950000D02*
G75*
G03*
X149820000Y-107950000I-2500000J0D01*
G01*
X144760000Y-106405000D02*
X144760000Y-109495000D01*
X150310000Y-107950462D02*
G75*
G03*
X144760000Y-106405170I-2990000J462D01*
G01*
X150310000Y-107949538D02*
G75*
G02*
X144760000Y-109494830I-2990000J-462D01*
G01*
X128529688Y-102774648D02*
X130714648Y-100589688D01*
X130311974Y-99871974D02*
G75*
G03*
X130311974Y-99871974I-2500000J0D01*
G01*
X125697398Y-97758050D02*
G75*
G02*
X130714528Y-100589808I2114576J-2113924D01*
G01*
X125698050Y-97757398D02*
G75*
G03*
X128529808Y-102774528I2113924J-2114576D01*
G01*
X137200000Y-98390000D02*
X136870000Y-98390000D01*
X137200000Y-104810000D02*
X137200000Y-98390000D01*
X136870000Y-104810000D02*
X137200000Y-104810000D01*
X134580000Y-98390000D02*
X134910000Y-98390000D01*
X134580000Y-104810000D02*
X134580000Y-98390000D01*
X134910000Y-104810000D02*
X134580000Y-104810000D01*
D13*
X137492619Y-113604523D02*
X137492619Y-112334523D01*
X138218333Y-113604523D02*
X137674047Y-112878809D01*
X138218333Y-112334523D02*
X137492619Y-113060238D01*
X139427857Y-113604523D02*
X138702142Y-113604523D01*
X139065000Y-113604523D02*
X139065000Y-112334523D01*
X138944047Y-112515952D01*
X138823095Y-112636904D01*
X138702142Y-112697380D01*
D14*
X123721904Y-112362380D02*
X123721904Y-111362380D01*
X123960000Y-111362380D01*
X124102857Y-111410000D01*
X124198095Y-111505238D01*
X124245714Y-111600476D01*
X124293333Y-111790952D01*
X124293333Y-111933809D01*
X124245714Y-112124285D01*
X124198095Y-112219523D01*
X124102857Y-112314761D01*
X123960000Y-112362380D01*
X123721904Y-112362380D01*
X125245714Y-112362380D02*
X124674285Y-112362380D01*
X124960000Y-112362380D02*
X124960000Y-111362380D01*
X124864761Y-111505238D01*
X124769523Y-111600476D01*
X124674285Y-111648095D01*
X146581904Y-104442380D02*
X146581904Y-103442380D01*
X146820000Y-103442380D01*
X146962857Y-103490000D01*
X147058095Y-103585238D01*
X147105714Y-103680476D01*
X147153333Y-103870952D01*
X147153333Y-104013809D01*
X147105714Y-104204285D01*
X147058095Y-104299523D01*
X146962857Y-104394761D01*
X146820000Y-104442380D01*
X146581904Y-104442380D01*
X147534285Y-103537619D02*
X147581904Y-103490000D01*
X147677142Y-103442380D01*
X147915238Y-103442380D01*
X148010476Y-103490000D01*
X148058095Y-103537619D01*
X148105714Y-103632857D01*
X148105714Y-103728095D01*
X148058095Y-103870952D01*
X147486666Y-104442380D01*
X148105714Y-104442380D01*
X124170038Y-102470086D02*
X124877144Y-101762979D01*
X125045503Y-101931338D01*
X125112847Y-102066025D01*
X125112847Y-102200712D01*
X125079175Y-102301727D01*
X124978160Y-102470086D01*
X124877144Y-102571101D01*
X124708786Y-102672117D01*
X124607770Y-102705788D01*
X124473083Y-102705788D01*
X124338396Y-102638445D01*
X124170038Y-102470086D01*
X125516908Y-102402742D02*
X125954641Y-102840475D01*
X125449564Y-102874147D01*
X125550580Y-102975162D01*
X125584251Y-103076178D01*
X125584251Y-103143521D01*
X125550580Y-103244536D01*
X125382221Y-103412895D01*
X125281206Y-103446567D01*
X125213862Y-103446567D01*
X125112847Y-103412895D01*
X124910816Y-103210865D01*
X124877144Y-103109849D01*
X124877144Y-103042506D01*
X134032380Y-101766666D02*
X133556190Y-102100000D01*
X134032380Y-102338095D02*
X133032380Y-102338095D01*
X133032380Y-101957142D01*
X133080000Y-101861904D01*
X133127619Y-101814285D01*
X133222857Y-101766666D01*
X133365714Y-101766666D01*
X133460952Y-101814285D01*
X133508571Y-101861904D01*
X133556190Y-101957142D01*
X133556190Y-102338095D01*
X134032380Y-100814285D02*
X134032380Y-101385714D01*
X134032380Y-101100000D02*
X133032380Y-101100000D01*
X133175238Y-101195238D01*
X133270476Y-101290476D01*
X133318095Y-101385714D01*
X120316666Y-125182380D02*
X120316666Y-125896666D01*
X120269047Y-126039523D01*
X120173809Y-126134761D01*
X120030952Y-126182380D01*
X119935714Y-126182380D01*
X121316666Y-126182380D02*
X120745238Y-126182380D01*
X121030952Y-126182380D02*
X121030952Y-125182380D01*
X120935714Y-125325238D01*
X120840476Y-125420476D01*
X120745238Y-125468095D01*
X145716666Y-89622380D02*
X145716666Y-90336666D01*
X145669047Y-90479523D01*
X145573809Y-90574761D01*
X145430952Y-90622380D01*
X145335714Y-90622380D01*
X146145238Y-89717619D02*
X146192857Y-89670000D01*
X146288095Y-89622380D01*
X146526190Y-89622380D01*
X146621428Y-89670000D01*
X146669047Y-89717619D01*
X146716666Y-89812857D01*
X146716666Y-89908095D01*
X146669047Y-90050952D01*
X146097619Y-90622380D01*
X146716666Y-90622380D01*
%LPC*%
D15*
X120650000Y-92710000D03*
D16*
X128270000Y-123190000D03*
X130810000Y-123190000D03*
X135890000Y-123190000D03*
X140970000Y-123190000D03*
X146050000Y-123190000D03*
X146050000Y-115570000D03*
X140970000Y-115570000D03*
X135890000Y-115570000D03*
X130810000Y-115570000D03*
X128270000Y-115570000D03*
D17*
X123190000Y-107950000D03*
D18*
X125730000Y-107950000D03*
X146050000Y-107950000D03*
D17*
X148590000Y-107950000D03*
X126913949Y-98973949D03*
D11*
G36*
X129982792Y-100770000D02*
G01*
X128710000Y-102042792D01*
X127437208Y-100770000D01*
X128710000Y-99497208D01*
X129982792Y-100770000D01*
G37*
D19*
X135890000Y-97790000D03*
D20*
X135890000Y-105410000D03*
D21*
X118110000Y-123190000D03*
D22*
X120650000Y-123190000D03*
X140970000Y-90170000D03*
D21*
X140970000Y-92710000D03*
X143510000Y-92710000D03*
D22*
X143510000Y-90170000D03*
D15*
X151130000Y-123190000D03*
M02*
