G04 #@! TF.GenerationSoftware,KiCad,Pcbnew,5.1.10*
G04 #@! TF.CreationDate,2021-05-04T21:13:44+02:00*
G04 #@! TF.ProjectId,Weichensimulator-rechts,57656963-6865-46e7-9369-6d756c61746f,rev?*
G04 #@! TF.SameCoordinates,Original*
G04 #@! TF.FileFunction,Copper,L2,Bot*
G04 #@! TF.FilePolarity,Positive*
%FSLAX46Y46*%
G04 Gerber Fmt 4.6, Leading zero omitted, Abs format (unit mm)*
G04 Created by KiCad (PCBNEW 5.1.10) date 2021-05-04 21:13:44*
%MOMM*%
%LPD*%
G01*
G04 APERTURE LIST*
G04 #@! TA.AperFunction,ComponentPad*
%ADD10C,1.500000*%
G04 #@! TD*
G04 #@! TA.AperFunction,ComponentPad*
%ADD11C,1.800000*%
G04 #@! TD*
G04 #@! TA.AperFunction,ComponentPad*
%ADD12R,1.800000X1.800000*%
G04 #@! TD*
G04 #@! TA.AperFunction,ComponentPad*
%ADD13C,0.100000*%
G04 #@! TD*
G04 #@! TA.AperFunction,ComponentPad*
%ADD14O,1.600000X1.600000*%
G04 #@! TD*
G04 #@! TA.AperFunction,ComponentPad*
%ADD15C,1.600000*%
G04 #@! TD*
G04 #@! TA.AperFunction,ComponentPad*
%ADD16O,1.700000X1.700000*%
G04 #@! TD*
G04 #@! TA.AperFunction,ComponentPad*
%ADD17R,1.700000X1.700000*%
G04 #@! TD*
G04 #@! TA.AperFunction,Conductor*
%ADD18C,0.500000*%
G04 #@! TD*
G04 APERTURE END LIST*
D10*
X128270000Y-123190000D03*
X130810000Y-123190000D03*
X135890000Y-123190000D03*
X140970000Y-123190000D03*
X146050000Y-123190000D03*
X146050000Y-115570000D03*
X140970000Y-115570000D03*
X135890000Y-115570000D03*
X130810000Y-115570000D03*
X128270000Y-115570000D03*
D11*
X123190000Y-107950000D03*
D12*
X125730000Y-107950000D03*
X146050000Y-107950000D03*
D11*
X148590000Y-107950000D03*
X126913949Y-98973949D03*
G04 #@! TA.AperFunction,ComponentPad*
D13*
G36*
X129982792Y-100770000D02*
G01*
X128710000Y-102042792D01*
X127437208Y-100770000D01*
X128710000Y-99497208D01*
X129982792Y-100770000D01*
G37*
G04 #@! TD.AperFunction*
D14*
X135890000Y-97790000D03*
D15*
X135890000Y-105410000D03*
D16*
X118110000Y-123190000D03*
D17*
X120650000Y-123190000D03*
X140970000Y-90170000D03*
D16*
X140970000Y-92710000D03*
X143510000Y-92710000D03*
D17*
X143510000Y-90170000D03*
D18*
X135890000Y-106680000D02*
X135890000Y-105410000D01*
X134620000Y-107950000D02*
X135890000Y-106680000D01*
X125730000Y-107950000D02*
X134620000Y-107950000D01*
X146050000Y-107950000D02*
X146050000Y-115370001D01*
X140970000Y-113470000D02*
X140970000Y-115570000D01*
X140970000Y-100770000D02*
X140970000Y-113470000D01*
X128710000Y-100770000D02*
X140970000Y-100770000D01*
X118110000Y-123190000D02*
X118110000Y-125730000D01*
X118110000Y-125730000D02*
X128270000Y-125730000D01*
X128270000Y-125730000D02*
X128270000Y-122990001D01*
X120650000Y-123190000D02*
X120650000Y-120650000D01*
X120650000Y-120650000D02*
X130810000Y-120650000D01*
X130810000Y-120650000D02*
X130810000Y-122990001D01*
X123190000Y-107950000D02*
X123190000Y-111760000D01*
X140970000Y-90170000D02*
X138430000Y-90170000D01*
X140970000Y-90170000D02*
X143510000Y-90170000D01*
X128270000Y-115370001D02*
X130810000Y-115370001D01*
X130810000Y-115370001D02*
X130810000Y-111760000D01*
X123190000Y-111760000D02*
X130810000Y-111760000D01*
X134620000Y-90170000D02*
X140970000Y-90170000D01*
X123190000Y-107950000D02*
X123190000Y-97790000D01*
X123190000Y-97790000D02*
X130810000Y-90170000D01*
X130810000Y-90170000D02*
X135890000Y-90170000D01*
X152400000Y-92710000D02*
X143510000Y-92710000D01*
X140970000Y-92710000D02*
X143510000Y-92710000D01*
X152400000Y-118110000D02*
X152400000Y-92710000D01*
X135890000Y-118110000D02*
X152400000Y-118110000D01*
X135890000Y-115570000D02*
X135890000Y-118110000D01*
X148590000Y-107950000D02*
X148590000Y-100330000D01*
X126913949Y-98973949D02*
X128097898Y-97790000D01*
X128097898Y-97790000D02*
X135890000Y-97790000D01*
X135890000Y-97790000D02*
X146050000Y-97790000D01*
X146050000Y-97790000D02*
X148590000Y-100330000D01*
M02*
