%FSLAX45Y45*%
G04 Gerber Fmt 4.5, Leading zero omitted, Abs format (unit mm)*
G04 Created by KiCad (PCBNEW 5.1.10) date 2021-05-03 23:45:55*
%MOMM*%
%LPD*%
G01*
G04 APERTURE LIST*
%TA.AperFunction,Profile*%
%ADD10C,0.050000*%
%TD*%
%ADD11C,0.200000*%
%ADD12C,0.300000*%
G04 APERTURE END LIST*
D10*
X11811000Y-12700000D02*
G75*
G02*
X11684000Y-12573000I0J127000D01*
G01*
X15494000Y-12573000D02*
G75*
G02*
X15367000Y-12700000I-127000J0D01*
G01*
X11684000Y-9017000D02*
G75*
G02*
X11811000Y-8890000I127000J0D01*
G01*
X15367000Y-8890000D02*
G75*
G02*
X15494000Y-9017000I0J-127000D01*
G01*
X11684000Y-12573000D02*
X11684000Y-9017000D01*
X15367000Y-12700000D02*
X11811000Y-12700000D01*
X15494000Y-9017000D02*
X15494000Y-12573000D01*
X11811000Y-8890000D02*
X15367000Y-8890000D01*
D11*
X11905000Y-9111000D02*
X12225000Y-9431000D01*
X12225000Y-9111000D02*
X11905000Y-9431000D01*
X14953000Y-12159000D02*
X15273000Y-12479000D01*
X15273000Y-12159000D02*
X14953000Y-12479000D01*
D12*
X11967928Y-13168214D02*
X11967928Y-12868214D01*
X12039357Y-12868214D01*
X12082214Y-12882500D01*
X12110786Y-12911071D01*
X12125071Y-12939643D01*
X12139357Y-12996786D01*
X12139357Y-13039643D01*
X12125071Y-13096786D01*
X12110786Y-13125357D01*
X12082214Y-13153929D01*
X12039357Y-13168214D01*
X11967928Y-13168214D01*
X12267928Y-13168214D02*
X12267928Y-12968214D01*
X12267928Y-13025357D02*
X12282214Y-12996786D01*
X12296500Y-12982500D01*
X12325071Y-12968214D01*
X12353643Y-12968214D01*
X12453643Y-13168214D02*
X12453643Y-12968214D01*
X12453643Y-12868214D02*
X12439357Y-12882500D01*
X12453643Y-12896786D01*
X12467928Y-12882500D01*
X12453643Y-12868214D01*
X12453643Y-12896786D01*
X12639357Y-13168214D02*
X12610786Y-13153929D01*
X12596500Y-13125357D01*
X12596500Y-12868214D01*
X12796500Y-13168214D02*
X12767928Y-13153929D01*
X12753643Y-13125357D01*
X12753643Y-12868214D01*
X13139357Y-13168214D02*
X13139357Y-12868214D01*
X13239357Y-13082500D01*
X13339357Y-12868214D01*
X13339357Y-13168214D01*
X13610786Y-13168214D02*
X13610786Y-13011071D01*
X13596500Y-12982500D01*
X13567928Y-12968214D01*
X13510786Y-12968214D01*
X13482214Y-12982500D01*
X13610786Y-13153929D02*
X13582214Y-13168214D01*
X13510786Y-13168214D01*
X13482214Y-13153929D01*
X13467928Y-13125357D01*
X13467928Y-13096786D01*
X13482214Y-13068214D01*
X13510786Y-13053929D01*
X13582214Y-13053929D01*
X13610786Y-13039643D01*
X13753643Y-12968214D02*
X13753643Y-13268214D01*
X13753643Y-12982500D02*
X13782214Y-12968214D01*
X13839357Y-12968214D01*
X13867928Y-12982500D01*
X13882214Y-12996786D01*
X13896500Y-13025357D01*
X13896500Y-13111071D01*
X13882214Y-13139643D01*
X13867928Y-13153929D01*
X13839357Y-13168214D01*
X13782214Y-13168214D01*
X13753643Y-13153929D01*
X14025071Y-13139643D02*
X14039357Y-13153929D01*
X14025071Y-13168214D01*
X14010786Y-13153929D01*
X14025071Y-13139643D01*
X14025071Y-13168214D01*
X14025071Y-12982500D02*
X14039357Y-12996786D01*
X14025071Y-13011071D01*
X14010786Y-12996786D01*
X14025071Y-12982500D01*
X14025071Y-13011071D01*
X11361500Y-13502500D02*
X11681500Y-13822500D01*
X11681500Y-13502500D02*
X11361500Y-13822500D01*
X11939357Y-13498214D02*
X12125071Y-13498214D01*
X12025071Y-13612500D01*
X12067928Y-13612500D01*
X12096500Y-13626786D01*
X12110786Y-13641071D01*
X12125071Y-13669643D01*
X12125071Y-13741071D01*
X12110786Y-13769643D01*
X12096500Y-13783929D01*
X12067928Y-13798214D01*
X11982214Y-13798214D01*
X11953643Y-13783929D01*
X11939357Y-13769643D01*
X12253643Y-13769643D02*
X12267928Y-13783929D01*
X12253643Y-13798214D01*
X12239357Y-13783929D01*
X12253643Y-13769643D01*
X12253643Y-13798214D01*
X12382214Y-13526786D02*
X12396500Y-13512500D01*
X12425071Y-13498214D01*
X12496500Y-13498214D01*
X12525071Y-13512500D01*
X12539357Y-13526786D01*
X12553643Y-13555357D01*
X12553643Y-13583929D01*
X12539357Y-13626786D01*
X12367928Y-13798214D01*
X12553643Y-13798214D01*
X12739357Y-13498214D02*
X12767928Y-13498214D01*
X12796500Y-13512500D01*
X12810786Y-13526786D01*
X12825071Y-13555357D01*
X12839357Y-13612500D01*
X12839357Y-13683929D01*
X12825071Y-13741071D01*
X12810786Y-13769643D01*
X12796500Y-13783929D01*
X12767928Y-13798214D01*
X12739357Y-13798214D01*
X12710786Y-13783929D01*
X12696500Y-13769643D01*
X12682214Y-13741071D01*
X12667928Y-13683929D01*
X12667928Y-13612500D01*
X12682214Y-13555357D01*
X12696500Y-13526786D01*
X12710786Y-13512500D01*
X12739357Y-13498214D01*
X13025071Y-13498214D02*
X13053643Y-13498214D01*
X13082214Y-13512500D01*
X13096500Y-13526786D01*
X13110786Y-13555357D01*
X13125071Y-13612500D01*
X13125071Y-13683929D01*
X13110786Y-13741071D01*
X13096500Y-13769643D01*
X13082214Y-13783929D01*
X13053643Y-13798214D01*
X13025071Y-13798214D01*
X12996500Y-13783929D01*
X12982214Y-13769643D01*
X12967928Y-13741071D01*
X12953643Y-13683929D01*
X12953643Y-13612500D01*
X12967928Y-13555357D01*
X12982214Y-13526786D01*
X12996500Y-13512500D01*
X13025071Y-13498214D01*
X13253643Y-13798214D02*
X13253643Y-13598214D01*
X13253643Y-13626786D02*
X13267928Y-13612500D01*
X13296500Y-13598214D01*
X13339357Y-13598214D01*
X13367928Y-13612500D01*
X13382214Y-13641071D01*
X13382214Y-13798214D01*
X13382214Y-13641071D02*
X13396500Y-13612500D01*
X13425071Y-13598214D01*
X13467928Y-13598214D01*
X13496500Y-13612500D01*
X13510786Y-13641071D01*
X13510786Y-13798214D01*
X13653643Y-13798214D02*
X13653643Y-13598214D01*
X13653643Y-13626786D02*
X13667928Y-13612500D01*
X13696500Y-13598214D01*
X13739357Y-13598214D01*
X13767928Y-13612500D01*
X13782214Y-13641071D01*
X13782214Y-13798214D01*
X13782214Y-13641071D02*
X13796500Y-13612500D01*
X13825071Y-13598214D01*
X13867928Y-13598214D01*
X13896500Y-13612500D01*
X13910786Y-13641071D01*
X13910786Y-13798214D01*
X14496500Y-13483929D02*
X14239357Y-13869643D01*
X14882214Y-13498214D02*
X14910786Y-13498214D01*
X14939357Y-13512500D01*
X14953643Y-13526786D01*
X14967928Y-13555357D01*
X14982214Y-13612500D01*
X14982214Y-13683929D01*
X14967928Y-13741071D01*
X14953643Y-13769643D01*
X14939357Y-13783929D01*
X14910786Y-13798214D01*
X14882214Y-13798214D01*
X14853643Y-13783929D01*
X14839357Y-13769643D01*
X14825071Y-13741071D01*
X14810786Y-13683929D01*
X14810786Y-13612500D01*
X14825071Y-13555357D01*
X14839357Y-13526786D01*
X14853643Y-13512500D01*
X14882214Y-13498214D01*
X15110786Y-13769643D02*
X15125071Y-13783929D01*
X15110786Y-13798214D01*
X15096500Y-13783929D01*
X15110786Y-13769643D01*
X15110786Y-13798214D01*
X15410786Y-13798214D02*
X15239357Y-13798214D01*
X15325071Y-13798214D02*
X15325071Y-13498214D01*
X15296500Y-13541071D01*
X15267928Y-13569643D01*
X15239357Y-13583929D01*
X15525071Y-13526786D02*
X15539357Y-13512500D01*
X15567928Y-13498214D01*
X15639357Y-13498214D01*
X15667928Y-13512500D01*
X15682214Y-13526786D01*
X15696500Y-13555357D01*
X15696500Y-13583929D01*
X15682214Y-13626786D01*
X15510786Y-13798214D01*
X15696500Y-13798214D01*
X15953643Y-13498214D02*
X15896500Y-13498214D01*
X15867928Y-13512500D01*
X15853643Y-13526786D01*
X15825071Y-13569643D01*
X15810786Y-13626786D01*
X15810786Y-13741071D01*
X15825071Y-13769643D01*
X15839357Y-13783929D01*
X15867928Y-13798214D01*
X15925071Y-13798214D01*
X15953643Y-13783929D01*
X15967928Y-13769643D01*
X15982214Y-13741071D01*
X15982214Y-13669643D01*
X15967928Y-13641071D01*
X15953643Y-13626786D01*
X15925071Y-13612500D01*
X15867928Y-13612500D01*
X15839357Y-13626786D01*
X15825071Y-13641071D01*
X15810786Y-13669643D01*
X16167928Y-13498214D02*
X16196500Y-13498214D01*
X16225071Y-13512500D01*
X16239357Y-13526786D01*
X16253643Y-13555357D01*
X16267928Y-13612500D01*
X16267928Y-13683929D01*
X16253643Y-13741071D01*
X16239357Y-13769643D01*
X16225071Y-13783929D01*
X16196500Y-13798214D01*
X16167928Y-13798214D01*
X16139357Y-13783929D01*
X16125071Y-13769643D01*
X16110786Y-13741071D01*
X16096500Y-13683929D01*
X16096500Y-13612500D01*
X16110786Y-13555357D01*
X16125071Y-13526786D01*
X16139357Y-13512500D01*
X16167928Y-13498214D01*
X16382214Y-13498214D02*
X16382214Y-13555357D01*
X16496500Y-13498214D02*
X16496500Y-13555357D01*
X16939357Y-13912500D02*
X16925071Y-13898214D01*
X16896500Y-13855357D01*
X16882214Y-13826786D01*
X16867928Y-13783929D01*
X16853643Y-13712500D01*
X16853643Y-13655357D01*
X16867928Y-13583929D01*
X16882214Y-13541071D01*
X16896500Y-13512500D01*
X16925071Y-13469643D01*
X16939357Y-13455357D01*
X17039357Y-13526786D02*
X17053643Y-13512500D01*
X17082214Y-13498214D01*
X17153643Y-13498214D01*
X17182214Y-13512500D01*
X17196500Y-13526786D01*
X17210786Y-13555357D01*
X17210786Y-13583929D01*
X17196500Y-13626786D01*
X17025071Y-13798214D01*
X17210786Y-13798214D01*
X17567928Y-13798214D02*
X17567928Y-13498214D01*
X17696500Y-13798214D02*
X17696500Y-13641071D01*
X17682214Y-13612500D01*
X17653643Y-13598214D01*
X17610786Y-13598214D01*
X17582214Y-13612500D01*
X17567928Y-13626786D01*
X17882214Y-13798214D02*
X17853643Y-13783929D01*
X17839357Y-13769643D01*
X17825071Y-13741071D01*
X17825071Y-13655357D01*
X17839357Y-13626786D01*
X17853643Y-13612500D01*
X17882214Y-13598214D01*
X17925071Y-13598214D01*
X17953643Y-13612500D01*
X17967928Y-13626786D01*
X17982214Y-13655357D01*
X17982214Y-13741071D01*
X17967928Y-13769643D01*
X17953643Y-13783929D01*
X17925071Y-13798214D01*
X17882214Y-13798214D01*
X18153643Y-13798214D02*
X18125071Y-13783929D01*
X18110786Y-13755357D01*
X18110786Y-13498214D01*
X18382214Y-13783929D02*
X18353643Y-13798214D01*
X18296500Y-13798214D01*
X18267928Y-13783929D01*
X18253643Y-13755357D01*
X18253643Y-13641071D01*
X18267928Y-13612500D01*
X18296500Y-13598214D01*
X18353643Y-13598214D01*
X18382214Y-13612500D01*
X18396500Y-13641071D01*
X18396500Y-13669643D01*
X18253643Y-13698214D01*
X18510786Y-13783929D02*
X18539357Y-13798214D01*
X18596500Y-13798214D01*
X18625071Y-13783929D01*
X18639357Y-13755357D01*
X18639357Y-13741071D01*
X18625071Y-13712500D01*
X18596500Y-13698214D01*
X18553643Y-13698214D01*
X18525071Y-13683929D01*
X18510786Y-13655357D01*
X18510786Y-13641071D01*
X18525071Y-13612500D01*
X18553643Y-13598214D01*
X18596500Y-13598214D01*
X18625071Y-13612500D01*
X18739357Y-13912500D02*
X18753643Y-13898214D01*
X18782214Y-13855357D01*
X18796500Y-13826786D01*
X18810786Y-13783929D01*
X18825071Y-13712500D01*
X18825071Y-13655357D01*
X18810786Y-13583929D01*
X18796500Y-13541071D01*
X18782214Y-13512500D01*
X18753643Y-13469643D01*
X18739357Y-13455357D01*
X19282214Y-13912500D02*
X19267928Y-13898214D01*
X19239357Y-13855357D01*
X19225071Y-13826786D01*
X19210786Y-13783929D01*
X19196500Y-13712500D01*
X19196500Y-13655357D01*
X19210786Y-13583929D01*
X19225071Y-13541071D01*
X19239357Y-13512500D01*
X19267928Y-13469643D01*
X19282214Y-13455357D01*
X19396500Y-13598214D02*
X19396500Y-13798214D01*
X19396500Y-13626786D02*
X19410786Y-13612500D01*
X19439357Y-13598214D01*
X19482214Y-13598214D01*
X19510786Y-13612500D01*
X19525071Y-13641071D01*
X19525071Y-13798214D01*
X19710786Y-13798214D02*
X19682214Y-13783929D01*
X19667928Y-13769643D01*
X19653643Y-13741071D01*
X19653643Y-13655357D01*
X19667928Y-13626786D01*
X19682214Y-13612500D01*
X19710786Y-13598214D01*
X19753643Y-13598214D01*
X19782214Y-13612500D01*
X19796500Y-13626786D01*
X19810786Y-13655357D01*
X19810786Y-13741071D01*
X19796500Y-13769643D01*
X19782214Y-13783929D01*
X19753643Y-13798214D01*
X19710786Y-13798214D01*
X19896500Y-13598214D02*
X20010786Y-13598214D01*
X19939357Y-13498214D02*
X19939357Y-13755357D01*
X19953643Y-13783929D01*
X19982214Y-13798214D01*
X20010786Y-13798214D01*
X20339357Y-13598214D02*
X20339357Y-13898214D01*
X20339357Y-13612500D02*
X20367928Y-13598214D01*
X20425071Y-13598214D01*
X20453643Y-13612500D01*
X20467928Y-13626786D01*
X20482214Y-13655357D01*
X20482214Y-13741071D01*
X20467928Y-13769643D01*
X20453643Y-13783929D01*
X20425071Y-13798214D01*
X20367928Y-13798214D01*
X20339357Y-13783929D01*
X20653643Y-13798214D02*
X20625071Y-13783929D01*
X20610786Y-13755357D01*
X20610786Y-13498214D01*
X20896500Y-13798214D02*
X20896500Y-13641071D01*
X20882214Y-13612500D01*
X20853643Y-13598214D01*
X20796500Y-13598214D01*
X20767928Y-13612500D01*
X20896500Y-13783929D02*
X20867928Y-13798214D01*
X20796500Y-13798214D01*
X20767928Y-13783929D01*
X20753643Y-13755357D01*
X20753643Y-13726786D01*
X20767928Y-13698214D01*
X20796500Y-13683929D01*
X20867928Y-13683929D01*
X20896500Y-13669643D01*
X20996500Y-13598214D02*
X21110786Y-13598214D01*
X21039357Y-13498214D02*
X21039357Y-13755357D01*
X21053643Y-13783929D01*
X21082214Y-13798214D01*
X21110786Y-13798214D01*
X21325071Y-13783929D02*
X21296500Y-13798214D01*
X21239357Y-13798214D01*
X21210786Y-13783929D01*
X21196500Y-13755357D01*
X21196500Y-13641071D01*
X21210786Y-13612500D01*
X21239357Y-13598214D01*
X21296500Y-13598214D01*
X21325071Y-13612500D01*
X21339357Y-13641071D01*
X21339357Y-13669643D01*
X21196500Y-13698214D01*
X21596500Y-13798214D02*
X21596500Y-13498214D01*
X21596500Y-13783929D02*
X21567928Y-13798214D01*
X21510786Y-13798214D01*
X21482214Y-13783929D01*
X21467928Y-13769643D01*
X21453643Y-13741071D01*
X21453643Y-13655357D01*
X21467928Y-13626786D01*
X21482214Y-13612500D01*
X21510786Y-13598214D01*
X21567928Y-13598214D01*
X21596500Y-13612500D01*
X21710786Y-13912500D02*
X21725071Y-13898214D01*
X21753643Y-13855357D01*
X21767928Y-13826786D01*
X21782214Y-13783929D01*
X21796500Y-13712500D01*
X21796500Y-13655357D01*
X21782214Y-13583929D01*
X21767928Y-13541071D01*
X21753643Y-13512500D01*
X21725071Y-13469643D01*
X21710786Y-13455357D01*
M02*
