M48
; DRILL file {KiCad 5.1.10} date Mon May  3 23:45:11 2021
; FORMAT={-:-/ absolute / metric / decimal}
; #@! TF.CreationDate,2021-05-03T23:45:11+02:00
; #@! TF.GenerationSoftware,Kicad,Pcbnew,5.1.10
; #@! TF.FileFunction,Plated,1,2,PTH
FMAT,2
METRIC
T1C0.800
T2C0.900
T3C1.000
%
G90
G05
T1
X135.89Y-97.79
X135.89Y-105.41
T2
X123.19Y-107.95
X125.73Y-107.95
X126.914Y-98.974
X128.71Y-100.77
X146.05Y-107.95
X148.59Y-107.95
T3
X118.11Y-123.19
X120.65Y-123.19
X128.27Y-115.57
X128.27Y-123.19
X130.81Y-115.57
X130.81Y-123.19
X135.89Y-115.57
X135.89Y-123.19
X140.97Y-90.17
X140.97Y-92.71
X140.97Y-115.57
X140.97Y-123.19
X143.51Y-90.17
X143.51Y-92.71
X146.05Y-115.57
X146.05Y-123.19
T0
M30
