%FSLAX45Y45*%
G04 Gerber Fmt 4.5, Leading zero omitted, Abs format (unit mm)*
G04 Created by KiCad (PCBNEW 5.1.10) date 2021-05-03 23:45:55*
%MOMM*%
%LPD*%
G01*
G04 APERTURE LIST*
%TA.AperFunction,Profile*%
%ADD10C,0.050000*%
%TD*%
%ADD11C,0.200000*%
%ADD12C,0.300000*%
G04 APERTURE END LIST*
D10*
X11811000Y-12700000D02*
G75*
G02*
X11684000Y-12573000I0J127000D01*
G01*
X15494000Y-12573000D02*
G75*
G02*
X15367000Y-12700000I-127000J0D01*
G01*
X11684000Y-9017000D02*
G75*
G02*
X11811000Y-8890000I127000J0D01*
G01*
X15367000Y-8890000D02*
G75*
G02*
X15494000Y-9017000I0J-127000D01*
G01*
X11684000Y-12573000D02*
X11684000Y-9017000D01*
X15367000Y-12700000D02*
X11811000Y-12700000D01*
X15494000Y-9017000D02*
X15494000Y-12573000D01*
X11811000Y-8890000D02*
X15367000Y-8890000D01*
D11*
X13549000Y-9739000D02*
X13629000Y-9819000D01*
X13629000Y-9739000D02*
X13549000Y-9819000D01*
X13549000Y-10501000D02*
X13629000Y-10581000D01*
X13629000Y-10501000D02*
X13549000Y-10581000D01*
X12364000Y-10795000D02*
G75*
G03*
X12364000Y-10795000I-45000J0D01*
G01*
X12618000Y-10795000D02*
G75*
G03*
X12618000Y-10795000I-45000J0D01*
G01*
X12736395Y-9897395D02*
G75*
G03*
X12736395Y-9897395I-45000J0D01*
G01*
X12916000Y-10077000D02*
G75*
G03*
X12916000Y-10077000I-45000J0D01*
G01*
X14650000Y-10795000D02*
G75*
G03*
X14650000Y-10795000I-45000J0D01*
G01*
X14904000Y-10795000D02*
G75*
G03*
X14904000Y-10795000I-45000J0D01*
G01*
X11811000Y-12269000D02*
X11811000Y-12369000D01*
X11761000Y-12319000D02*
X11861000Y-12319000D01*
X12065000Y-12269000D02*
X12065000Y-12369000D01*
X12015000Y-12319000D02*
X12115000Y-12319000D01*
X12827000Y-11507000D02*
X12827000Y-11607000D01*
X12777000Y-11557000D02*
X12877000Y-11557000D01*
X12827000Y-12269000D02*
X12827000Y-12369000D01*
X12777000Y-12319000D02*
X12877000Y-12319000D01*
X13081000Y-11507000D02*
X13081000Y-11607000D01*
X13031000Y-11557000D02*
X13131000Y-11557000D01*
X13081000Y-12269000D02*
X13081000Y-12369000D01*
X13031000Y-12319000D02*
X13131000Y-12319000D01*
X13589000Y-11507000D02*
X13589000Y-11607000D01*
X13539000Y-11557000D02*
X13639000Y-11557000D01*
X13589000Y-12269000D02*
X13589000Y-12369000D01*
X13539000Y-12319000D02*
X13639000Y-12319000D01*
X14097000Y-8967000D02*
X14097000Y-9067000D01*
X14047000Y-9017000D02*
X14147000Y-9017000D01*
X14097000Y-9221000D02*
X14097000Y-9321000D01*
X14047000Y-9271000D02*
X14147000Y-9271000D01*
X14097000Y-11507000D02*
X14097000Y-11607000D01*
X14047000Y-11557000D02*
X14147000Y-11557000D01*
X14097000Y-12269000D02*
X14097000Y-12369000D01*
X14047000Y-12319000D02*
X14147000Y-12319000D01*
X14351000Y-8967000D02*
X14351000Y-9067000D01*
X14301000Y-9017000D02*
X14401000Y-9017000D01*
X14351000Y-9221000D02*
X14351000Y-9321000D01*
X14301000Y-9271000D02*
X14401000Y-9271000D01*
X14605000Y-11507000D02*
X14605000Y-11607000D01*
X14555000Y-11557000D02*
X14655000Y-11557000D01*
X14605000Y-12269000D02*
X14605000Y-12369000D01*
X14555000Y-12319000D02*
X14655000Y-12319000D01*
D12*
X11967928Y-13168214D02*
X11967928Y-12868214D01*
X12039357Y-12868214D01*
X12082214Y-12882500D01*
X12110786Y-12911071D01*
X12125071Y-12939643D01*
X12139357Y-12996786D01*
X12139357Y-13039643D01*
X12125071Y-13096786D01*
X12110786Y-13125357D01*
X12082214Y-13153929D01*
X12039357Y-13168214D01*
X11967928Y-13168214D01*
X12267928Y-13168214D02*
X12267928Y-12968214D01*
X12267928Y-13025357D02*
X12282214Y-12996786D01*
X12296500Y-12982500D01*
X12325071Y-12968214D01*
X12353643Y-12968214D01*
X12453643Y-13168214D02*
X12453643Y-12968214D01*
X12453643Y-12868214D02*
X12439357Y-12882500D01*
X12453643Y-12896786D01*
X12467928Y-12882500D01*
X12453643Y-12868214D01*
X12453643Y-12896786D01*
X12639357Y-13168214D02*
X12610786Y-13153929D01*
X12596500Y-13125357D01*
X12596500Y-12868214D01*
X12796500Y-13168214D02*
X12767928Y-13153929D01*
X12753643Y-13125357D01*
X12753643Y-12868214D01*
X13139357Y-13168214D02*
X13139357Y-12868214D01*
X13239357Y-13082500D01*
X13339357Y-12868214D01*
X13339357Y-13168214D01*
X13610786Y-13168214D02*
X13610786Y-13011071D01*
X13596500Y-12982500D01*
X13567928Y-12968214D01*
X13510786Y-12968214D01*
X13482214Y-12982500D01*
X13610786Y-13153929D02*
X13582214Y-13168214D01*
X13510786Y-13168214D01*
X13482214Y-13153929D01*
X13467928Y-13125357D01*
X13467928Y-13096786D01*
X13482214Y-13068214D01*
X13510786Y-13053929D01*
X13582214Y-13053929D01*
X13610786Y-13039643D01*
X13753643Y-12968214D02*
X13753643Y-13268214D01*
X13753643Y-12982500D02*
X13782214Y-12968214D01*
X13839357Y-12968214D01*
X13867928Y-12982500D01*
X13882214Y-12996786D01*
X13896500Y-13025357D01*
X13896500Y-13111071D01*
X13882214Y-13139643D01*
X13867928Y-13153929D01*
X13839357Y-13168214D01*
X13782214Y-13168214D01*
X13753643Y-13153929D01*
X14025071Y-13139643D02*
X14039357Y-13153929D01*
X14025071Y-13168214D01*
X14010786Y-13153929D01*
X14025071Y-13139643D01*
X14025071Y-13168214D01*
X14025071Y-12982500D02*
X14039357Y-12996786D01*
X14025071Y-13011071D01*
X14010786Y-12996786D01*
X14025071Y-12982500D01*
X14025071Y-13011071D01*
X11601500Y-13622500D02*
X11681500Y-13702500D01*
X11681500Y-13622500D02*
X11601500Y-13702500D01*
X12025071Y-13498214D02*
X12053643Y-13498214D01*
X12082214Y-13512500D01*
X12096500Y-13526786D01*
X12110786Y-13555357D01*
X12125071Y-13612500D01*
X12125071Y-13683929D01*
X12110786Y-13741071D01*
X12096500Y-13769643D01*
X12082214Y-13783929D01*
X12053643Y-13798214D01*
X12025071Y-13798214D01*
X11996500Y-13783929D01*
X11982214Y-13769643D01*
X11967928Y-13741071D01*
X11953643Y-13683929D01*
X11953643Y-13612500D01*
X11967928Y-13555357D01*
X11982214Y-13526786D01*
X11996500Y-13512500D01*
X12025071Y-13498214D01*
X12253643Y-13769643D02*
X12267928Y-13783929D01*
X12253643Y-13798214D01*
X12239357Y-13783929D01*
X12253643Y-13769643D01*
X12253643Y-13798214D01*
X12439357Y-13626786D02*
X12410786Y-13612500D01*
X12396500Y-13598214D01*
X12382214Y-13569643D01*
X12382214Y-13555357D01*
X12396500Y-13526786D01*
X12410786Y-13512500D01*
X12439357Y-13498214D01*
X12496500Y-13498214D01*
X12525071Y-13512500D01*
X12539357Y-13526786D01*
X12553643Y-13555357D01*
X12553643Y-13569643D01*
X12539357Y-13598214D01*
X12525071Y-13612500D01*
X12496500Y-13626786D01*
X12439357Y-13626786D01*
X12410786Y-13641071D01*
X12396500Y-13655357D01*
X12382214Y-13683929D01*
X12382214Y-13741071D01*
X12396500Y-13769643D01*
X12410786Y-13783929D01*
X12439357Y-13798214D01*
X12496500Y-13798214D01*
X12525071Y-13783929D01*
X12539357Y-13769643D01*
X12553643Y-13741071D01*
X12553643Y-13683929D01*
X12539357Y-13655357D01*
X12525071Y-13641071D01*
X12496500Y-13626786D01*
X12739357Y-13498214D02*
X12767928Y-13498214D01*
X12796500Y-13512500D01*
X12810786Y-13526786D01*
X12825071Y-13555357D01*
X12839357Y-13612500D01*
X12839357Y-13683929D01*
X12825071Y-13741071D01*
X12810786Y-13769643D01*
X12796500Y-13783929D01*
X12767928Y-13798214D01*
X12739357Y-13798214D01*
X12710786Y-13783929D01*
X12696500Y-13769643D01*
X12682214Y-13741071D01*
X12667928Y-13683929D01*
X12667928Y-13612500D01*
X12682214Y-13555357D01*
X12696500Y-13526786D01*
X12710786Y-13512500D01*
X12739357Y-13498214D01*
X13025071Y-13498214D02*
X13053643Y-13498214D01*
X13082214Y-13512500D01*
X13096500Y-13526786D01*
X13110786Y-13555357D01*
X13125071Y-13612500D01*
X13125071Y-13683929D01*
X13110786Y-13741071D01*
X13096500Y-13769643D01*
X13082214Y-13783929D01*
X13053643Y-13798214D01*
X13025071Y-13798214D01*
X12996500Y-13783929D01*
X12982214Y-13769643D01*
X12967928Y-13741071D01*
X12953643Y-13683929D01*
X12953643Y-13612500D01*
X12967928Y-13555357D01*
X12982214Y-13526786D01*
X12996500Y-13512500D01*
X13025071Y-13498214D01*
X13253643Y-13798214D02*
X13253643Y-13598214D01*
X13253643Y-13626786D02*
X13267928Y-13612500D01*
X13296500Y-13598214D01*
X13339357Y-13598214D01*
X13367928Y-13612500D01*
X13382214Y-13641071D01*
X13382214Y-13798214D01*
X13382214Y-13641071D02*
X13396500Y-13612500D01*
X13425071Y-13598214D01*
X13467928Y-13598214D01*
X13496500Y-13612500D01*
X13510786Y-13641071D01*
X13510786Y-13798214D01*
X13653643Y-13798214D02*
X13653643Y-13598214D01*
X13653643Y-13626786D02*
X13667928Y-13612500D01*
X13696500Y-13598214D01*
X13739357Y-13598214D01*
X13767928Y-13612500D01*
X13782214Y-13641071D01*
X13782214Y-13798214D01*
X13782214Y-13641071D02*
X13796500Y-13612500D01*
X13825071Y-13598214D01*
X13867928Y-13598214D01*
X13896500Y-13612500D01*
X13910786Y-13641071D01*
X13910786Y-13798214D01*
X14496500Y-13483929D02*
X14239357Y-13869643D01*
X14882214Y-13498214D02*
X14910786Y-13498214D01*
X14939357Y-13512500D01*
X14953643Y-13526786D01*
X14967928Y-13555357D01*
X14982214Y-13612500D01*
X14982214Y-13683929D01*
X14967928Y-13741071D01*
X14953643Y-13769643D01*
X14939357Y-13783929D01*
X14910786Y-13798214D01*
X14882214Y-13798214D01*
X14853643Y-13783929D01*
X14839357Y-13769643D01*
X14825071Y-13741071D01*
X14810786Y-13683929D01*
X14810786Y-13612500D01*
X14825071Y-13555357D01*
X14839357Y-13526786D01*
X14853643Y-13512500D01*
X14882214Y-13498214D01*
X15110786Y-13769643D02*
X15125071Y-13783929D01*
X15110786Y-13798214D01*
X15096500Y-13783929D01*
X15110786Y-13769643D01*
X15110786Y-13798214D01*
X15310786Y-13498214D02*
X15339357Y-13498214D01*
X15367928Y-13512500D01*
X15382214Y-13526786D01*
X15396500Y-13555357D01*
X15410786Y-13612500D01*
X15410786Y-13683929D01*
X15396500Y-13741071D01*
X15382214Y-13769643D01*
X15367928Y-13783929D01*
X15339357Y-13798214D01*
X15310786Y-13798214D01*
X15282214Y-13783929D01*
X15267928Y-13769643D01*
X15253643Y-13741071D01*
X15239357Y-13683929D01*
X15239357Y-13612500D01*
X15253643Y-13555357D01*
X15267928Y-13526786D01*
X15282214Y-13512500D01*
X15310786Y-13498214D01*
X15510786Y-13498214D02*
X15696500Y-13498214D01*
X15596500Y-13612500D01*
X15639357Y-13612500D01*
X15667928Y-13626786D01*
X15682214Y-13641071D01*
X15696500Y-13669643D01*
X15696500Y-13741071D01*
X15682214Y-13769643D01*
X15667928Y-13783929D01*
X15639357Y-13798214D01*
X15553643Y-13798214D01*
X15525071Y-13783929D01*
X15510786Y-13769643D01*
X15982214Y-13798214D02*
X15810786Y-13798214D01*
X15896500Y-13798214D02*
X15896500Y-13498214D01*
X15867928Y-13541071D01*
X15839357Y-13569643D01*
X15810786Y-13583929D01*
X16253643Y-13498214D02*
X16110786Y-13498214D01*
X16096500Y-13641071D01*
X16110786Y-13626786D01*
X16139357Y-13612500D01*
X16210786Y-13612500D01*
X16239357Y-13626786D01*
X16253643Y-13641071D01*
X16267928Y-13669643D01*
X16267928Y-13741071D01*
X16253643Y-13769643D01*
X16239357Y-13783929D01*
X16210786Y-13798214D01*
X16139357Y-13798214D01*
X16110786Y-13783929D01*
X16096500Y-13769643D01*
X16382214Y-13498214D02*
X16382214Y-13555357D01*
X16496500Y-13498214D02*
X16496500Y-13555357D01*
X16939357Y-13912500D02*
X16925071Y-13898214D01*
X16896500Y-13855357D01*
X16882214Y-13826786D01*
X16867928Y-13783929D01*
X16853643Y-13712500D01*
X16853643Y-13655357D01*
X16867928Y-13583929D01*
X16882214Y-13541071D01*
X16896500Y-13512500D01*
X16925071Y-13469643D01*
X16939357Y-13455357D01*
X17039357Y-13526786D02*
X17053643Y-13512500D01*
X17082214Y-13498214D01*
X17153643Y-13498214D01*
X17182214Y-13512500D01*
X17196500Y-13526786D01*
X17210786Y-13555357D01*
X17210786Y-13583929D01*
X17196500Y-13626786D01*
X17025071Y-13798214D01*
X17210786Y-13798214D01*
X17567928Y-13798214D02*
X17567928Y-13498214D01*
X17696500Y-13798214D02*
X17696500Y-13641071D01*
X17682214Y-13612500D01*
X17653643Y-13598214D01*
X17610786Y-13598214D01*
X17582214Y-13612500D01*
X17567928Y-13626786D01*
X17882214Y-13798214D02*
X17853643Y-13783929D01*
X17839357Y-13769643D01*
X17825071Y-13741071D01*
X17825071Y-13655357D01*
X17839357Y-13626786D01*
X17853643Y-13612500D01*
X17882214Y-13598214D01*
X17925071Y-13598214D01*
X17953643Y-13612500D01*
X17967928Y-13626786D01*
X17982214Y-13655357D01*
X17982214Y-13741071D01*
X17967928Y-13769643D01*
X17953643Y-13783929D01*
X17925071Y-13798214D01*
X17882214Y-13798214D01*
X18153643Y-13798214D02*
X18125071Y-13783929D01*
X18110786Y-13755357D01*
X18110786Y-13498214D01*
X18382214Y-13783929D02*
X18353643Y-13798214D01*
X18296500Y-13798214D01*
X18267928Y-13783929D01*
X18253643Y-13755357D01*
X18253643Y-13641071D01*
X18267928Y-13612500D01*
X18296500Y-13598214D01*
X18353643Y-13598214D01*
X18382214Y-13612500D01*
X18396500Y-13641071D01*
X18396500Y-13669643D01*
X18253643Y-13698214D01*
X18510786Y-13783929D02*
X18539357Y-13798214D01*
X18596500Y-13798214D01*
X18625071Y-13783929D01*
X18639357Y-13755357D01*
X18639357Y-13741071D01*
X18625071Y-13712500D01*
X18596500Y-13698214D01*
X18553643Y-13698214D01*
X18525071Y-13683929D01*
X18510786Y-13655357D01*
X18510786Y-13641071D01*
X18525071Y-13612500D01*
X18553643Y-13598214D01*
X18596500Y-13598214D01*
X18625071Y-13612500D01*
X18739357Y-13912500D02*
X18753643Y-13898214D01*
X18782214Y-13855357D01*
X18796500Y-13826786D01*
X18810786Y-13783929D01*
X18825071Y-13712500D01*
X18825071Y-13655357D01*
X18810786Y-13583929D01*
X18796500Y-13541071D01*
X18782214Y-13512500D01*
X18753643Y-13469643D01*
X18739357Y-13455357D01*
X11681500Y-14058500D02*
G75*
G03*
X11681500Y-14058500I-45000J0D01*
G01*
X12025071Y-13894214D02*
X12053643Y-13894214D01*
X12082214Y-13908500D01*
X12096500Y-13922786D01*
X12110786Y-13951357D01*
X12125071Y-14008500D01*
X12125071Y-14079929D01*
X12110786Y-14137071D01*
X12096500Y-14165643D01*
X12082214Y-14179929D01*
X12053643Y-14194214D01*
X12025071Y-14194214D01*
X11996500Y-14179929D01*
X11982214Y-14165643D01*
X11967928Y-14137071D01*
X11953643Y-14079929D01*
X11953643Y-14008500D01*
X11967928Y-13951357D01*
X11982214Y-13922786D01*
X11996500Y-13908500D01*
X12025071Y-13894214D01*
X12253643Y-14165643D02*
X12267928Y-14179929D01*
X12253643Y-14194214D01*
X12239357Y-14179929D01*
X12253643Y-14165643D01*
X12253643Y-14194214D01*
X12410786Y-14194214D02*
X12467928Y-14194214D01*
X12496500Y-14179929D01*
X12510786Y-14165643D01*
X12539357Y-14122786D01*
X12553643Y-14065643D01*
X12553643Y-13951357D01*
X12539357Y-13922786D01*
X12525071Y-13908500D01*
X12496500Y-13894214D01*
X12439357Y-13894214D01*
X12410786Y-13908500D01*
X12396500Y-13922786D01*
X12382214Y-13951357D01*
X12382214Y-14022786D01*
X12396500Y-14051357D01*
X12410786Y-14065643D01*
X12439357Y-14079929D01*
X12496500Y-14079929D01*
X12525071Y-14065643D01*
X12539357Y-14051357D01*
X12553643Y-14022786D01*
X12739357Y-13894214D02*
X12767928Y-13894214D01*
X12796500Y-13908500D01*
X12810786Y-13922786D01*
X12825071Y-13951357D01*
X12839357Y-14008500D01*
X12839357Y-14079929D01*
X12825071Y-14137071D01*
X12810786Y-14165643D01*
X12796500Y-14179929D01*
X12767928Y-14194214D01*
X12739357Y-14194214D01*
X12710786Y-14179929D01*
X12696500Y-14165643D01*
X12682214Y-14137071D01*
X12667928Y-14079929D01*
X12667928Y-14008500D01*
X12682214Y-13951357D01*
X12696500Y-13922786D01*
X12710786Y-13908500D01*
X12739357Y-13894214D01*
X13025071Y-13894214D02*
X13053643Y-13894214D01*
X13082214Y-13908500D01*
X13096500Y-13922786D01*
X13110786Y-13951357D01*
X13125071Y-14008500D01*
X13125071Y-14079929D01*
X13110786Y-14137071D01*
X13096500Y-14165643D01*
X13082214Y-14179929D01*
X13053643Y-14194214D01*
X13025071Y-14194214D01*
X12996500Y-14179929D01*
X12982214Y-14165643D01*
X12967928Y-14137071D01*
X12953643Y-14079929D01*
X12953643Y-14008500D01*
X12967928Y-13951357D01*
X12982214Y-13922786D01*
X12996500Y-13908500D01*
X13025071Y-13894214D01*
X13253643Y-14194214D02*
X13253643Y-13994214D01*
X13253643Y-14022786D02*
X13267928Y-14008500D01*
X13296500Y-13994214D01*
X13339357Y-13994214D01*
X13367928Y-14008500D01*
X13382214Y-14037071D01*
X13382214Y-14194214D01*
X13382214Y-14037071D02*
X13396500Y-14008500D01*
X13425071Y-13994214D01*
X13467928Y-13994214D01*
X13496500Y-14008500D01*
X13510786Y-14037071D01*
X13510786Y-14194214D01*
X13653643Y-14194214D02*
X13653643Y-13994214D01*
X13653643Y-14022786D02*
X13667928Y-14008500D01*
X13696500Y-13994214D01*
X13739357Y-13994214D01*
X13767928Y-14008500D01*
X13782214Y-14037071D01*
X13782214Y-14194214D01*
X13782214Y-14037071D02*
X13796500Y-14008500D01*
X13825071Y-13994214D01*
X13867928Y-13994214D01*
X13896500Y-14008500D01*
X13910786Y-14037071D01*
X13910786Y-14194214D01*
X14496500Y-13879929D02*
X14239357Y-14265643D01*
X14882214Y-13894214D02*
X14910786Y-13894214D01*
X14939357Y-13908500D01*
X14953643Y-13922786D01*
X14967928Y-13951357D01*
X14982214Y-14008500D01*
X14982214Y-14079929D01*
X14967928Y-14137071D01*
X14953643Y-14165643D01*
X14939357Y-14179929D01*
X14910786Y-14194214D01*
X14882214Y-14194214D01*
X14853643Y-14179929D01*
X14839357Y-14165643D01*
X14825071Y-14137071D01*
X14810786Y-14079929D01*
X14810786Y-14008500D01*
X14825071Y-13951357D01*
X14839357Y-13922786D01*
X14853643Y-13908500D01*
X14882214Y-13894214D01*
X15110786Y-14165643D02*
X15125071Y-14179929D01*
X15110786Y-14194214D01*
X15096500Y-14179929D01*
X15110786Y-14165643D01*
X15110786Y-14194214D01*
X15310786Y-13894214D02*
X15339357Y-13894214D01*
X15367928Y-13908500D01*
X15382214Y-13922786D01*
X15396500Y-13951357D01*
X15410786Y-14008500D01*
X15410786Y-14079929D01*
X15396500Y-14137071D01*
X15382214Y-14165643D01*
X15367928Y-14179929D01*
X15339357Y-14194214D01*
X15310786Y-14194214D01*
X15282214Y-14179929D01*
X15267928Y-14165643D01*
X15253643Y-14137071D01*
X15239357Y-14079929D01*
X15239357Y-14008500D01*
X15253643Y-13951357D01*
X15267928Y-13922786D01*
X15282214Y-13908500D01*
X15310786Y-13894214D01*
X15510786Y-13894214D02*
X15696500Y-13894214D01*
X15596500Y-14008500D01*
X15639357Y-14008500D01*
X15667928Y-14022786D01*
X15682214Y-14037071D01*
X15696500Y-14065643D01*
X15696500Y-14137071D01*
X15682214Y-14165643D01*
X15667928Y-14179929D01*
X15639357Y-14194214D01*
X15553643Y-14194214D01*
X15525071Y-14179929D01*
X15510786Y-14165643D01*
X15967928Y-13894214D02*
X15825071Y-13894214D01*
X15810786Y-14037071D01*
X15825071Y-14022786D01*
X15853643Y-14008500D01*
X15925071Y-14008500D01*
X15953643Y-14022786D01*
X15967928Y-14037071D01*
X15982214Y-14065643D01*
X15982214Y-14137071D01*
X15967928Y-14165643D01*
X15953643Y-14179929D01*
X15925071Y-14194214D01*
X15853643Y-14194214D01*
X15825071Y-14179929D01*
X15810786Y-14165643D01*
X16239357Y-13994214D02*
X16239357Y-14194214D01*
X16167928Y-13879929D02*
X16096500Y-14094214D01*
X16282214Y-14094214D01*
X16382214Y-13894214D02*
X16382214Y-13951357D01*
X16496500Y-13894214D02*
X16496500Y-13951357D01*
X16939357Y-14308500D02*
X16925071Y-14294214D01*
X16896500Y-14251357D01*
X16882214Y-14222786D01*
X16867928Y-14179929D01*
X16853643Y-14108500D01*
X16853643Y-14051357D01*
X16867928Y-13979929D01*
X16882214Y-13937071D01*
X16896500Y-13908500D01*
X16925071Y-13865643D01*
X16939357Y-13851357D01*
X17182214Y-13894214D02*
X17125071Y-13894214D01*
X17096500Y-13908500D01*
X17082214Y-13922786D01*
X17053643Y-13965643D01*
X17039357Y-14022786D01*
X17039357Y-14137071D01*
X17053643Y-14165643D01*
X17067928Y-14179929D01*
X17096500Y-14194214D01*
X17153643Y-14194214D01*
X17182214Y-14179929D01*
X17196500Y-14165643D01*
X17210786Y-14137071D01*
X17210786Y-14065643D01*
X17196500Y-14037071D01*
X17182214Y-14022786D01*
X17153643Y-14008500D01*
X17096500Y-14008500D01*
X17067928Y-14022786D01*
X17053643Y-14037071D01*
X17039357Y-14065643D01*
X17567928Y-14194214D02*
X17567928Y-13894214D01*
X17696500Y-14194214D02*
X17696500Y-14037071D01*
X17682214Y-14008500D01*
X17653643Y-13994214D01*
X17610786Y-13994214D01*
X17582214Y-14008500D01*
X17567928Y-14022786D01*
X17882214Y-14194214D02*
X17853643Y-14179929D01*
X17839357Y-14165643D01*
X17825071Y-14137071D01*
X17825071Y-14051357D01*
X17839357Y-14022786D01*
X17853643Y-14008500D01*
X17882214Y-13994214D01*
X17925071Y-13994214D01*
X17953643Y-14008500D01*
X17967928Y-14022786D01*
X17982214Y-14051357D01*
X17982214Y-14137071D01*
X17967928Y-14165643D01*
X17953643Y-14179929D01*
X17925071Y-14194214D01*
X17882214Y-14194214D01*
X18153643Y-14194214D02*
X18125071Y-14179929D01*
X18110786Y-14151357D01*
X18110786Y-13894214D01*
X18382214Y-14179929D02*
X18353643Y-14194214D01*
X18296500Y-14194214D01*
X18267928Y-14179929D01*
X18253643Y-14151357D01*
X18253643Y-14037071D01*
X18267928Y-14008500D01*
X18296500Y-13994214D01*
X18353643Y-13994214D01*
X18382214Y-14008500D01*
X18396500Y-14037071D01*
X18396500Y-14065643D01*
X18253643Y-14094214D01*
X18510786Y-14179929D02*
X18539357Y-14194214D01*
X18596500Y-14194214D01*
X18625071Y-14179929D01*
X18639357Y-14151357D01*
X18639357Y-14137071D01*
X18625071Y-14108500D01*
X18596500Y-14094214D01*
X18553643Y-14094214D01*
X18525071Y-14079929D01*
X18510786Y-14051357D01*
X18510786Y-14037071D01*
X18525071Y-14008500D01*
X18553643Y-13994214D01*
X18596500Y-13994214D01*
X18625071Y-14008500D01*
X18739357Y-14308500D02*
X18753643Y-14294214D01*
X18782214Y-14251357D01*
X18796500Y-14222786D01*
X18810786Y-14179929D01*
X18825071Y-14108500D01*
X18825071Y-14051357D01*
X18810786Y-13979929D01*
X18796500Y-13937071D01*
X18782214Y-13908500D01*
X18753643Y-13865643D01*
X18739357Y-13851357D01*
X11631500Y-14404500D02*
X11631500Y-14504500D01*
X11581500Y-14454500D02*
X11681500Y-14454500D01*
X12125071Y-14590214D02*
X11953643Y-14590214D01*
X12039357Y-14590214D02*
X12039357Y-14290214D01*
X12010786Y-14333071D01*
X11982214Y-14361643D01*
X11953643Y-14375929D01*
X12253643Y-14561643D02*
X12267928Y-14575929D01*
X12253643Y-14590214D01*
X12239357Y-14575929D01*
X12253643Y-14561643D01*
X12253643Y-14590214D01*
X12453643Y-14290214D02*
X12482214Y-14290214D01*
X12510786Y-14304500D01*
X12525071Y-14318786D01*
X12539357Y-14347357D01*
X12553643Y-14404500D01*
X12553643Y-14475929D01*
X12539357Y-14533071D01*
X12525071Y-14561643D01*
X12510786Y-14575929D01*
X12482214Y-14590214D01*
X12453643Y-14590214D01*
X12425071Y-14575929D01*
X12410786Y-14561643D01*
X12396500Y-14533071D01*
X12382214Y-14475929D01*
X12382214Y-14404500D01*
X12396500Y-14347357D01*
X12410786Y-14318786D01*
X12425071Y-14304500D01*
X12453643Y-14290214D01*
X12739357Y-14290214D02*
X12767928Y-14290214D01*
X12796500Y-14304500D01*
X12810786Y-14318786D01*
X12825071Y-14347357D01*
X12839357Y-14404500D01*
X12839357Y-14475929D01*
X12825071Y-14533071D01*
X12810786Y-14561643D01*
X12796500Y-14575929D01*
X12767928Y-14590214D01*
X12739357Y-14590214D01*
X12710786Y-14575929D01*
X12696500Y-14561643D01*
X12682214Y-14533071D01*
X12667928Y-14475929D01*
X12667928Y-14404500D01*
X12682214Y-14347357D01*
X12696500Y-14318786D01*
X12710786Y-14304500D01*
X12739357Y-14290214D01*
X13025071Y-14290214D02*
X13053643Y-14290214D01*
X13082214Y-14304500D01*
X13096500Y-14318786D01*
X13110786Y-14347357D01*
X13125071Y-14404500D01*
X13125071Y-14475929D01*
X13110786Y-14533071D01*
X13096500Y-14561643D01*
X13082214Y-14575929D01*
X13053643Y-14590214D01*
X13025071Y-14590214D01*
X12996500Y-14575929D01*
X12982214Y-14561643D01*
X12967928Y-14533071D01*
X12953643Y-14475929D01*
X12953643Y-14404500D01*
X12967928Y-14347357D01*
X12982214Y-14318786D01*
X12996500Y-14304500D01*
X13025071Y-14290214D01*
X13253643Y-14590214D02*
X13253643Y-14390214D01*
X13253643Y-14418786D02*
X13267928Y-14404500D01*
X13296500Y-14390214D01*
X13339357Y-14390214D01*
X13367928Y-14404500D01*
X13382214Y-14433071D01*
X13382214Y-14590214D01*
X13382214Y-14433071D02*
X13396500Y-14404500D01*
X13425071Y-14390214D01*
X13467928Y-14390214D01*
X13496500Y-14404500D01*
X13510786Y-14433071D01*
X13510786Y-14590214D01*
X13653643Y-14590214D02*
X13653643Y-14390214D01*
X13653643Y-14418786D02*
X13667928Y-14404500D01*
X13696500Y-14390214D01*
X13739357Y-14390214D01*
X13767928Y-14404500D01*
X13782214Y-14433071D01*
X13782214Y-14590214D01*
X13782214Y-14433071D02*
X13796500Y-14404500D01*
X13825071Y-14390214D01*
X13867928Y-14390214D01*
X13896500Y-14404500D01*
X13910786Y-14433071D01*
X13910786Y-14590214D01*
X14496500Y-14275929D02*
X14239357Y-14661643D01*
X14882214Y-14290214D02*
X14910786Y-14290214D01*
X14939357Y-14304500D01*
X14953643Y-14318786D01*
X14967928Y-14347357D01*
X14982214Y-14404500D01*
X14982214Y-14475929D01*
X14967928Y-14533071D01*
X14953643Y-14561643D01*
X14939357Y-14575929D01*
X14910786Y-14590214D01*
X14882214Y-14590214D01*
X14853643Y-14575929D01*
X14839357Y-14561643D01*
X14825071Y-14533071D01*
X14810786Y-14475929D01*
X14810786Y-14404500D01*
X14825071Y-14347357D01*
X14839357Y-14318786D01*
X14853643Y-14304500D01*
X14882214Y-14290214D01*
X15110786Y-14561643D02*
X15125071Y-14575929D01*
X15110786Y-14590214D01*
X15096500Y-14575929D01*
X15110786Y-14561643D01*
X15110786Y-14590214D01*
X15310786Y-14290214D02*
X15339357Y-14290214D01*
X15367928Y-14304500D01*
X15382214Y-14318786D01*
X15396500Y-14347357D01*
X15410786Y-14404500D01*
X15410786Y-14475929D01*
X15396500Y-14533071D01*
X15382214Y-14561643D01*
X15367928Y-14575929D01*
X15339357Y-14590214D01*
X15310786Y-14590214D01*
X15282214Y-14575929D01*
X15267928Y-14561643D01*
X15253643Y-14533071D01*
X15239357Y-14475929D01*
X15239357Y-14404500D01*
X15253643Y-14347357D01*
X15267928Y-14318786D01*
X15282214Y-14304500D01*
X15310786Y-14290214D01*
X15510786Y-14290214D02*
X15696500Y-14290214D01*
X15596500Y-14404500D01*
X15639357Y-14404500D01*
X15667928Y-14418786D01*
X15682214Y-14433071D01*
X15696500Y-14461643D01*
X15696500Y-14533071D01*
X15682214Y-14561643D01*
X15667928Y-14575929D01*
X15639357Y-14590214D01*
X15553643Y-14590214D01*
X15525071Y-14575929D01*
X15510786Y-14561643D01*
X15839357Y-14590214D02*
X15896500Y-14590214D01*
X15925071Y-14575929D01*
X15939357Y-14561643D01*
X15967928Y-14518786D01*
X15982214Y-14461643D01*
X15982214Y-14347357D01*
X15967928Y-14318786D01*
X15953643Y-14304500D01*
X15925071Y-14290214D01*
X15867928Y-14290214D01*
X15839357Y-14304500D01*
X15825071Y-14318786D01*
X15810786Y-14347357D01*
X15810786Y-14418786D01*
X15825071Y-14447357D01*
X15839357Y-14461643D01*
X15867928Y-14475929D01*
X15925071Y-14475929D01*
X15953643Y-14461643D01*
X15967928Y-14447357D01*
X15982214Y-14418786D01*
X16239357Y-14390214D02*
X16239357Y-14590214D01*
X16167928Y-14275929D02*
X16096500Y-14490214D01*
X16282214Y-14490214D01*
X16382214Y-14290214D02*
X16382214Y-14347357D01*
X16496500Y-14290214D02*
X16496500Y-14347357D01*
X16939357Y-14704500D02*
X16925071Y-14690214D01*
X16896500Y-14647357D01*
X16882214Y-14618786D01*
X16867928Y-14575929D01*
X16853643Y-14504500D01*
X16853643Y-14447357D01*
X16867928Y-14375929D01*
X16882214Y-14333071D01*
X16896500Y-14304500D01*
X16925071Y-14261643D01*
X16939357Y-14247357D01*
X17210786Y-14590214D02*
X17039357Y-14590214D01*
X17125071Y-14590214D02*
X17125071Y-14290214D01*
X17096500Y-14333071D01*
X17067928Y-14361643D01*
X17039357Y-14375929D01*
X17467928Y-14290214D02*
X17410786Y-14290214D01*
X17382214Y-14304500D01*
X17367928Y-14318786D01*
X17339357Y-14361643D01*
X17325071Y-14418786D01*
X17325071Y-14533071D01*
X17339357Y-14561643D01*
X17353643Y-14575929D01*
X17382214Y-14590214D01*
X17439357Y-14590214D01*
X17467928Y-14575929D01*
X17482214Y-14561643D01*
X17496500Y-14533071D01*
X17496500Y-14461643D01*
X17482214Y-14433071D01*
X17467928Y-14418786D01*
X17439357Y-14404500D01*
X17382214Y-14404500D01*
X17353643Y-14418786D01*
X17339357Y-14433071D01*
X17325071Y-14461643D01*
X17853643Y-14590214D02*
X17853643Y-14290214D01*
X17982214Y-14590214D02*
X17982214Y-14433071D01*
X17967928Y-14404500D01*
X17939357Y-14390214D01*
X17896500Y-14390214D01*
X17867928Y-14404500D01*
X17853643Y-14418786D01*
X18167928Y-14590214D02*
X18139357Y-14575929D01*
X18125071Y-14561643D01*
X18110786Y-14533071D01*
X18110786Y-14447357D01*
X18125071Y-14418786D01*
X18139357Y-14404500D01*
X18167928Y-14390214D01*
X18210786Y-14390214D01*
X18239357Y-14404500D01*
X18253643Y-14418786D01*
X18267928Y-14447357D01*
X18267928Y-14533071D01*
X18253643Y-14561643D01*
X18239357Y-14575929D01*
X18210786Y-14590214D01*
X18167928Y-14590214D01*
X18439357Y-14590214D02*
X18410786Y-14575929D01*
X18396500Y-14547357D01*
X18396500Y-14290214D01*
X18667928Y-14575929D02*
X18639357Y-14590214D01*
X18582214Y-14590214D01*
X18553643Y-14575929D01*
X18539357Y-14547357D01*
X18539357Y-14433071D01*
X18553643Y-14404500D01*
X18582214Y-14390214D01*
X18639357Y-14390214D01*
X18667928Y-14404500D01*
X18682214Y-14433071D01*
X18682214Y-14461643D01*
X18539357Y-14490214D01*
X18796500Y-14575929D02*
X18825071Y-14590214D01*
X18882214Y-14590214D01*
X18910786Y-14575929D01*
X18925071Y-14547357D01*
X18925071Y-14533071D01*
X18910786Y-14504500D01*
X18882214Y-14490214D01*
X18839357Y-14490214D01*
X18810786Y-14475929D01*
X18796500Y-14447357D01*
X18796500Y-14433071D01*
X18810786Y-14404500D01*
X18839357Y-14390214D01*
X18882214Y-14390214D01*
X18910786Y-14404500D01*
X19025071Y-14704500D02*
X19039357Y-14690214D01*
X19067928Y-14647357D01*
X19082214Y-14618786D01*
X19096500Y-14575929D01*
X19110786Y-14504500D01*
X19110786Y-14447357D01*
X19096500Y-14375929D01*
X19082214Y-14333071D01*
X19067928Y-14304500D01*
X19039357Y-14261643D01*
X19025071Y-14247357D01*
M02*
