<?xml version="1.0" standalone="no"?>
<!DOCTYPE svg PUBLIC "-//W3C//DTD SVG 1.1//EN" 
  "http://www.w3.org/Graphics/SVG/1.1/DTD/svg11.dtd">
<svg width="45.000mm" height="40.000mm" version="1.1"
     viewBox="0 0 45.000 40.000"
     xmlns="http://www.w3.org/2000/svg"  xmlns:xlink="http://www.w3.org/1999/xlink" 
     xmlns:fpd="http://www.schaeffer-ag.de">
  <desc>Diese Zeichnung wurde mit dem Frontplatten Desinger durch den Export der Datei 'Adapter-2x3zu1x6.fpd' erzeugt.</desc>
  <defs>
    <pattern id="revside-fill" x="1" y="1" width="0.450" height="0.450" patternUnits="userSpaceOnUse">
      <line x1="0" y1="0" x2="0.450" y2="0.450" style="stroke-width:0.045; stroke:black; stroke-dasharray:none;" />
      <line x1="0" y1="0.450" x2="0.450" y2="0" style="stroke-width:0.045; stroke:black; stroke-dasharray:none;" />
    </pattern>
    <pattern id="revside-fill-silver" x="1" y="1" width="0.450" height="0.450" patternUnits="userSpaceOnUse">
      <line x1="0" y1="0" x2="0.450" y2="0.450" style="stroke-width:0.045; stroke:#e0e0e0; stroke-dasharray:none;" />
      <line x1="0" y1="0.450" x2="0.450" y2="0" style="stroke-width:0.045; stroke:#e0e0e0; stroke-dasharray:none;" />
    </pattern>
  </defs>
<g transform="scale(1,-1) translate( -0.000, -40.000)" 
   fill-rule="evenodd"
   style="stroke-linecap:round; stroke-linejoin:round; stroke-opacity:1.0; stroke-opacity:1.0;">
<path d="
M45.000 40.000
L45.000 0.000
L0.000 0.000
L0.000 40.000
L45.000 40.000
" 
fill="#c0c0c0" fill-opacity="1.000000" vector-effect="non-scaling-stroke" stroke="#000000" stroke-width="0.100mm" stroke-opacity="1.000000" fpd:visible="front back" />
<path d="
M15.000 37.500
L15.000 27.500
" 
fill="none" vector-effect="non-scaling-stroke" stroke="#000000" stroke-width="2.000mm" stroke-opacity="1.000000" fpd:visible="front" fpd:print_element="0" fpd:engraving_ral_9005="1" />
<path d="
M20.000 37.500
L20.000 27.500
" 
fill="none" vector-effect="non-scaling-stroke" stroke="#000000" stroke-width="2.000mm" stroke-opacity="1.000000" fpd:visible="front" fpd:print_element="0" fpd:engraving_ral_9005="1" />
<path d="
M25.000 37.500
L25.000 27.500
" 
fill="none" vector-effect="non-scaling-stroke" stroke="#000000" stroke-width="2.000mm" stroke-opacity="1.000000" fpd:visible="front" fpd:print_element="0" fpd:engraving_ral_9005="1" />
<path d="
M15.000 22.500
L15.000 12.500
" 
fill="none" vector-effect="non-scaling-stroke" stroke="#000000" stroke-width="2.000mm" stroke-opacity="1.000000" fpd:visible="front" fpd:print_element="0" fpd:engraving_ral_9005="1" />
<path d="
M20.000 22.500
L20.000 12.500
" 
fill="none" vector-effect="non-scaling-stroke" stroke="#000000" stroke-width="2.000mm" stroke-opacity="1.000000" fpd:visible="front" fpd:print_element="0" fpd:engraving_ral_9005="1" />
<path d="
M25.000 22.500
L25.000 12.500
" 
fill="none" vector-effect="non-scaling-stroke" stroke="#000000" stroke-width="2.000mm" stroke-opacity="1.000000" fpd:visible="front" fpd:print_element="0" fpd:engraving_ral_9005="1" />
<path d="
M10.000 37.500
L10.000 27.500
" 
fill="none" vector-effect="non-scaling-stroke" stroke="#000000" stroke-width="2.000mm" stroke-opacity="1.000000" fpd:visible="front" fpd:print_element="0" fpd:engraving_ral_9005="1" />
<path d="
M30.000 37.500
L30.000 27.500
" 
fill="none" vector-effect="non-scaling-stroke" stroke="#000000" stroke-width="2.000mm" stroke-opacity="1.000000" fpd:visible="front" fpd:print_element="0" fpd:engraving_ral_9005="1" />
<path d="
M35.000 37.500
L35.000 27.500
" 
fill="none" vector-effect="non-scaling-stroke" stroke="#000000" stroke-width="2.000mm" stroke-opacity="1.000000" fpd:visible="front" fpd:print_element="0" fpd:engraving_ral_9005="1" />
<path d="
M10.000 22.500
L10.000 12.500
" 
fill="none" vector-effect="non-scaling-stroke" stroke="#000000" stroke-width="2.000mm" stroke-opacity="1.000000" fpd:visible="front" fpd:print_element="0" fpd:engraving_ral_9005="1" />
<path d="
M30.000 22.500
L30.000 12.500
" 
fill="none" vector-effect="non-scaling-stroke" stroke="#000000" stroke-width="2.000mm" stroke-opacity="1.000000" fpd:visible="front" fpd:print_element="0" fpd:engraving_ral_9005="1" />
<path d="
M35.000 22.500
L35.000 12.500
" 
fill="none" vector-effect="non-scaling-stroke" stroke="#000000" stroke-width="2.000mm" stroke-opacity="1.000000" fpd:visible="front" fpd:print_element="0" fpd:engraving_ral_9005="1" />
<path d="
M10.000 20.000
L10.000 30.000
" 
fill="none" vector-effect="non-scaling-stroke" stroke="#007439" stroke-width="1.000mm" stroke-opacity="1.000000" fpd:visible="front" fpd:print_element="0" fpd:engraving_ral_6029="1" />
<path d="
M30.000 30.000
L30.000 20.000
" 
fill="none" vector-effect="non-scaling-stroke" stroke="#007439" stroke-width="1.000mm" stroke-opacity="1.000000" fpd:visible="front" fpd:print_element="0" fpd:engraving_ral_6029="1" />
<path d="
M35.000 30.000
L35.000 20.000
" 
fill="none" vector-effect="non-scaling-stroke" stroke="#007439" stroke-width="1.000mm" stroke-opacity="1.000000" fpd:visible="front" fpd:print_element="0" fpd:engraving_ral_6029="1" />
<path d="
M15.000 20.000
L10.000 20.000
" 
fill="none" vector-effect="non-scaling-stroke" stroke="#007439" stroke-width="1.000mm" stroke-opacity="1.000000" fpd:visible="front" fpd:print_element="0" fpd:engraving_ral_6029="1" />
<path d="
M30.000 20.000
L25.000 20.000
" 
fill="none" vector-effect="non-scaling-stroke" stroke="#007439" stroke-width="1.000mm" stroke-opacity="1.000000" fpd:visible="front" fpd:print_element="0" fpd:engraving_ral_6029="1" />
<path d="
M30.000 15.000
L25.000 15.000
" 
fill="none" vector-effect="non-scaling-stroke" stroke="#007439" stroke-width="1.000mm" stroke-opacity="1.000000" fpd:visible="front" fpd:print_element="0" fpd:engraving_ral_6029="1" />
<path d="
M35.000 15.000
L30.000 15.000
" 
fill="none" vector-effect="non-scaling-stroke" stroke="#007439" stroke-width="1.000mm" stroke-opacity="1.000000" fpd:visible="front" fpd:print_element="0" fpd:engraving_ral_6029="1" />
<path d="
M25.000 15.000
L20.000 15.000
" 
fill="none" vector-effect="non-scaling-stroke" stroke="#007439" stroke-width="1.000mm" stroke-opacity="1.000000" fpd:visible="front" fpd:print_element="0" fpd:engraving_ral_6029="1" />
<path d="
M2.500 -2.500
L42.500 -2.500
L42.500 17.500
L2.500 17.500
L2.500 -2.500
" 
fill="none" vector-effect="non-scaling-stroke" stroke="#a8a8af" stroke-width="0.200mm" stroke-opacity="1.000000" fpd:visible="front" fpd:print_element="0" fpd:engraving_ral_7004="1" />
<path d="
M23.125 15.000
L31.875 15.000
" 
fill="none" vector-effect="non-scaling-stroke" stroke="#003687" stroke-width="3.000mm" stroke-opacity="1.000000" fpd:visible="front" fpd:print_element="0" fpd:engraving_ral_5010="1" />
<path d="
M37.501 37.193
L38.070 37.763
L38.070 35.200
" 
fill="none" vector-effect="non-scaling-stroke" stroke="#000000" stroke-width="0.400mm" stroke-opacity="1.000000" fpd:visible="front" fpd:print_element="0" fpd:engraving_ral_9005="1" />
<path d="
M14.000 22.500
A1.000,1.000 0 1,0 16.000,22.500
A1.000,1.000 0 1,0 14.000,22.500
" 
fill="#ffffff" fill-opacity="1.000000" vector-effect="non-scaling-stroke" stroke="#000000" stroke-width="0.100mm" stroke-opacity="1.000000" fpd:visible="front back" fpd:print_element="0" />
<path d="
M19.000 22.500
A1.000,1.000 0 1,0 21.000,22.500
A1.000,1.000 0 1,0 19.000,22.500
" 
fill="#ffffff" fill-opacity="1.000000" vector-effect="non-scaling-stroke" stroke="#000000" stroke-width="0.100mm" stroke-opacity="1.000000" fpd:visible="front back" fpd:print_element="0" />
<path d="
M24.000 22.500
A1.000,1.000 0 1,0 26.000,22.500
A1.000,1.000 0 1,0 24.000,22.500
" 
fill="#ffffff" fill-opacity="1.000000" vector-effect="non-scaling-stroke" stroke="#000000" stroke-width="0.100mm" stroke-opacity="1.000000" fpd:visible="front back" fpd:print_element="0" />
<path d="
M14.000 27.500
A1.000,1.000 0 1,0 16.000,27.500
A1.000,1.000 0 1,0 14.000,27.500
" 
fill="#ffffff" fill-opacity="1.000000" vector-effect="non-scaling-stroke" stroke="#000000" stroke-width="0.100mm" stroke-opacity="1.000000" fpd:visible="front back" fpd:print_element="0" />
<path d="
M19.000 27.500
A1.000,1.000 0 1,0 21.000,27.500
A1.000,1.000 0 1,0 19.000,27.500
" 
fill="#ffffff" fill-opacity="1.000000" vector-effect="non-scaling-stroke" stroke="#000000" stroke-width="0.100mm" stroke-opacity="1.000000" fpd:visible="front back" fpd:print_element="0" />
<path d="
M24.000 27.500
A1.000,1.000 0 1,0 26.000,27.500
A1.000,1.000 0 1,0 24.000,27.500
" 
fill="#ffffff" fill-opacity="1.000000" vector-effect="non-scaling-stroke" stroke="#000000" stroke-width="0.100mm" stroke-opacity="1.000000" fpd:visible="front back" fpd:print_element="0" />
<path d="
M9.000 32.500
A1.000,1.000 0 1,0 11.000,32.500
A1.000,1.000 0 1,0 9.000,32.500
" 
fill="#ffffff" fill-opacity="1.000000" vector-effect="non-scaling-stroke" stroke="#000000" stroke-width="0.100mm" stroke-opacity="1.000000" fpd:visible="front back" fpd:print_element="0" />
<path d="
M14.000 32.500
A1.000,1.000 0 1,0 16.000,32.500
A1.000,1.000 0 1,0 14.000,32.500
" 
fill="#ffffff" fill-opacity="1.000000" vector-effect="non-scaling-stroke" stroke="#000000" stroke-width="0.100mm" stroke-opacity="1.000000" fpd:visible="front back" fpd:print_element="0" />
<path d="
M19.000 32.500
A1.000,1.000 0 1,0 21.000,32.500
A1.000,1.000 0 1,0 19.000,32.500
" 
fill="#ffffff" fill-opacity="1.000000" vector-effect="non-scaling-stroke" stroke="#000000" stroke-width="0.100mm" stroke-opacity="1.000000" fpd:visible="front back" fpd:print_element="0" />
<path d="
M24.000 32.500
A1.000,1.000 0 1,0 26.000,32.500
A1.000,1.000 0 1,0 24.000,32.500
" 
fill="#ffffff" fill-opacity="1.000000" vector-effect="non-scaling-stroke" stroke="#000000" stroke-width="0.100mm" stroke-opacity="1.000000" fpd:visible="front back" fpd:print_element="0" />
<path d="
M29.000 32.500
A1.000,1.000 0 1,0 31.000,32.500
A1.000,1.000 0 1,0 29.000,32.500
" 
fill="#ffffff" fill-opacity="1.000000" vector-effect="non-scaling-stroke" stroke="#000000" stroke-width="0.100mm" stroke-opacity="1.000000" fpd:visible="front back" fpd:print_element="0" />
<path d="
M34.000 32.500
A1.000,1.000 0 1,0 36.000,32.500
A1.000,1.000 0 1,0 34.000,32.500
" 
fill="#ffffff" fill-opacity="1.000000" vector-effect="non-scaling-stroke" stroke="#000000" stroke-width="0.100mm" stroke-opacity="1.000000" fpd:visible="front back" fpd:print_element="0" />
<path d="
M45.000 40.000
L45.000 0.000
L0.000 0.000
L0.000 40.000
L45.000 40.000
" 
fill="none" vector-effect="non-scaling-stroke" stroke="#000000" stroke-width="0.100mm" stroke-opacity="1.000000" fpd:visible="front back" />
</g>
</svg>
